<svg width="39" height="39" viewBox="0 0 39 39" fill="none" xmlns="http://www.w3.org/2000/svg">
<path d="M32.5 14.5C32.5 10.7288 32.5 8.84315 31.3284 7.67157C30.1569 6.5 28.2712 6.5 24.5 6.5H14.5C10.7288 6.5 8.84315 6.5 7.67157 7.67157C6.5 8.84315 6.5 10.7288 6.5 14.5V30.5C6.5 31.4428 6.5 31.9142 6.79289 32.2071C7.08579 32.5 7.55719 32.5 8.5 32.5H24.5C28.2712 32.5 30.1569 32.5 31.3284 31.3284C32.5 30.1569 32.5 28.2712 32.5 24.5V14.5Z" stroke="#006B62" stroke-width="3"/>
<path d="M14.625 19.5L24.375 19.5" stroke="#006B62" stroke-width="3" stroke-linecap="round" stroke-linejoin="round"/>
<path d="M19.5 14.625L19.5 24.375" stroke="#006B62" stroke-width="3" stroke-linecap="round" stroke-linejoin="round"/>
</svg>
