<svg width="197" height="185" viewBox="0 0 197 185" fill="none" xmlns="http://www.w3.org/2000/svg">
<path d="M47.5 112.5L17 150.5V174.5H179.5V128.5L124.5 73.5L66.5 131.5L47.5 112.5Z" fill="#B9B9B4" stroke="#B9B9B4"/>
<path fill-rule="evenodd" clip-rule="evenodd" d="M118 11H35C15.67 11 0 26.67 0 46V150C0 169.33 15.67 185 35 185H155C174.33 185 190 169.33 190 150V81H172V150C172 159.389 164.389 167 155 167H35C25.6112 167 18 159.389 18 150V46C18 36.6112 25.6112 29 35 29H118V11Z" fill="#B9B9B4"/>
<path d="M162 6V66" stroke="#B9B9B4" stroke-width="12" stroke-linecap="round"/>
<path d="M133 34L191 34" stroke="#B9B9B4" stroke-width="12" stroke-linecap="round"/>
<circle cx="56" cy="71" r="9.5" fill="#B9B9B4" stroke="#B9B9B4"/>
<path d="M47.5 112.5L17 150.5V174.5H179.5V128.5L124.5 73.5L66.5 131.5L47.5 112.5Z" fill="#B9B9B4" stroke="#B9B9B4"/>
<path fill-rule="evenodd" clip-rule="evenodd" d="M118 11H35C15.67 11 0 26.67 0 46V150C0 169.33 15.67 185 35 185H155C174.33 185 190 169.33 190 150V81H172V150C172 159.389 164.389 167 155 167H35C25.6112 167 18 159.389 18 150V46C18 36.6112 25.6112 29 35 29H118V11Z" fill="#B9B9B4"/>
<path d="M133 34L191 34" stroke="#B9B9B4" stroke-width="12" stroke-linecap="round"/>
<circle cx="56" cy="71" r="9.5" fill="#B9B9B4" stroke="#B9B9B4"/>
</svg>
