<svg width="357" height="84" viewBox="0 0 357 84" fill="none" xmlns="http://www.w3.org/2000/svg">
<g filter="url(#filter0_d_249_984)">
<rect x="4" width="349" height="76" rx="15" fill="white"/>
</g>
<path d="M30.9336 31C30.6406 31 30.4941 30.8389 30.4941 30.5166V18.8799C30.4941 18.5576 30.6406 18.3965 30.9336 18.3965H34.1768C36.6611 18.3965 38.3867 18.9473 39.3535 20.0488C40.3262 21.1445 40.8125 22.6885 40.8125 24.6807C40.8125 26.6729 40.3262 28.2256 39.3535 29.3389C38.3867 30.4463 36.6611 31 34.1768 31H30.9336ZM32.1816 29.5586H34.0977C36.0312 29.5586 37.332 29.1484 38 28.3281C38.6738 27.5078 39.0107 26.292 39.0107 24.6807C39.0107 23.0693 38.6738 21.8564 38 21.042C37.332 20.2275 36.0312 19.8203 34.0977 19.8203H32.1816V29.5586ZM42.3682 26.3857C42.3682 25.0088 42.7314 23.8721 43.458 22.9756C44.1904 22.0732 45.2598 21.6221 46.666 21.6221C48.0723 21.6221 49.1387 22.0732 49.8652 22.9756C50.5977 23.8721 50.9639 25.0088 50.9639 26.3857C50.9639 27.7627 50.5977 28.9023 49.8652 29.8047C49.1387 30.7012 48.0723 31.1494 46.666 31.1494C45.2598 31.1494 44.1904 30.7012 43.458 29.8047C42.7314 28.9023 42.3682 27.7627 42.3682 26.3857ZM44.0029 26.3857C44.0029 27.6162 44.2461 28.5273 44.7324 29.1191C45.2188 29.7109 45.8633 30.0068 46.666 30.0068C47.4688 30.0068 48.1133 29.7109 48.5996 29.1191C49.0859 28.5273 49.3291 27.6162 49.3291 26.3857C49.3291 25.1553 49.0859 24.2441 48.5996 23.6523C48.1133 23.0605 47.4688 22.7646 46.666 22.7646C45.8633 22.7646 45.2188 23.0605 44.7324 23.6523C44.2461 24.2441 44.0029 25.1553 44.0029 26.3857ZM52.9414 27.7832V22.167C52.9414 21.9033 53.0732 21.7715 53.3369 21.7715H54.0928C54.3564 21.7715 54.4883 21.9033 54.4883 22.167V27.3613C54.4883 28.5098 54.6787 29.2393 55.0596 29.5498C55.4404 29.8545 55.9121 30.0068 56.4746 30.0068C57.2129 30.0068 57.7783 29.7812 58.1709 29.3301C58.5635 28.873 58.7598 28.0938 58.7598 26.9922V22.167C58.7598 21.9033 58.8916 21.7715 59.1553 21.7715H59.9111C60.1748 21.7715 60.3066 21.9033 60.3066 22.167V30.6045C60.3066 30.8682 60.1748 31 59.9111 31H59.1729C58.9092 31 58.7773 30.8682 58.7773 30.6045V29.9014H58.7422C58.3613 30.3232 57.9512 30.6367 57.5117 30.8418C57.0723 31.0469 56.5361 31.1494 55.9033 31.1494C54.8779 31.1494 54.1279 30.8506 53.6533 30.2529C53.1787 29.6494 52.9414 28.8262 52.9414 27.7832ZM63.1982 31C62.9346 31 62.8027 30.8682 62.8027 30.6045V18.4229C62.8027 18.1592 62.9346 18.0273 63.1982 18.0273H63.9541C64.2178 18.0273 64.3496 18.1592 64.3496 18.4229V22.334C64.3496 22.5156 64.3438 22.6943 64.332 22.8701H64.3496C64.6719 22.4834 65.0352 22.1787 65.4395 21.9561C65.8438 21.7334 66.3828 21.6221 67.0566 21.6221C68.2285 21.6221 69.1191 22.1025 69.7285 23.0635C70.3379 24.0186 70.6426 25.126 70.6426 26.3857C70.6426 27.6455 70.3379 28.7559 69.7285 29.7168C69.1191 30.6719 68.2285 31.1494 67.0566 31.1494C66.3828 31.1494 65.8438 31.0381 65.4395 30.8154C65.0352 30.5928 64.6719 30.2881 64.3496 29.9014H64.332L64.2793 30.6045C64.2617 30.8682 64.1475 31 63.9365 31H63.1982ZM64.3496 27.3965C64.3496 28.2754 64.5576 28.9316 64.9736 29.3652C65.3955 29.793 65.9229 30.0068 66.5557 30.0068C67.4463 30.0068 68.0762 29.6729 68.4453 29.0049C68.8203 28.3369 69.0078 27.4639 69.0078 26.3857C69.0078 25.3076 68.8203 24.4346 68.4453 23.7666C68.0762 23.0986 67.4463 22.7646 66.5557 22.7646C65.9229 22.7646 65.3955 22.9814 64.9736 23.415C64.5576 23.8428 64.3496 24.4961 64.3496 25.375V27.3965ZM73.042 31C72.7783 31 72.6465 30.8682 72.6465 30.6045V19.6357C72.6465 19.5186 72.6758 19.4072 72.7344 19.3018L73.3496 18.1855C73.4609 17.9805 73.5518 17.8779 73.6221 17.8779H73.9297C74.1055 17.8779 74.1934 17.9805 74.1934 18.1855V30.6045C74.1934 30.8682 74.0615 31 73.7979 31H73.042ZM76.1885 26.3857C76.1885 24.9326 76.5518 23.7754 77.2783 22.9141C78.0049 22.0527 79.0449 21.6221 80.3984 21.6221C81.5234 21.6221 82.4551 22.0176 83.1934 22.8086C83.9375 23.5938 84.3096 24.8506 84.3096 26.5791C84.3096 26.8428 84.1895 26.9746 83.9492 26.9746H77.8232C77.9229 28.1055 78.2275 28.8936 78.7373 29.3389C79.2471 29.7783 79.8242 29.998 80.4688 29.998C81.1484 29.998 81.6699 29.8838 82.0332 29.6553C82.3965 29.4268 82.6631 29.2012 82.833 28.9785C83.0205 28.7324 83.2021 28.6855 83.3779 28.8379L83.8965 29.2861C84.0312 29.4033 84.0312 29.5645 83.8965 29.7695C83.7852 29.9395 83.4658 30.2119 82.9385 30.5869C82.417 30.9619 81.5938 31.1494 80.4688 31.1494C79.0039 31.1494 77.9229 30.7188 77.2256 29.8574C76.5342 28.9961 76.1885 27.8389 76.1885 26.3857ZM77.7881 25.832H82.7539C82.7305 25.0117 82.5195 24.2939 82.1211 23.6787C81.7227 23.0576 81.1367 22.7471 80.3633 22.7471C79.6836 22.7471 79.1064 22.9756 78.6318 23.4326C78.1572 23.8838 77.876 24.6836 77.7881 25.832ZM91.833 26.3857C91.833 25.0088 92.1729 23.8721 92.8525 22.9756C93.5381 22.0732 94.584 21.6221 95.9902 21.6221C96.9395 21.6221 97.6631 21.792 98.1611 22.1318C98.665 22.4658 99.0283 22.8086 99.251 23.1602C99.374 23.3535 99.3477 23.5088 99.1719 23.626L98.6182 23.9863C98.4424 24.1094 98.2666 24.0303 98.0908 23.749C97.9209 23.4795 97.6807 23.248 97.3701 23.0547C97.0654 22.8613 96.6055 22.7646 95.9902 22.7646C95.1875 22.7646 94.5664 23.0605 94.127 23.6523C93.6875 24.2441 93.4678 25.1553 93.4678 26.3857C93.4678 27.6162 93.6875 28.5273 94.127 29.1191C94.5664 29.7109 95.1875 30.0068 95.9902 30.0068C96.6406 30.0068 97.1387 29.8838 97.4844 29.6377C97.8301 29.3857 98.082 29.1133 98.2402 28.8203C98.3926 28.5449 98.5654 28.4658 98.7588 28.583L99.3477 28.9346C99.5234 29.04 99.5498 29.1982 99.4268 29.4092C99.2803 29.6611 98.9463 30.0156 98.4248 30.4727C97.9092 30.9238 97.0977 31.1494 95.9902 31.1494C94.584 31.1494 93.5381 30.7012 92.8525 29.8047C92.1729 28.9023 91.833 27.7627 91.833 26.3857ZM101.747 31C101.483 31 101.352 30.8682 101.352 30.6045V19.6357C101.352 19.5186 101.381 19.4072 101.439 19.3018L102.055 18.1855C102.166 17.9805 102.257 17.8779 102.327 17.8779H102.635C102.811 17.8779 102.898 17.9805 102.898 18.1855V30.6045C102.898 30.8682 102.767 31 102.503 31H101.747ZM105.79 31C105.526 31 105.395 30.8682 105.395 30.6045V22.167C105.395 21.9033 105.526 21.7715 105.79 21.7715H106.546C106.81 21.7715 106.941 21.9033 106.941 22.167V30.6045C106.941 30.8682 106.81 31 106.546 31H105.79ZM105.79 20.1016C105.526 20.1016 105.395 19.9697 105.395 19.7061V18.9502C105.395 18.6865 105.526 18.5547 105.79 18.5547H106.546C106.81 18.5547 106.941 18.6865 106.941 18.9502V19.7061C106.941 19.9697 106.81 20.1016 106.546 20.1016H105.79ZM108.937 26.3857C108.937 25.0088 109.276 23.8721 109.956 22.9756C110.642 22.0732 111.688 21.6221 113.094 21.6221C114.043 21.6221 114.767 21.792 115.265 22.1318C115.769 22.4658 116.132 22.8086 116.354 23.1602C116.478 23.3535 116.451 23.5088 116.275 23.626L115.722 23.9863C115.546 24.1094 115.37 24.0303 115.194 23.749C115.024 23.4795 114.784 23.248 114.474 23.0547C114.169 22.8613 113.709 22.7646 113.094 22.7646C112.291 22.7646 111.67 23.0605 111.23 23.6523C110.791 24.2441 110.571 25.1553 110.571 26.3857C110.571 27.6162 110.791 28.5273 111.23 29.1191C111.67 29.7109 112.291 30.0068 113.094 30.0068C113.744 30.0068 114.242 29.8838 114.588 29.6377C114.934 29.3857 115.186 29.1133 115.344 28.8203C115.496 28.5449 115.669 28.4658 115.862 28.583L116.451 28.9346C116.627 29.04 116.653 29.1982 116.53 29.4092C116.384 29.6611 116.05 30.0156 115.528 30.4727C115.013 30.9238 114.201 31.1494 113.094 31.1494C111.688 31.1494 110.642 30.7012 109.956 29.8047C109.276 28.9023 108.937 27.7627 108.937 26.3857ZM118.851 31C118.587 31 118.455 30.8682 118.455 30.6045V18.4229C118.455 18.1592 118.587 18.0273 118.851 18.0273H119.606C119.87 18.0273 120.002 18.1592 120.002 18.4229V25.7354C120.002 25.9111 119.996 26.0869 119.984 26.2627H120.002L123.562 22C123.69 21.8477 123.846 21.7715 124.027 21.7715H124.827C125.272 21.7715 125.349 21.9443 125.056 22.29L122.296 25.5771L125.451 30.4814C125.674 30.8271 125.598 31 125.223 31H124.361C124.168 31 124.001 30.8916 123.86 30.6748L121.329 26.7285L120.002 28.3105V30.6045C120.002 30.8682 119.87 31 119.606 31H118.851ZM132.772 28.5391C132.772 27.4961 133.259 26.7314 134.231 26.2451C135.21 25.7588 136.669 25.4746 138.608 25.3926V24.7949C138.608 24.2441 138.482 23.7695 138.23 23.3711C137.984 22.9668 137.492 22.7646 136.754 22.7646C136.285 22.7646 135.91 22.8115 135.629 22.9053C135.348 22.9932 135.09 23.1133 134.855 23.2656C134.627 23.4121 134.407 23.6025 134.196 23.8369C134.038 24.0127 133.889 24.0215 133.748 23.8633L133.291 23.3359C133.162 23.1895 133.206 23.0137 133.423 22.8086C133.733 22.5156 134.035 22.2959 134.328 22.1494C134.621 22.0029 134.984 21.8799 135.418 21.7803C135.857 21.6748 136.303 21.6221 136.754 21.6221C137.979 21.6221 138.852 21.9385 139.373 22.5713C139.895 23.1982 140.155 24.0596 140.155 25.1553V30.6045C140.155 30.8682 140.023 31 139.76 31H138.969C138.74 31 138.626 30.8682 138.626 30.6045V30.1738H138.608C138.146 30.5371 137.691 30.792 137.246 30.9385C136.807 31.0791 136.314 31.1494 135.77 31.1494C134.809 31.1494 134.067 30.9209 133.546 30.4639C133.03 30.001 132.772 29.3594 132.772 28.5391ZM134.372 28.5742C134.372 28.9375 134.448 29.2305 134.601 29.4531C134.753 29.6699 134.964 29.8105 135.233 29.875C135.503 29.9336 135.784 29.9629 136.077 29.9629C136.528 29.9629 136.956 29.9189 137.36 29.8311C137.765 29.7432 138.181 29.5117 138.608 29.1367V26.5439C137.425 26.6318 136.581 26.7402 136.077 26.8691C135.573 26.9922 135.163 27.209 134.847 27.5195C134.53 27.8242 134.372 28.1758 134.372 28.5742ZM143.056 31C142.792 31 142.66 30.8682 142.66 30.6045V22.167C142.66 21.9033 142.792 21.7715 143.056 21.7715H143.794C144.058 21.7715 144.189 21.9033 144.189 22.167V22.8701H144.225C144.605 22.4482 145.016 22.1348 145.455 21.9297C145.895 21.7246 146.442 21.6221 147.099 21.6221C148.165 21.6221 148.93 21.9238 149.393 22.5273C149.861 23.125 150.096 23.9453 150.096 24.9883V30.6045C150.096 30.8682 149.964 31 149.7 31H148.944C148.681 31 148.549 30.8682 148.549 30.6045V25.4102C148.549 24.2617 148.358 23.5352 147.978 23.2305C147.597 22.9199 147.113 22.7646 146.527 22.7646C145.766 22.7646 145.188 22.9932 144.796 23.4502C144.403 23.9014 144.207 24.6777 144.207 25.7793V30.6045C144.207 30.8682 144.075 31 143.812 31H143.056ZM151.933 22.2021C151.827 21.915 151.906 21.7715 152.17 21.7715H153.128C153.321 21.7715 153.453 21.8857 153.523 22.1143L155.369 27.915C155.422 28.0732 155.501 28.3223 155.606 28.6621C155.718 28.9961 155.797 29.2949 155.844 29.5586H155.861C155.908 29.2949 155.964 29.0576 156.028 28.8467C156.099 28.6299 156.201 28.3193 156.336 27.915L158.199 22.1143C158.275 21.8857 158.407 21.7715 158.595 21.7715H159.553C159.816 21.7715 159.896 21.915 159.79 22.2021L156.828 30.4639C156.271 32.0166 155.773 33.1035 155.334 33.7246C154.895 34.3516 154.238 34.665 153.365 34.665C152.908 34.665 152.545 34.5977 152.275 34.4629C152.152 34.4043 152.111 34.3135 152.152 34.1904L152.381 33.4785C152.422 33.3555 152.501 33.3203 152.618 33.373C152.858 33.4727 153.09 33.5225 153.312 33.5225C153.723 33.5225 154.057 33.2998 154.314 32.8545C154.572 32.415 154.777 31.9727 154.93 31.5273L155.105 31.0088L151.933 22.2021ZM160.537 22.2021C160.461 21.915 160.54 21.7715 160.774 21.7715H161.697C161.908 21.7715 162.04 21.8857 162.093 22.1143L163.385 27.915C163.426 28.085 163.487 28.3516 163.569 28.7148C163.657 29.0781 163.719 29.3447 163.754 29.5146H163.789C163.818 29.3506 163.868 29.1045 163.938 28.7764C164.015 28.4482 164.085 28.1611 164.149 27.915L165.696 22.1143C165.755 21.8857 165.887 21.7715 166.092 21.7715H166.883C167.088 21.7715 167.22 21.8857 167.278 22.1143L168.825 27.915C168.89 28.1611 168.957 28.4482 169.027 28.7764C169.104 29.1045 169.156 29.3506 169.186 29.5146H169.221C169.256 29.3447 169.314 29.0781 169.396 28.7148C169.484 28.3516 169.549 28.085 169.59 27.915L170.882 22.1143C170.935 21.8857 171.066 21.7715 171.277 21.7715H172.2C172.435 21.7715 172.514 21.915 172.438 22.2021L170.258 30.4639C170.164 30.8213 170.006 31 169.783 31H168.729C168.506 31 168.348 30.8213 168.254 30.4639L166.76 24.6543C166.654 24.2441 166.587 23.957 166.558 23.793C166.534 23.6289 166.514 23.4736 166.496 23.3271H166.479C166.461 23.4736 166.438 23.6289 166.408 23.793C166.385 23.957 166.32 24.2441 166.215 24.6543L164.721 30.4639C164.627 30.8213 164.469 31 164.246 31H163.191C162.969 31 162.811 30.8213 162.717 30.4639L160.537 22.2021ZM174.362 31C174.099 31 173.967 30.8682 173.967 30.6045V18.4229C173.967 18.1592 174.099 18.0273 174.362 18.0273H175.118C175.382 18.0273 175.514 18.1592 175.514 18.4229V22.3428C175.514 22.5186 175.508 22.6943 175.496 22.8701H175.531C175.912 22.4482 176.322 22.1348 176.762 21.9297C177.201 21.7246 177.749 21.6221 178.405 21.6221C179.472 21.6221 180.236 21.9238 180.699 22.5273C181.168 23.125 181.402 23.9453 181.402 24.9883V30.6045C181.402 30.8682 181.271 31 181.007 31H180.251C179.987 31 179.855 30.8682 179.855 30.6045V25.4102C179.855 24.2617 179.665 23.5352 179.284 23.2305C178.903 22.9199 178.42 22.7646 177.834 22.7646C177.072 22.7646 176.495 22.9932 176.103 23.4502C175.71 23.9014 175.514 24.6777 175.514 25.7793V30.6045C175.514 30.8682 175.382 31 175.118 31H174.362ZM183.38 26.3857C183.38 24.9326 183.743 23.7754 184.47 22.9141C185.196 22.0527 186.236 21.6221 187.59 21.6221C188.715 21.6221 189.646 22.0176 190.385 22.8086C191.129 23.5938 191.501 24.8506 191.501 26.5791C191.501 26.8428 191.381 26.9746 191.141 26.9746H185.015C185.114 28.1055 185.419 28.8936 185.929 29.3389C186.438 29.7783 187.016 29.998 187.66 29.998C188.34 29.998 188.861 29.8838 189.225 29.6553C189.588 29.4268 189.854 29.2012 190.024 28.9785C190.212 28.7324 190.394 28.6855 190.569 28.8379L191.088 29.2861C191.223 29.4033 191.223 29.5645 191.088 29.7695C190.977 29.9395 190.657 30.2119 190.13 30.5869C189.608 30.9619 188.785 31.1494 187.66 31.1494C186.195 31.1494 185.114 30.7188 184.417 29.8574C183.726 28.9961 183.38 27.8389 183.38 26.3857ZM184.979 25.832H189.945C189.922 25.0117 189.711 24.2939 189.312 23.6787C188.914 23.0576 188.328 22.7471 187.555 22.7471C186.875 22.7471 186.298 22.9756 185.823 23.4326C185.349 23.8838 185.067 24.6836 184.979 25.832ZM193.927 31C193.663 31 193.531 30.8682 193.531 30.6045V22.167C193.531 21.9033 193.663 21.7715 193.927 21.7715H194.665C194.929 21.7715 195.061 21.9033 195.061 22.167V23.2217H195.096C195.377 22.6943 195.708 22.2959 196.089 22.0264C196.47 21.7568 196.944 21.6221 197.513 21.6221C197.888 21.6221 198.151 21.6543 198.304 21.7188C198.438 21.7715 198.488 21.8594 198.453 21.9824L198.251 22.7031C198.222 22.8086 198.146 22.8496 198.022 22.8262C197.817 22.7852 197.624 22.7646 197.442 22.7646C196.757 22.7646 196.191 23.0752 195.746 23.6963C195.301 24.3115 195.078 25.1523 195.078 26.2188V30.6045C195.078 30.8682 194.946 31 194.683 31H193.927ZM199.376 26.3857C199.376 24.9326 199.739 23.7754 200.466 22.9141C201.192 22.0527 202.232 21.6221 203.586 21.6221C204.711 21.6221 205.643 22.0176 206.381 22.8086C207.125 23.5938 207.497 24.8506 207.497 26.5791C207.497 26.8428 207.377 26.9746 207.137 26.9746H201.011C201.11 28.1055 201.415 28.8936 201.925 29.3389C202.435 29.7783 203.012 29.998 203.656 29.998C204.336 29.998 204.857 29.8838 205.221 29.6553C205.584 29.4268 205.851 29.2012 206.021 28.9785C206.208 28.7324 206.39 28.6855 206.565 28.8379L207.084 29.2861C207.219 29.4033 207.219 29.5645 207.084 29.7695C206.973 29.9395 206.653 30.2119 206.126 30.5869C205.604 30.9619 204.781 31.1494 203.656 31.1494C202.191 31.1494 201.11 30.7188 200.413 29.8574C199.722 28.9961 199.376 27.8389 199.376 26.3857ZM200.976 25.832H205.941C205.918 25.0117 205.707 24.2939 205.309 23.6787C204.91 23.0576 204.324 22.7471 203.551 22.7471C202.871 22.7471 202.294 22.9756 201.819 23.4326C201.345 23.8838 201.063 24.6836 200.976 25.832ZM210.055 31C209.791 31 209.659 30.8682 209.659 30.6045V29.5322C209.659 29.2686 209.791 29.1367 210.055 29.1367H211.074C211.338 29.1367 211.47 29.2686 211.47 29.5322V30.6045C211.47 31.2197 211.402 31.7559 211.268 32.2129C211.139 32.6758 210.881 33.0801 210.494 33.4258C210.365 33.5371 210.257 33.5518 210.169 33.4697L209.773 33.1006C209.686 33.0186 209.706 32.9189 209.835 32.8018C210.034 32.626 210.195 32.3711 210.318 32.0371C210.447 31.709 210.512 31.3633 210.512 31H210.055ZM219.925 26.3857C219.925 25.126 220.229 24.0186 220.839 23.0635C221.448 22.1025 222.339 21.6221 223.511 21.6221C224.185 21.6221 224.724 21.7334 225.128 21.9561C225.532 22.1787 225.896 22.4834 226.218 22.8701H226.235C226.224 22.6943 226.218 22.5156 226.218 22.334V18.4229C226.218 18.1592 226.35 18.0273 226.613 18.0273H227.369C227.633 18.0273 227.765 18.1592 227.765 18.4229V30.6045C227.765 30.8682 227.633 31 227.369 31H226.631C226.42 31 226.306 30.8682 226.288 30.6045L226.235 29.9014H226.218C225.896 30.2881 225.532 30.5928 225.128 30.8154C224.724 31.0381 224.185 31.1494 223.511 31.1494C222.339 31.1494 221.448 30.6719 220.839 29.7168C220.229 28.7559 219.925 27.6455 219.925 26.3857ZM221.56 26.3857C221.56 27.4639 221.744 28.3369 222.113 29.0049C222.488 29.6729 223.121 30.0068 224.012 30.0068C224.645 30.0068 225.169 29.793 225.585 29.3652C226.007 28.9316 226.218 28.2754 226.218 27.3965V25.375C226.218 24.4961 226.007 23.8428 225.585 23.415C225.169 22.9814 224.645 22.7646 224.012 22.7646C223.121 22.7646 222.488 23.0986 222.113 23.7666C221.744 24.4346 221.56 25.3076 221.56 26.3857ZM230.665 31C230.401 31 230.27 30.8682 230.27 30.6045V22.167C230.27 21.9033 230.401 21.7715 230.665 21.7715H231.403C231.667 21.7715 231.799 21.9033 231.799 22.167V23.2217H231.834C232.115 22.6943 232.446 22.2959 232.827 22.0264C233.208 21.7568 233.683 21.6221 234.251 21.6221C234.626 21.6221 234.89 21.6543 235.042 21.7188C235.177 21.7715 235.227 21.8594 235.191 21.9824L234.989 22.7031C234.96 22.8086 234.884 22.8496 234.761 22.8262C234.556 22.7852 234.362 22.7646 234.181 22.7646C233.495 22.7646 232.93 23.0752 232.484 23.6963C232.039 24.3115 231.816 25.1523 231.816 26.2188V30.6045C231.816 30.8682 231.685 31 231.421 31H230.665ZM236.114 28.5391C236.114 27.4961 236.601 26.7314 237.573 26.2451C238.552 25.7588 240.011 25.4746 241.95 25.3926V24.7949C241.95 24.2441 241.824 23.7695 241.572 23.3711C241.326 22.9668 240.834 22.7646 240.096 22.7646C239.627 22.7646 239.252 22.8115 238.971 22.9053C238.689 22.9932 238.432 23.1133 238.197 23.2656C237.969 23.4121 237.749 23.6025 237.538 23.8369C237.38 24.0127 237.23 24.0215 237.09 23.8633L236.633 23.3359C236.504 23.1895 236.548 23.0137 236.765 22.8086C237.075 22.5156 237.377 22.2959 237.67 22.1494C237.963 22.0029 238.326 21.8799 238.76 21.7803C239.199 21.6748 239.645 21.6221 240.096 21.6221C241.32 21.6221 242.193 21.9385 242.715 22.5713C243.236 23.1982 243.497 24.0596 243.497 25.1553V30.6045C243.497 30.8682 243.365 31 243.102 31H242.311C242.082 31 241.968 30.8682 241.968 30.6045V30.1738H241.95C241.487 30.5371 241.033 30.792 240.588 30.9385C240.148 31.0791 239.656 31.1494 239.111 31.1494C238.15 31.1494 237.409 30.9209 236.888 30.4639C236.372 30.001 236.114 29.3594 236.114 28.5391ZM237.714 28.5742C237.714 28.9375 237.79 29.2305 237.942 29.4531C238.095 29.6699 238.306 29.8105 238.575 29.875C238.845 29.9336 239.126 29.9629 239.419 29.9629C239.87 29.9629 240.298 29.9189 240.702 29.8311C241.106 29.7432 241.522 29.5117 241.95 29.1367V26.5439C240.767 26.6318 239.923 26.7402 239.419 26.8691C238.915 26.9922 238.505 27.209 238.188 27.5195C237.872 27.8242 237.714 28.1758 237.714 28.5742ZM245.501 26.3857C245.501 25.126 245.806 24.0186 246.415 23.0635C247.024 22.1025 247.915 21.6221 249.087 21.6221C249.761 21.6221 250.3 21.7334 250.704 21.9561C251.108 22.1787 251.472 22.4834 251.794 22.8701H251.812L251.864 22.167C251.882 21.9033 251.996 21.7715 252.207 21.7715H252.945C253.209 21.7715 253.341 21.9033 253.341 22.167V31.0703C253.341 32.1953 253.08 33.0742 252.559 33.707C252.043 34.3457 251.021 34.665 249.491 34.665C248.466 34.665 247.698 34.5479 247.188 34.3135C246.679 34.085 246.315 33.8418 246.099 33.584C245.94 33.3906 245.932 33.2266 246.072 33.0918L246.556 32.6172C246.69 32.4883 246.878 32.5293 247.118 32.7402C247.429 33.0215 247.728 33.2207 248.015 33.3379C248.302 33.4609 248.797 33.5225 249.5 33.5225C250.297 33.5225 250.877 33.3525 251.24 33.0127C251.609 32.6729 251.794 31.9697 251.794 30.9033V30.376C251.794 30.1943 251.8 30.0156 251.812 29.8398H251.794C251.489 30.2441 251.129 30.5635 250.713 30.7979C250.303 31.0322 249.761 31.1494 249.087 31.1494C247.915 31.1494 247.024 30.6719 246.415 29.7168C245.806 28.7559 245.501 27.6455 245.501 26.3857ZM247.136 26.3857C247.136 27.4639 247.32 28.3369 247.689 29.0049C248.064 29.6729 248.697 30.0068 249.588 30.0068C250.221 30.0068 250.745 29.793 251.161 29.3652C251.583 28.9316 251.794 28.2754 251.794 27.3965V25.375C251.794 24.4961 251.583 23.8428 251.161 23.415C250.745 22.9814 250.221 22.7646 249.588 22.7646C248.697 22.7646 248.064 23.0986 247.689 23.7666C247.32 24.4346 247.136 25.3076 247.136 26.3857ZM261.383 22.9316C261.119 22.9316 260.987 22.8291 260.987 22.624V22.0791C260.987 21.874 261.119 21.7715 261.383 21.7715H262.323V20.7256C262.323 19.6123 262.684 18.8594 263.404 18.4668C264.131 18.0742 264.972 17.8779 265.927 17.8779C266.542 17.8779 267.049 17.9424 267.447 18.0713C267.852 18.2002 268.203 18.3672 268.502 18.5723C268.619 18.6543 268.631 18.7568 268.537 18.8799L268.08 19.5039C268.016 19.5918 267.913 19.5889 267.772 19.4951C267.591 19.3779 267.356 19.2695 267.069 19.1699C266.782 19.0703 266.431 19.0205 266.015 19.0205C265.446 19.0205 264.945 19.1201 264.512 19.3193C264.084 19.5127 263.87 20.0664 263.87 20.9805V21.7715H268.722C268.985 21.7715 269.117 21.9033 269.117 22.167V30.6045C269.117 30.8682 268.985 31 268.722 31H267.966C267.702 31 267.57 30.8682 267.57 30.6045V22.9316H263.87V30.6045C263.87 30.8682 263.738 31 263.475 31H262.719C262.455 31 262.323 30.8682 262.323 30.6045V22.9316H261.383ZM272.009 31C271.745 31 271.613 30.8682 271.613 30.6045V19.6357C271.613 19.5186 271.643 19.4072 271.701 19.3018L272.316 18.1855C272.428 17.9805 272.519 17.8779 272.589 17.8779H272.896C273.072 17.8779 273.16 17.9805 273.16 18.1855V30.6045C273.16 30.8682 273.028 31 272.765 31H272.009ZM275.155 26.3857C275.155 24.9326 275.519 23.7754 276.245 22.9141C276.972 22.0527 278.012 21.6221 279.365 21.6221C280.49 21.6221 281.422 22.0176 282.16 22.8086C282.904 23.5938 283.276 24.8506 283.276 26.5791C283.276 26.8428 283.156 26.9746 282.916 26.9746H276.79C276.89 28.1055 277.194 28.8936 277.704 29.3389C278.214 29.7783 278.791 29.998 279.436 29.998C280.115 29.998 280.637 29.8838 281 29.6553C281.363 29.4268 281.63 29.2012 281.8 28.9785C281.987 28.7324 282.169 28.6855 282.345 28.8379L282.863 29.2861C282.998 29.4033 282.998 29.5645 282.863 29.7695C282.752 29.9395 282.433 30.2119 281.905 30.5869C281.384 30.9619 280.561 31.1494 279.436 31.1494C277.971 31.1494 276.89 30.7188 276.192 29.8574C275.501 28.9961 275.155 27.8389 275.155 26.3857ZM276.755 25.832H281.721C281.697 25.0117 281.486 24.2939 281.088 23.6787C280.689 23.0576 280.104 22.7471 279.33 22.7471C278.65 22.7471 278.073 22.9756 277.599 23.4326C277.124 23.8838 276.843 24.6836 276.755 25.832ZM284.946 30.1387C284.765 29.9688 284.727 29.8105 284.832 29.6641L285.228 29.1104C285.356 28.9346 285.547 28.9434 285.799 29.1367C286.145 29.4004 286.528 29.6113 286.95 29.7695C287.378 29.9277 287.864 30.0068 288.409 30.0068C288.731 30.0068 289.019 29.9688 289.271 29.8926C289.522 29.8105 289.742 29.6611 289.93 29.4443C290.123 29.2275 290.22 28.9375 290.22 28.5742C290.22 28.3633 290.173 28.1641 290.079 27.9766C289.991 27.7891 289.851 27.6396 289.657 27.5283C289.47 27.4111 289.285 27.3203 289.104 27.2559C288.805 27.1445 288.506 27.0537 288.207 26.9834C287.914 26.9072 287.527 26.793 287.047 26.6406C286.725 26.541 286.42 26.4004 286.133 26.2188C285.846 26.0312 285.594 25.7793 285.377 25.4629C285.166 25.1465 285.061 24.71 285.061 24.1533C285.061 23.585 285.233 23.0957 285.579 22.6855C285.925 22.2754 286.358 21.9971 286.88 21.8506C287.401 21.6982 287.908 21.6221 288.4 21.6221C289.127 21.6221 289.71 21.707 290.149 21.877C290.595 22.041 290.979 22.2373 291.301 22.4658C291.488 22.6006 291.515 22.7559 291.38 22.9316L290.984 23.459C290.861 23.6289 290.671 23.623 290.413 23.4414C290.196 23.2891 289.889 23.1455 289.49 23.0107C289.092 22.876 288.743 22.8086 288.444 22.8086C288.075 22.8086 287.759 22.8496 287.495 22.9316C287.231 23.0137 287.018 23.1543 286.854 23.3535C286.689 23.5527 286.607 23.7871 286.607 24.0566C286.607 24.2617 286.64 24.4463 286.704 24.6104C286.769 24.7686 286.889 24.915 287.064 25.0498C287.24 25.1846 287.486 25.293 287.803 25.375C288.295 25.5039 288.743 25.6211 289.147 25.7266C289.558 25.832 289.927 25.9609 290.255 26.1133C290.683 26.3125 291.011 26.5322 291.239 26.7725C291.474 27.0127 291.635 27.2734 291.723 27.5547C291.811 27.8301 291.854 28.1377 291.854 28.4775C291.854 29.1045 291.667 29.6348 291.292 30.0684C290.923 30.502 290.51 30.792 290.053 30.9385C289.596 31.0791 289.045 31.1494 288.4 31.1494C287.527 31.1494 286.777 31.0264 286.15 30.7803C285.529 30.5283 285.128 30.3145 284.946 30.1387ZM299.993 31C299.729 31 299.598 30.8682 299.598 30.6045V22.167C299.598 21.9033 299.729 21.7715 299.993 21.7715H300.749C301.013 21.7715 301.145 21.9033 301.145 22.167V30.6045C301.145 30.8682 301.013 31 300.749 31H299.993ZM299.993 20.1016C299.729 20.1016 299.598 19.9697 299.598 19.7061V18.9502C299.598 18.6865 299.729 18.5547 299.993 18.5547H300.749C301.013 18.5547 301.145 18.6865 301.145 18.9502V19.7061C301.145 19.9697 301.013 20.1016 300.749 20.1016H299.993ZM304.036 31C303.772 31 303.641 30.8682 303.641 30.6045V22.167C303.641 21.9033 303.772 21.7715 304.036 21.7715H304.774C305.038 21.7715 305.17 21.9033 305.17 22.167V22.8701H305.205C305.586 22.4482 305.996 22.1348 306.436 21.9297C306.875 21.7246 307.423 21.6221 308.079 21.6221C309.146 21.6221 309.91 21.9238 310.373 22.5273C310.842 23.125 311.076 23.9453 311.076 24.9883V30.6045C311.076 30.8682 310.944 31 310.681 31H309.925C309.661 31 309.529 30.8682 309.529 30.6045V25.4102C309.529 24.2617 309.339 23.5352 308.958 23.2305C308.577 22.9199 308.094 22.7646 307.508 22.7646C306.746 22.7646 306.169 22.9932 305.776 23.4502C305.384 23.9014 305.188 24.6777 305.188 25.7793V30.6045C305.188 30.8682 305.056 31 304.792 31H304.036ZM314.451 31C314.188 31 314.056 30.8682 314.056 30.6045V29.5322C314.056 29.2686 314.188 29.1367 314.451 29.1367H315.471C315.734 29.1367 315.866 29.2686 315.866 29.5322V30.6045C315.866 31.2197 315.799 31.7559 315.664 32.2129C315.535 32.6758 315.277 33.0801 314.891 33.4258C314.762 33.5371 314.653 33.5518 314.565 33.4697L314.17 33.1006C314.082 33.0186 314.103 32.9189 314.231 32.8018C314.431 32.626 314.592 32.3711 314.715 32.0371C314.844 31.709 314.908 31.3633 314.908 31H314.451ZM29.7471 54.5391C29.7471 53.4961 30.2334 52.7314 31.2061 52.2451C32.1846 51.7588 33.6436 51.4746 35.583 51.3926V50.7949C35.583 50.2441 35.457 49.7695 35.2051 49.3711C34.959 48.9668 34.4668 48.7646 33.7285 48.7646C33.2598 48.7646 32.8848 48.8115 32.6035 48.9053C32.3223 48.9932 32.0645 49.1133 31.8301 49.2656C31.6016 49.4121 31.3818 49.6025 31.1709 49.8369C31.0127 50.0127 30.8633 50.0215 30.7227 49.8633L30.2656 49.3359C30.1367 49.1895 30.1807 49.0137 30.3975 48.8086C30.708 48.5156 31.0098 48.2959 31.3027 48.1494C31.5957 48.0029 31.959 47.8799 32.3926 47.7803C32.832 47.6748 33.2773 47.6221 33.7285 47.6221C34.9531 47.6221 35.8262 47.9385 36.3477 48.5713C36.8691 49.1982 37.1299 50.0596 37.1299 51.1553V56.6045C37.1299 56.8682 36.998 57 36.7344 57H35.9434C35.7148 57 35.6006 56.8682 35.6006 56.6045V56.1738H35.583C35.1201 56.5371 34.666 56.792 34.2207 56.9385C33.7812 57.0791 33.2891 57.1494 32.7441 57.1494C31.7832 57.1494 31.042 56.9209 30.5205 56.4639C30.0049 56.001 29.7471 55.3594 29.7471 54.5391ZM31.3467 54.5742C31.3467 54.9375 31.4229 55.2305 31.5752 55.4531C31.7275 55.6699 31.9385 55.8105 32.208 55.875C32.4775 55.9336 32.7588 55.9629 33.0518 55.9629C33.5029 55.9629 33.9307 55.9189 34.335 55.8311C34.7393 55.7432 35.1553 55.5117 35.583 55.1367V52.5439C34.3994 52.6318 33.5557 52.7402 33.0518 52.8691C32.5479 52.9922 32.1377 53.209 31.8213 53.5195C31.5049 53.8242 31.3467 54.1758 31.3467 54.5742ZM40.0303 57C39.7666 57 39.6348 56.8682 39.6348 56.6045V48.167C39.6348 47.9033 39.7666 47.7715 40.0303 47.7715H40.7686C41.0322 47.7715 41.1641 47.9033 41.1641 48.167V48.8701H41.1992C41.5801 48.4482 41.9902 48.1348 42.4297 47.9297C42.8691 47.7246 43.417 47.6221 44.0732 47.6221C45.1396 47.6221 45.9043 47.9238 46.3672 48.5273C46.8359 49.125 47.0703 49.9453 47.0703 50.9883V56.6045C47.0703 56.8682 46.9385 57 46.6748 57H45.9189C45.6553 57 45.5234 56.8682 45.5234 56.6045V51.4102C45.5234 50.2617 45.333 49.5352 44.9521 49.2305C44.5713 48.9199 44.0879 48.7646 43.502 48.7646C42.7402 48.7646 42.1631 48.9932 41.7705 49.4502C41.3779 49.9014 41.1816 50.6777 41.1816 51.7793V56.6045C41.1816 56.8682 41.0498 57 40.7861 57H40.0303ZM49.0479 52.3857C49.0479 51.126 49.3525 50.0186 49.9619 49.0635C50.5713 48.1025 51.4619 47.6221 52.6338 47.6221C53.3076 47.6221 53.8467 47.7334 54.251 47.9561C54.6553 48.1787 55.0186 48.4834 55.3408 48.8701H55.3584C55.3467 48.6943 55.3408 48.5156 55.3408 48.334V44.4229C55.3408 44.1592 55.4727 44.0273 55.7363 44.0273H56.4922C56.7559 44.0273 56.8877 44.1592 56.8877 44.4229V56.6045C56.8877 56.8682 56.7559 57 56.4922 57H55.7539C55.543 57 55.4287 56.8682 55.4111 56.6045L55.3584 55.9014H55.3408C55.0186 56.2881 54.6553 56.5928 54.251 56.8154C53.8467 57.0381 53.3076 57.1494 52.6338 57.1494C51.4619 57.1494 50.5713 56.6719 49.9619 55.7168C49.3525 54.7559 49.0479 53.6455 49.0479 52.3857ZM50.6826 52.3857C50.6826 53.4639 50.8672 54.3369 51.2363 55.0049C51.6113 55.6729 52.2441 56.0068 53.1348 56.0068C53.7676 56.0068 54.292 55.793 54.708 55.3652C55.1299 54.9316 55.3408 54.2754 55.3408 53.3965V51.375C55.3408 50.4961 55.1299 49.8428 54.708 49.415C54.292 48.9814 53.7676 48.7646 53.1348 48.7646C52.2441 48.7646 51.6113 49.0986 51.2363 49.7666C50.8672 50.4346 50.6826 51.3076 50.6826 52.3857ZM64.8857 52.3857C64.8857 51.0088 65.2256 49.8721 65.9053 48.9756C66.5908 48.0732 67.6367 47.6221 69.043 47.6221C69.9922 47.6221 70.7158 47.792 71.2139 48.1318C71.7178 48.4658 72.0811 48.8086 72.3037 49.1602C72.4268 49.3535 72.4004 49.5088 72.2246 49.626L71.6709 49.9863C71.4951 50.1094 71.3193 50.0303 71.1436 49.749C70.9736 49.4795 70.7334 49.248 70.4229 49.0547C70.1182 48.8613 69.6582 48.7646 69.043 48.7646C68.2402 48.7646 67.6191 49.0605 67.1797 49.6523C66.7402 50.2441 66.5205 51.1553 66.5205 52.3857C66.5205 53.6162 66.7402 54.5273 67.1797 55.1191C67.6191 55.7109 68.2402 56.0068 69.043 56.0068C69.6934 56.0068 70.1914 55.8838 70.5371 55.6377C70.8828 55.3857 71.1348 55.1133 71.293 54.8203C71.4453 54.5449 71.6182 54.4658 71.8115 54.583L72.4004 54.9346C72.5762 55.04 72.6025 55.1982 72.4795 55.4092C72.333 55.6611 71.999 56.0156 71.4775 56.4727C70.9619 56.9238 70.1504 57.1494 69.043 57.1494C67.6367 57.1494 66.5908 56.7012 65.9053 55.8047C65.2256 54.9023 64.8857 53.7627 64.8857 52.3857ZM74.7998 57C74.5361 57 74.4043 56.8682 74.4043 56.6045V45.6357C74.4043 45.5186 74.4336 45.4072 74.4922 45.3018L75.1074 44.1855C75.2188 43.9805 75.3096 43.8779 75.3799 43.8779H75.6875C75.8633 43.8779 75.9512 43.9805 75.9512 44.1855V56.6045C75.9512 56.8682 75.8193 57 75.5557 57H74.7998ZM78.8428 57C78.5791 57 78.4473 56.8682 78.4473 56.6045V48.167C78.4473 47.9033 78.5791 47.7715 78.8428 47.7715H79.5986C79.8623 47.7715 79.9941 47.9033 79.9941 48.167V56.6045C79.9941 56.8682 79.8623 57 79.5986 57H78.8428ZM78.8428 46.1016C78.5791 46.1016 78.4473 45.9697 78.4473 45.7061V44.9502C78.4473 44.6865 78.5791 44.5547 78.8428 44.5547H79.5986C79.8623 44.5547 79.9941 44.6865 79.9941 44.9502V45.7061C79.9941 45.9697 79.8623 46.1016 79.5986 46.1016H78.8428ZM81.9893 52.3857C81.9893 51.0088 82.3291 49.8721 83.0088 48.9756C83.6943 48.0732 84.7402 47.6221 86.1465 47.6221C87.0957 47.6221 87.8193 47.792 88.3174 48.1318C88.8213 48.4658 89.1846 48.8086 89.4072 49.1602C89.5303 49.3535 89.5039 49.5088 89.3281 49.626L88.7744 49.9863C88.5986 50.1094 88.4229 50.0303 88.2471 49.749C88.0771 49.4795 87.8369 49.248 87.5264 49.0547C87.2217 48.8613 86.7617 48.7646 86.1465 48.7646C85.3438 48.7646 84.7227 49.0605 84.2832 49.6523C83.8438 50.2441 83.624 51.1553 83.624 52.3857C83.624 53.6162 83.8438 54.5273 84.2832 55.1191C84.7227 55.7109 85.3438 56.0068 86.1465 56.0068C86.7969 56.0068 87.2949 55.8838 87.6406 55.6377C87.9863 55.3857 88.2383 55.1133 88.3965 54.8203C88.5488 54.5449 88.7217 54.4658 88.915 54.583L89.5039 54.9346C89.6797 55.04 89.7061 55.1982 89.583 55.4092C89.4365 55.6611 89.1025 56.0156 88.5811 56.4727C88.0654 56.9238 87.2539 57.1494 86.1465 57.1494C84.7402 57.1494 83.6943 56.7012 83.0088 55.8047C82.3291 54.9023 81.9893 53.7627 81.9893 52.3857ZM91.9033 57C91.6396 57 91.5078 56.8682 91.5078 56.6045V44.4229C91.5078 44.1592 91.6396 44.0273 91.9033 44.0273H92.6592C92.9229 44.0273 93.0547 44.1592 93.0547 44.4229V51.7354C93.0547 51.9111 93.0488 52.0869 93.0371 52.2627H93.0547L96.6143 48C96.7432 47.8477 96.8984 47.7715 97.0801 47.7715H97.8799C98.3252 47.7715 98.4014 47.9443 98.1084 48.29L95.3486 51.5771L98.5039 56.4814C98.7266 56.8271 98.6504 57 98.2754 57H97.4141C97.2207 57 97.0537 56.8916 96.9131 56.6748L94.3818 52.7285L93.0547 54.3105V56.6045C93.0547 56.8682 92.9229 57 92.6592 57H91.9033ZM106.722 57C106.458 57 106.326 56.8682 106.326 56.6045V44.4229C106.326 44.1592 106.458 44.0273 106.722 44.0273H107.478C107.741 44.0273 107.873 44.1592 107.873 44.4229V48.3428C107.873 48.5186 107.867 48.6943 107.855 48.8701H107.891C108.271 48.4482 108.682 48.1348 109.121 47.9297C109.561 47.7246 110.108 47.6221 110.765 47.6221C111.831 47.6221 112.596 47.9238 113.059 48.5273C113.527 49.125 113.762 49.9453 113.762 50.9883V56.6045C113.762 56.8682 113.63 57 113.366 57H112.61C112.347 57 112.215 56.8682 112.215 56.6045V51.4102C112.215 50.2617 112.024 49.5352 111.644 49.2305C111.263 48.9199 110.779 48.7646 110.193 48.7646C109.432 48.7646 108.854 48.9932 108.462 49.4502C108.069 49.9014 107.873 50.6777 107.873 51.7793V56.6045C107.873 56.8682 107.741 57 107.478 57H106.722ZM115.739 52.3857C115.739 50.9326 116.103 49.7754 116.829 48.9141C117.556 48.0527 118.596 47.6221 119.949 47.6221C121.074 47.6221 122.006 48.0176 122.744 48.8086C123.488 49.5938 123.86 50.8506 123.86 52.5791C123.86 52.8428 123.74 52.9746 123.5 52.9746H117.374C117.474 54.1055 117.778 54.8936 118.288 55.3389C118.798 55.7783 119.375 55.998 120.02 55.998C120.699 55.998 121.221 55.8838 121.584 55.6553C121.947 55.4268 122.214 55.2012 122.384 54.9785C122.571 54.7324 122.753 54.6855 122.929 54.8379L123.447 55.2861C123.582 55.4033 123.582 55.5645 123.447 55.7695C123.336 55.9395 123.017 56.2119 122.489 56.5869C121.968 56.9619 121.145 57.1494 120.02 57.1494C118.555 57.1494 117.474 56.7188 116.776 55.8574C116.085 54.9961 115.739 53.8389 115.739 52.3857ZM117.339 51.832H122.305C122.281 51.0117 122.07 50.2939 121.672 49.6787C121.273 49.0576 120.688 48.7471 119.914 48.7471C119.234 48.7471 118.657 48.9756 118.183 49.4326C117.708 49.8838 117.427 50.6836 117.339 51.832ZM126.286 57C126.022 57 125.891 56.8682 125.891 56.6045V48.167C125.891 47.9033 126.022 47.7715 126.286 47.7715H127.024C127.288 47.7715 127.42 47.9033 127.42 48.167V49.2217H127.455C127.736 48.6943 128.067 48.2959 128.448 48.0264C128.829 47.7568 129.304 47.6221 129.872 47.6221C130.247 47.6221 130.511 47.6543 130.663 47.7188C130.798 47.7715 130.848 47.8594 130.812 47.9824L130.61 48.7031C130.581 48.8086 130.505 48.8496 130.382 48.8262C130.177 48.7852 129.983 48.7646 129.802 48.7646C129.116 48.7646 128.551 49.0752 128.105 49.6963C127.66 50.3115 127.438 51.1523 127.438 52.2188V56.6045C127.438 56.8682 127.306 57 127.042 57H126.286ZM131.735 52.3857C131.735 50.9326 132.099 49.7754 132.825 48.9141C133.552 48.0527 134.592 47.6221 135.945 47.6221C137.07 47.6221 138.002 48.0176 138.74 48.8086C139.484 49.5938 139.856 50.8506 139.856 52.5791C139.856 52.8428 139.736 52.9746 139.496 52.9746H133.37C133.47 54.1055 133.774 54.8936 134.284 55.3389C134.794 55.7783 135.371 55.998 136.016 55.998C136.695 55.998 137.217 55.8838 137.58 55.6553C137.943 55.4268 138.21 55.2012 138.38 54.9785C138.567 54.7324 138.749 54.6855 138.925 54.8379L139.443 55.2861C139.578 55.4033 139.578 55.5645 139.443 55.7695C139.332 55.9395 139.013 56.2119 138.485 56.5869C137.964 56.9619 137.141 57.1494 136.016 57.1494C134.551 57.1494 133.47 56.7188 132.772 55.8574C132.081 54.9961 131.735 53.8389 131.735 52.3857ZM133.335 51.832H138.301C138.277 51.0117 138.066 50.2939 137.668 49.6787C137.27 49.0576 136.684 48.7471 135.91 48.7471C135.23 48.7471 134.653 48.9756 134.179 49.4326C133.704 49.8838 133.423 50.6836 133.335 51.832ZM147.433 48.9316C147.169 48.9316 147.037 48.8291 147.037 48.624V48.0791C147.037 47.874 147.169 47.7715 147.433 47.7715H148.47V46.9805C148.47 46.8633 148.499 46.752 148.558 46.6465L149.173 45.5303C149.284 45.3252 149.375 45.2227 149.445 45.2227H149.753C149.929 45.2227 150.017 45.3252 150.017 45.5303V47.7715H151.889C152.152 47.7715 152.284 47.874 152.284 48.0791V48.624C152.284 48.8291 152.152 48.9316 151.889 48.9316H150.017V54.5303C150.017 55.1455 150.107 55.5469 150.289 55.7344C150.477 55.916 150.699 56.0068 150.957 56.0068C151.156 56.0068 151.394 55.9482 151.669 55.8311C151.95 55.7139 152.144 55.6143 152.249 55.5322C152.354 55.4502 152.437 55.4766 152.495 55.6113L152.785 56.2881C152.832 56.4053 152.797 56.499 152.68 56.5693C152.451 56.7041 152.117 56.8359 151.678 56.9648C151.238 57.0879 150.799 57.1494 150.359 57.1494C149.75 57.1494 149.281 56.9297 148.953 56.4902C148.631 56.0508 148.47 55.4297 148.47 54.627V48.9316H147.433ZM154.042 52.3857C154.042 51.0088 154.405 49.8721 155.132 48.9756C155.864 48.0732 156.934 47.6221 158.34 47.6221C159.746 47.6221 160.812 48.0732 161.539 48.9756C162.271 49.8721 162.638 51.0088 162.638 52.3857C162.638 53.7627 162.271 54.9023 161.539 55.8047C160.812 56.7012 159.746 57.1494 158.34 57.1494C156.934 57.1494 155.864 56.7012 155.132 55.8047C154.405 54.9023 154.042 53.7627 154.042 52.3857ZM155.677 52.3857C155.677 53.6162 155.92 54.5273 156.406 55.1191C156.893 55.7109 157.537 56.0068 158.34 56.0068C159.143 56.0068 159.787 55.7109 160.273 55.1191C160.76 54.5273 161.003 53.6162 161.003 52.3857C161.003 51.1553 160.76 50.2441 160.273 49.6523C159.787 49.0605 159.143 48.7646 158.34 48.7646C157.537 48.7646 156.893 49.0605 156.406 49.6523C155.92 50.2441 155.677 51.1553 155.677 52.3857ZM171.022 60.5156C170.759 60.5156 170.627 60.3838 170.627 60.1201V48.167C170.627 47.9033 170.759 47.7715 171.022 47.7715H171.761C171.972 47.7715 172.086 47.9033 172.104 48.167L172.156 48.8701H172.174C172.496 48.4834 172.859 48.1787 173.264 47.9561C173.668 47.7334 174.207 47.6221 174.881 47.6221C176.053 47.6221 176.943 48.1025 177.553 49.0635C178.162 50.0186 178.467 51.126 178.467 52.3857C178.467 53.6455 178.162 54.7559 177.553 55.7168C176.943 56.6719 176.053 57.1494 174.881 57.1494C174.207 57.1494 173.668 57.0381 173.264 56.8154C172.859 56.5928 172.496 56.2881 172.174 55.9014H172.156C172.168 56.0771 172.174 56.2559 172.174 56.4375V60.1201C172.174 60.3838 172.042 60.5156 171.778 60.5156H171.022ZM172.174 53.3965C172.174 54.2754 172.382 54.9316 172.798 55.3652C173.22 55.793 173.747 56.0068 174.38 56.0068C175.271 56.0068 175.9 55.6729 176.27 55.0049C176.645 54.3369 176.832 53.4639 176.832 52.3857C176.832 51.3076 176.645 50.4346 176.27 49.7666C175.9 49.0986 175.271 48.7646 174.38 48.7646C173.747 48.7646 173.22 48.9814 172.798 49.415C172.382 49.8428 172.174 50.4961 172.174 51.375V53.3965ZM179.97 52.3857C179.97 51.0088 180.333 49.8721 181.06 48.9756C181.792 48.0732 182.861 47.6221 184.268 47.6221C185.674 47.6221 186.74 48.0732 187.467 48.9756C188.199 49.8721 188.565 51.0088 188.565 52.3857C188.565 53.7627 188.199 54.9023 187.467 55.8047C186.74 56.7012 185.674 57.1494 184.268 57.1494C182.861 57.1494 181.792 56.7012 181.06 55.8047C180.333 54.9023 179.97 53.7627 179.97 52.3857ZM181.604 52.3857C181.604 53.6162 181.848 54.5273 182.334 55.1191C182.82 55.7109 183.465 56.0068 184.268 56.0068C185.07 56.0068 185.715 55.7109 186.201 55.1191C186.688 54.5273 186.931 53.6162 186.931 52.3857C186.931 51.1553 186.688 50.2441 186.201 49.6523C185.715 49.0605 185.07 48.7646 184.268 48.7646C183.465 48.7646 182.82 49.0605 182.334 49.6523C181.848 50.2441 181.604 51.1553 181.604 52.3857ZM190.2 56.1387C190.019 55.9688 189.98 55.8105 190.086 55.6641L190.481 55.1104C190.61 54.9346 190.801 54.9434 191.053 55.1367C191.398 55.4004 191.782 55.6113 192.204 55.7695C192.632 55.9277 193.118 56.0068 193.663 56.0068C193.985 56.0068 194.272 55.9688 194.524 55.8926C194.776 55.8105 194.996 55.6611 195.184 55.4443C195.377 55.2275 195.474 54.9375 195.474 54.5742C195.474 54.3633 195.427 54.1641 195.333 53.9766C195.245 53.7891 195.104 53.6396 194.911 53.5283C194.724 53.4111 194.539 53.3203 194.357 53.2559C194.059 53.1445 193.76 53.0537 193.461 52.9834C193.168 52.9072 192.781 52.793 192.301 52.6406C191.979 52.541 191.674 52.4004 191.387 52.2188C191.1 52.0312 190.848 51.7793 190.631 51.4629C190.42 51.1465 190.314 50.71 190.314 50.1533C190.314 49.585 190.487 49.0957 190.833 48.6855C191.179 48.2754 191.612 47.9971 192.134 47.8506C192.655 47.6982 193.162 47.6221 193.654 47.6221C194.381 47.6221 194.964 47.707 195.403 47.877C195.849 48.041 196.232 48.2373 196.555 48.4658C196.742 48.6006 196.769 48.7559 196.634 48.9316L196.238 49.459C196.115 49.6289 195.925 49.623 195.667 49.4414C195.45 49.2891 195.143 49.1455 194.744 49.0107C194.346 48.876 193.997 48.8086 193.698 48.8086C193.329 48.8086 193.013 48.8496 192.749 48.9316C192.485 49.0137 192.271 49.1543 192.107 49.3535C191.943 49.5527 191.861 49.7871 191.861 50.0566C191.861 50.2617 191.894 50.4463 191.958 50.6104C192.022 50.7686 192.143 50.915 192.318 51.0498C192.494 51.1846 192.74 51.293 193.057 51.375C193.549 51.5039 193.997 51.6211 194.401 51.7266C194.812 51.832 195.181 51.9609 195.509 52.1133C195.937 52.3125 196.265 52.5322 196.493 52.7725C196.728 53.0127 196.889 53.2734 196.977 53.5547C197.064 53.8301 197.108 54.1377 197.108 54.4775C197.108 55.1045 196.921 55.6348 196.546 56.0684C196.177 56.502 195.764 56.792 195.307 56.9385C194.85 57.0791 194.299 57.1494 193.654 57.1494C192.781 57.1494 192.031 57.0264 191.404 56.7803C190.783 56.5283 190.382 56.3145 190.2 56.1387ZM198.409 48.9316C198.146 48.9316 198.014 48.8291 198.014 48.624V48.0791C198.014 47.874 198.146 47.7715 198.409 47.7715H199.446V46.9805C199.446 46.8633 199.476 46.752 199.534 46.6465L200.149 45.5303C200.261 45.3252 200.352 45.2227 200.422 45.2227H200.729C200.905 45.2227 200.993 45.3252 200.993 45.5303V47.7715H202.865C203.129 47.7715 203.261 47.874 203.261 48.0791V48.624C203.261 48.8291 203.129 48.9316 202.865 48.9316H200.993V54.5303C200.993 55.1455 201.084 55.5469 201.266 55.7344C201.453 55.916 201.676 56.0068 201.934 56.0068C202.133 56.0068 202.37 55.9482 202.646 55.8311C202.927 55.7139 203.12 55.6143 203.226 55.5322C203.331 55.4502 203.413 55.4766 203.472 55.6113L203.762 56.2881C203.809 56.4053 203.773 56.499 203.656 56.5693C203.428 56.7041 203.094 56.8359 202.654 56.9648C202.215 57.0879 201.775 57.1494 201.336 57.1494C200.727 57.1494 200.258 56.9297 199.93 56.4902C199.607 56.0508 199.446 55.4297 199.446 54.627V48.9316H198.409ZM206.416 57C206.152 57 206.021 56.8682 206.021 56.6045V55.5322C206.021 55.2686 206.152 55.1367 206.416 55.1367H207.4C207.664 55.1367 207.796 55.2686 207.796 55.5322V56.6045C207.796 56.8682 207.664 57 207.4 57H206.416Z" fill="black"/>
<defs>
<filter id="filter0_d_249_984" x="0" y="0" width="357" height="84" filterUnits="userSpaceOnUse" color-interpolation-filters="sRGB">
<feFlood flood-opacity="0" result="BackgroundImageFix"/>
<feColorMatrix in="SourceAlpha" type="matrix" values="0 0 0 0 0 0 0 0 0 0 0 0 0 0 0 0 0 0 127 0" result="hardAlpha"/>
<feOffset dy="4"/>
<feGaussianBlur stdDeviation="2"/>
<feComposite in2="hardAlpha" operator="out"/>
<feColorMatrix type="matrix" values="0 0 0 0 0 0 0 0 0 0 0 0 0 0 0 0 0 0 0.25 0"/>
<feBlend mode="normal" in2="BackgroundImageFix" result="effect1_dropShadow_249_984"/>
<feBlend mode="normal" in="SourceGraphic" in2="effect1_dropShadow_249_984" result="shape"/>
</filter>
</defs>
</svg>
