<svg width="49" height="51" viewBox="0 0 49 51" fill="none" xmlns="http://www.w3.org/2000/svg">
<rect width="49" height="51" rx="20" fill="#C84C19"/>
<path d="M13.0001 34.6397H19.9339C21.1456 34.6397 21.7514 34.6397 22.2379 34.8122C23.0902 35.1144 23.7607 35.7849 24.0629 36.6372C24.2354 37.1236 24.2354 37.7295 24.2354 38.9412V22C24.2354 19.1716 24.2354 17.7574 23.3567 16.8787C22.478 16 21.0638 16 18.2354 16H13.0001C12.0572 16 11.5858 16 11.293 16.2929C11.0001 16.5858 11.0001 17.0572 11.0001 18V32.6397C11.0001 33.5825 11.0001 34.0539 11.293 34.3468C11.5858 34.6397 12.0572 34.6397 13.0001 34.6397Z" stroke="white" stroke-width="2"/>
<path d="M35.4706 34.6397H28.5368C27.3251 34.6397 26.7193 34.6397 26.2328 34.8122C25.3805 35.1144 24.71 35.7849 24.4078 36.6372C24.2354 37.1236 24.2354 37.7295 24.2354 38.9412V22C24.2354 19.1716 24.2354 17.7574 25.114 16.8787C25.9927 16 27.4069 16 30.2354 16H35.4706C36.4135 16 36.8849 16 37.1778 16.2929C37.4706 16.5858 37.4706 17.0572 37.4706 18V32.6397C37.4706 33.5825 37.4706 34.0539 37.1778 34.3468C36.8849 34.6397 36.4135 34.6397 35.4706 34.6397Z" stroke="white" stroke-width="2"/>
</svg>
