<?xml version="1.0" encoding="UTF-8"?>
<svg id="Layer_1" data-name="Layer 1" xmlns="http://www.w3.org/2000/svg" viewBox="0 0 49 51">
  <defs>
    <style>
      .cls-1 {
        fill: #ffa17a;
      }

      .cls-2 {
        fill: none;
        stroke: #fff;
        stroke-width: 2px;
      }
    </style>
  </defs>
  <rect class="cls-1" width="49" height="51" rx="20" ry="20"/>
  <path class="cls-2" d="M13,34.64h6.93c1.21,0,1.82,0,2.3,.17,.85,.3,1.52,.97,1.83,1.83,.17,.49,.17,1.09,.17,2.3V22c0-2.83,0-4.24-.88-5.12-.88-.88-2.29-.88-5.12-.88h-5.24c-.94,0-1.41,0-1.71,.29-.29,.29-.29,.76-.29,1.71v14.64c0,.94,0,1.41,.29,1.71,.29,.29,.76,.29,1.71,.29Z"/>
  <path class="cls-2" d="M35.47,34.64h-6.93c-1.21,0-1.82,0-2.3,.17-.85,.3-1.52,.97-1.82,1.83-.17,.49-.17,1.09-.17,2.3V22c0-2.83,0-4.24,.88-5.12,.88-.88,2.29-.88,5.12-.88h5.24c.94,0,1.41,0,1.71,.29,.29,.29,.29,.76,.29,1.71v14.64c0,.94,0,1.41-.29,1.71-.29,.29-.76,.29-1.71,.29Z"/>
</svg>