<svg width="35" height="35" viewBox="0 0 35 35" fill="none" xmlns="http://www.w3.org/2000/svg">
<path d="M6.375 24.7916H13.125C14.4056 24.7916 15.0459 24.7916 15.5568 24.9839C16.3653 25.2882 17.0034 25.9263 17.3077 26.7348C17.5 27.2457 17.5 27.886 17.5 29.1666V11.8333C17.5 9.00483 17.5 7.59061 16.6213 6.71193C15.7426 5.83325 14.3284 5.83325 11.5 5.83325H6.375C5.43219 5.83325 4.96079 5.83325 4.66789 6.12615C4.375 6.41904 4.375 6.89044 4.375 7.83325V22.7916C4.375 23.7344 4.375 24.2058 4.66789 24.4987C4.96079 24.7916 5.43219 24.7916 6.375 24.7916Z" stroke="black" stroke-width="2"/>
<path d="M28.625 24.7916H21.875C20.5944 24.7916 19.9541 24.7916 19.4432 24.9839C18.6347 25.2882 17.9966 25.9263 17.6923 26.7348C17.5 27.2457 17.5 27.886 17.5 29.1666V11.8333C17.5 9.00483 17.5 7.59061 18.3787 6.71193C19.2574 5.83325 20.6716 5.83325 23.5 5.83325H28.625C29.5678 5.83325 30.0392 5.83325 30.3321 6.12615C30.625 6.41904 30.625 6.89044 30.625 7.83325V22.7916C30.625 23.7344 30.625 24.2058 30.3321 24.4987C30.0392 24.7916 29.5678 24.7916 28.625 24.7916Z" stroke="black" stroke-width="2"/>
</svg>
