<?xml version="1.0" encoding="UTF-8"?>
<svg id="Layer_1" data-name="Layer 1" xmlns="http://www.w3.org/2000/svg" viewBox="0 0 39 40.54">
  <defs>
    <style>
      .cls-1 {
        fill: none;
        stroke: #006b62;
        stroke-linecap: round;
        stroke-linejoin: round;
        stroke-width: 3px;
      }
    </style>
  </defs>
  <path class="cls-1" d="M35.98,5.25c1.52,2.13,1.52,5.1,1.52,11.03s0,8.9-1.52,11.03c-.66,.92-1.5,1.71-2.48,2.33-1.98,1.24-4.65,1.4-9.5,1.42h0s5.5,7.51,5.5,7.51c-.83,1.56-9.67-1.26-10.5-2.82l-4-4.69h0c-4.85-.02-7.52-.18-9.5-1.42-.98-.62-1.83-1.41-2.48-2.33-1.52-2.13-1.52-5.1-1.52-11.03S1.5,7.39,3.02,5.25c.66-.92,1.5-1.71,2.48-2.33,2.27-1.42,5.43-1.42,11.75-1.42h4.5c6.32,0,9.48,0,11.75,1.42,.98,.62,1.83,1.41,2.48,2.33Z"/>
  <path class="cls-1" d="M12.75,12.06h13.5"/>
  <path class="cls-1" d="M12.75,20.51h6.75"/>
</svg>