<svg width="31" height="31" viewBox="0 0 31 31" fill="none" xmlns="http://www.w3.org/2000/svg">
<path d="M3.875 7.875C3.875 5.98938 3.875 5.04657 4.46079 4.46079C5.04657 3.875 5.98938 3.875 7.875 3.875H23.125C25.0106 3.875 25.9534 3.875 26.5392 4.46079C27.125 5.04657 27.125 5.98938 27.125 7.875V23.125C27.125 25.0106 27.125 25.9534 26.5392 26.5392C25.9534 27.125 25.0106 27.125 23.125 27.125H7.875C5.98938 27.125 5.04657 27.125 4.46079 26.5392C3.875 25.9534 3.875 25.0106 3.875 23.125V7.875Z" stroke="black" stroke-width="2"/>
<path d="M3.875 9.04175H8.33333C9.31476 9.04175 9.80547 9.04175 10.2278 9.25289C10.6501 9.46404 10.9445 9.85661 11.5333 10.6417L13.0083 12.6084C13.5972 13.3936 13.8916 13.7861 14.3139 13.9973C14.7362 14.2084 15.2269 14.2084 16.2083 14.2084H23.25C25.0143 14.2084 25.8965 14.2084 26.4681 13.6903C26.5166 13.6464 26.5629 13.6 26.6069 13.5515C27.125 12.9799 27.125 12.0977 27.125 10.3334V10.3334" stroke="black" stroke-width="2"/>
<path d="M9.04169 20.6667H19.375" stroke="black" stroke-width="2" stroke-linecap="round"/>
</svg>
