<svg width="153" height="54" viewBox="0 0 153 54" fill="none" xmlns="http://www.w3.org/2000/svg">
<rect x="1" y="1" width="151" height="52" rx="14" fill="white" stroke="#434746" stroke-width="2"/>
<path d="M32.9023 20.1953C32.3164 20.1953 32.0234 19.9414 32.0234 19.4336V17.957C32.0234 17.4492 32.3164 17.1953 32.9023 17.1953H44.9492C45.5352 17.1953 45.8281 17.4492 45.8281 17.957V19.4336C45.8281 19.9414 45.5352 20.1953 44.9492 20.1953H40.6367V33.3555C40.6367 33.7852 40.4414 34 40.0508 34H37.8008C37.4102 34 37.2148 33.7852 37.2148 33.3555V20.1953H32.9023ZM44.5039 22.6094C44.293 22 44.4219 21.6953 44.8906 21.6953H46.9883C47.3477 21.6953 47.582 21.8945 47.6914 22.293L49.4609 28.8438C49.5469 29.1484 49.6211 29.543 49.6836 30.0273C49.7539 30.5039 49.7891 30.8086 49.7891 30.9414H49.8594C49.9531 30.5273 50.0195 30.1992 50.0586 29.957C50.1055 29.707 50.2266 29.2266 50.4219 28.5156L52.0977 22.293C52.207 21.8945 52.4414 21.6953 52.8008 21.6953H54.8984C55.3594 21.6953 55.4883 22 55.2852 22.6094L51.3359 34.4922C50.875 35.8828 50.3086 36.9688 49.6367 37.75C48.9648 38.5312 48.0312 38.9219 46.8359 38.9219C46.1797 38.9219 45.5938 38.8672 45.0781 38.7578C44.7812 38.6953 44.668 38.4922 44.7383 38.1484L44.9961 36.8594C45.0664 36.5234 45.2656 36.4062 45.5938 36.5078C45.8359 36.5859 46.0625 36.625 46.2734 36.625C46.9062 36.625 47.3867 36.3242 47.7148 35.7227C48.0508 35.1211 48.2734 34.6055 48.3828 34.1758L48.418 34L44.5039 22.6094ZM57.5703 38.6875C57.1016 38.6875 56.8672 38.4531 56.8672 37.9844V22.3984C56.8672 21.9297 57.1016 21.6953 57.5703 21.6953H59.4219C59.8125 21.6953 60.0234 21.9297 60.0547 22.3984L60.1016 23.0781H60.1484C60.5547 22.4062 61.0078 21.9688 61.5078 21.7656C62.0078 21.5625 62.6094 21.4609 63.3125 21.4609C65.1484 21.4609 66.4375 22.0977 67.1797 23.3711C67.9297 24.6367 68.3047 26.1289 68.3047 27.8477C68.3047 29.5664 67.9297 31.0625 67.1797 32.3359C66.4375 33.6016 65.1484 34.2344 63.3125 34.2344C62.6094 34.2344 62.0078 34.1328 61.5078 33.9297C61.0078 33.7266 60.5547 33.2891 60.1484 32.6172H60.1016C60.1328 32.9297 60.1484 33.2422 60.1484 33.5547V37.9844C60.1484 38.4531 59.9141 38.6875 59.4453 38.6875H57.5703ZM60.1484 28.375C60.1484 29.4297 60.3555 30.2891 60.7695 30.9531C61.1914 31.6094 61.6953 31.9375 62.2812 31.9375C63.3359 31.9375 64.0234 31.5703 64.3438 30.8359C64.6719 30.0938 64.8359 29.0977 64.8359 27.8477C64.8359 26.5977 64.6719 25.6055 64.3438 24.8711C64.0234 24.1289 63.3359 23.7578 62.2812 23.7578C61.6953 23.7578 61.1914 24.0898 60.7695 24.7539C60.3555 25.4102 60.1484 26.2656 60.1484 27.3203V28.375ZM70.1797 27.8477C70.1797 25.8711 70.6719 24.3125 71.6562 23.1719C72.6484 22.0312 74.0469 21.4609 75.8516 21.4609C77.9453 21.4609 79.5 22 80.5156 23.0781C81.5312 24.1562 82.0391 25.8906 82.0391 28.2812C82.0391 28.75 81.8203 28.9844 81.3828 28.9844H73.6484C73.7734 30.2812 74.0938 31.0977 74.6094 31.4336C75.125 31.7695 75.7227 31.9375 76.4023 31.9375C77.0508 31.9375 77.5469 31.8516 77.8906 31.6797C78.2344 31.5078 78.5234 31.2734 78.7578 30.9766C79.0234 30.6328 79.3516 30.5781 79.7422 30.8125L80.9141 31.5273C81.375 31.8086 81.4414 32.1445 81.1133 32.5352C80.6367 33.1055 80.0781 33.5312 79.4375 33.8125C78.7969 34.0938 77.7852 34.2344 76.4023 34.2344C74.1602 34.2344 72.5625 33.6641 71.6094 32.5234C70.6562 31.3828 70.1797 29.8242 70.1797 27.8477ZM73.6602 26.6406H78.7578C78.7578 25.7969 78.5469 25.1094 78.125 24.5781C77.7031 24.0391 77.0312 23.7695 76.1094 23.7695C75.375 23.7695 74.793 24.0273 74.3633 24.543C73.9336 25.0508 73.6992 25.75 73.6602 26.6406Z" fill="#585858"/>
<path d="M121 34L112.34 22.75H129.66L121 34Z" fill="#585858"/>
</svg>
