<svg width="28" height="28" viewBox="0 0 28 28" fill="none" xmlns="http://www.w3.org/2000/svg">
<path d="M8.16669 8.32051V6.94529C8.16669 4.79939 8.16669 3.72645 8.85628 3.12836C9.54588 2.53028 10.608 2.68202 12.7324 2.98549L19.3485 3.93066C21.8047 4.28154 23.0327 4.45697 23.7664 5.30287C24.5 6.14876 24.5 7.38929 24.5 9.87036V18.1295C24.5 20.6105 24.5 21.8511 23.7664 22.697C23.0327 23.5429 21.8047 23.7183 19.3485 24.0692L12.7324 25.0143C10.608 25.3178 9.54588 25.4696 8.85628 24.8715C8.16669 24.2734 8.16669 23.2004 8.16669 21.0545V19.9102" stroke="black" stroke-width="2"/>
<path d="M18.6667 14.0001L19.4476 13.3754L19.9473 14.0001L19.4476 14.6248L18.6667 14.0001ZM4.66669 15.0001C4.1144 15.0001 3.66669 14.5524 3.66669 14.0001C3.66669 13.4478 4.1144 13.0001 4.66669 13.0001V15.0001ZM14.7809 7.54205L19.4476 13.3754L17.8858 14.6248L13.2192 8.79144L14.7809 7.54205ZM19.4476 14.6248L14.7809 20.4581L13.2192 19.2087L17.8858 13.3754L19.4476 14.6248ZM18.6667 15.0001H4.66669V13.0001H18.6667V15.0001Z" fill="black"/>
</svg>
