<svg width="527" height="163" viewBox="0 0 527 163" fill="none" xmlns="http://www.w3.org/2000/svg">
<g filter="url(#filter0_d_249_960)">
<circle cx="445.5" cy="77.5" r="77.5" fill="#006B62"/>
</g>
<g filter="url(#filter1_d_249_960)">
<path d="M474.917 69.3991L454.734 48.4163C454.349 48.0152 453.719 47.9967 453.323 48.3868C439.516 61.9564 412.792 88.232 410.908 90.1205C408.991 92.042 407.98 94.6574 407.714 95.7249L400.526 118.142C398.636 122.563 402.286 123.196 404.43 122.956C404.49 122.95 404.546 122.937 404.604 122.919C409.701 121.306 420.836 117.815 425.283 116.541C429.756 115.26 433.003 112.805 434.068 111.737L474.905 70.7986C475.289 70.4133 475.295 69.7913 474.917 69.3991Z" fill="white"/>
<path d="M479.68 63.791L459.53 43.5903C459.141 43.1999 459.144 42.5727 459.553 42.2028C461.744 40.2195 467.216 35.6078 470.006 33.2766C472.402 30.8748 481.187 31.6754 486.777 37.2797C491.206 41.7199 491.301 48.6204 490.786 51.6046C490.775 51.6636 490.771 51.7205 490.769 51.7803C490.705 53.6927 488.624 56.2442 487.576 57.2952L481.096 63.791C480.706 64.1827 480.071 64.1827 479.68 63.791Z" fill="white"/>
</g>
<g filter="url(#filter2_d_249_960)">
<rect x="4" y="42" width="349" height="76" rx="15" fill="white"/>
</g>
<path d="M30.9336 73C30.6406 73 30.4941 72.8389 30.4941 72.5166V60.8799C30.4941 60.5576 30.6406 60.3965 30.9336 60.3965H34.1768C36.6611 60.3965 38.3867 60.9473 39.3535 62.0488C40.3262 63.1445 40.8125 64.6885 40.8125 66.6807C40.8125 68.6729 40.3262 70.2256 39.3535 71.3389C38.3867 72.4463 36.6611 73 34.1768 73H30.9336ZM32.1816 71.5586H34.0977C36.0312 71.5586 37.332 71.1484 38 70.3281C38.6738 69.5078 39.0107 68.292 39.0107 66.6807C39.0107 65.0693 38.6738 63.8564 38 63.042C37.332 62.2275 36.0312 61.8203 34.0977 61.8203H32.1816V71.5586ZM42.3682 68.3857C42.3682 67.0088 42.7314 65.8721 43.458 64.9756C44.1904 64.0732 45.2598 63.6221 46.666 63.6221C48.0723 63.6221 49.1387 64.0732 49.8652 64.9756C50.5977 65.8721 50.9639 67.0088 50.9639 68.3857C50.9639 69.7627 50.5977 70.9023 49.8652 71.8047C49.1387 72.7012 48.0723 73.1494 46.666 73.1494C45.2598 73.1494 44.1904 72.7012 43.458 71.8047C42.7314 70.9023 42.3682 69.7627 42.3682 68.3857ZM44.0029 68.3857C44.0029 69.6162 44.2461 70.5273 44.7324 71.1191C45.2188 71.7109 45.8633 72.0068 46.666 72.0068C47.4688 72.0068 48.1133 71.7109 48.5996 71.1191C49.0859 70.5273 49.3291 69.6162 49.3291 68.3857C49.3291 67.1553 49.0859 66.2441 48.5996 65.6523C48.1133 65.0605 47.4688 64.7646 46.666 64.7646C45.8633 64.7646 45.2188 65.0605 44.7324 65.6523C44.2461 66.2441 44.0029 67.1553 44.0029 68.3857ZM52.9414 69.7832V64.167C52.9414 63.9033 53.0732 63.7715 53.3369 63.7715H54.0928C54.3564 63.7715 54.4883 63.9033 54.4883 64.167V69.3613C54.4883 70.5098 54.6787 71.2393 55.0596 71.5498C55.4404 71.8545 55.9121 72.0068 56.4746 72.0068C57.2129 72.0068 57.7783 71.7812 58.1709 71.3301C58.5635 70.873 58.7598 70.0938 58.7598 68.9922V64.167C58.7598 63.9033 58.8916 63.7715 59.1553 63.7715H59.9111C60.1748 63.7715 60.3066 63.9033 60.3066 64.167V72.6045C60.3066 72.8682 60.1748 73 59.9111 73H59.1729C58.9092 73 58.7773 72.8682 58.7773 72.6045V71.9014H58.7422C58.3613 72.3232 57.9512 72.6367 57.5117 72.8418C57.0723 73.0469 56.5361 73.1494 55.9033 73.1494C54.8779 73.1494 54.1279 72.8506 53.6533 72.2529C53.1787 71.6494 52.9414 70.8262 52.9414 69.7832ZM63.1982 73C62.9346 73 62.8027 72.8682 62.8027 72.6045V60.4229C62.8027 60.1592 62.9346 60.0273 63.1982 60.0273H63.9541C64.2178 60.0273 64.3496 60.1592 64.3496 60.4229V64.334C64.3496 64.5156 64.3438 64.6943 64.332 64.8701H64.3496C64.6719 64.4834 65.0352 64.1787 65.4395 63.9561C65.8438 63.7334 66.3828 63.6221 67.0566 63.6221C68.2285 63.6221 69.1191 64.1025 69.7285 65.0635C70.3379 66.0186 70.6426 67.126 70.6426 68.3857C70.6426 69.6455 70.3379 70.7559 69.7285 71.7168C69.1191 72.6719 68.2285 73.1494 67.0566 73.1494C66.3828 73.1494 65.8438 73.0381 65.4395 72.8154C65.0352 72.5928 64.6719 72.2881 64.3496 71.9014H64.332L64.2793 72.6045C64.2617 72.8682 64.1475 73 63.9365 73H63.1982ZM64.3496 69.3965C64.3496 70.2754 64.5576 70.9316 64.9736 71.3652C65.3955 71.793 65.9229 72.0068 66.5557 72.0068C67.4463 72.0068 68.0762 71.6729 68.4453 71.0049C68.8203 70.3369 69.0078 69.4639 69.0078 68.3857C69.0078 67.3076 68.8203 66.4346 68.4453 65.7666C68.0762 65.0986 67.4463 64.7646 66.5557 64.7646C65.9229 64.7646 65.3955 64.9814 64.9736 65.415C64.5576 65.8428 64.3496 66.4961 64.3496 67.375V69.3965ZM73.042 73C72.7783 73 72.6465 72.8682 72.6465 72.6045V61.6357C72.6465 61.5186 72.6758 61.4072 72.7344 61.3018L73.3496 60.1855C73.4609 59.9805 73.5518 59.8779 73.6221 59.8779H73.9297C74.1055 59.8779 74.1934 59.9805 74.1934 60.1855V72.6045C74.1934 72.8682 74.0615 73 73.7979 73H73.042ZM76.1885 68.3857C76.1885 66.9326 76.5518 65.7754 77.2783 64.9141C78.0049 64.0527 79.0449 63.6221 80.3984 63.6221C81.5234 63.6221 82.4551 64.0176 83.1934 64.8086C83.9375 65.5938 84.3096 66.8506 84.3096 68.5791C84.3096 68.8428 84.1895 68.9746 83.9492 68.9746H77.8232C77.9229 70.1055 78.2275 70.8936 78.7373 71.3389C79.2471 71.7783 79.8242 71.998 80.4688 71.998C81.1484 71.998 81.6699 71.8838 82.0332 71.6553C82.3965 71.4268 82.6631 71.2012 82.833 70.9785C83.0205 70.7324 83.2021 70.6855 83.3779 70.8379L83.8965 71.2861C84.0312 71.4033 84.0312 71.5645 83.8965 71.7695C83.7852 71.9395 83.4658 72.2119 82.9385 72.5869C82.417 72.9619 81.5938 73.1494 80.4688 73.1494C79.0039 73.1494 77.9229 72.7188 77.2256 71.8574C76.5342 70.9961 76.1885 69.8389 76.1885 68.3857ZM77.7881 67.832H82.7539C82.7305 67.0117 82.5195 66.2939 82.1211 65.6787C81.7227 65.0576 81.1367 64.7471 80.3633 64.7471C79.6836 64.7471 79.1064 64.9756 78.6318 65.4326C78.1572 65.8838 77.876 66.6836 77.7881 67.832ZM91.833 68.3857C91.833 67.0088 92.1729 65.8721 92.8525 64.9756C93.5381 64.0732 94.584 63.6221 95.9902 63.6221C96.9395 63.6221 97.6631 63.792 98.1611 64.1318C98.665 64.4658 99.0283 64.8086 99.251 65.1602C99.374 65.3535 99.3477 65.5088 99.1719 65.626L98.6182 65.9863C98.4424 66.1094 98.2666 66.0303 98.0908 65.749C97.9209 65.4795 97.6807 65.248 97.3701 65.0547C97.0654 64.8613 96.6055 64.7646 95.9902 64.7646C95.1875 64.7646 94.5664 65.0605 94.127 65.6523C93.6875 66.2441 93.4678 67.1553 93.4678 68.3857C93.4678 69.6162 93.6875 70.5273 94.127 71.1191C94.5664 71.7109 95.1875 72.0068 95.9902 72.0068C96.6406 72.0068 97.1387 71.8838 97.4844 71.6377C97.8301 71.3857 98.082 71.1133 98.2402 70.8203C98.3926 70.5449 98.5654 70.4658 98.7588 70.583L99.3477 70.9346C99.5234 71.04 99.5498 71.1982 99.4268 71.4092C99.2803 71.6611 98.9463 72.0156 98.4248 72.4727C97.9092 72.9238 97.0977 73.1494 95.9902 73.1494C94.584 73.1494 93.5381 72.7012 92.8525 71.8047C92.1729 70.9023 91.833 69.7627 91.833 68.3857ZM101.747 73C101.483 73 101.352 72.8682 101.352 72.6045V61.6357C101.352 61.5186 101.381 61.4072 101.439 61.3018L102.055 60.1855C102.166 59.9805 102.257 59.8779 102.327 59.8779H102.635C102.811 59.8779 102.898 59.9805 102.898 60.1855V72.6045C102.898 72.8682 102.767 73 102.503 73H101.747ZM105.79 73C105.526 73 105.395 72.8682 105.395 72.6045V64.167C105.395 63.9033 105.526 63.7715 105.79 63.7715H106.546C106.81 63.7715 106.941 63.9033 106.941 64.167V72.6045C106.941 72.8682 106.81 73 106.546 73H105.79ZM105.79 62.1016C105.526 62.1016 105.395 61.9697 105.395 61.7061V60.9502C105.395 60.6865 105.526 60.5547 105.79 60.5547H106.546C106.81 60.5547 106.941 60.6865 106.941 60.9502V61.7061C106.941 61.9697 106.81 62.1016 106.546 62.1016H105.79ZM108.937 68.3857C108.937 67.0088 109.276 65.8721 109.956 64.9756C110.642 64.0732 111.688 63.6221 113.094 63.6221C114.043 63.6221 114.767 63.792 115.265 64.1318C115.769 64.4658 116.132 64.8086 116.354 65.1602C116.478 65.3535 116.451 65.5088 116.275 65.626L115.722 65.9863C115.546 66.1094 115.37 66.0303 115.194 65.749C115.024 65.4795 114.784 65.248 114.474 65.0547C114.169 64.8613 113.709 64.7646 113.094 64.7646C112.291 64.7646 111.67 65.0605 111.23 65.6523C110.791 66.2441 110.571 67.1553 110.571 68.3857C110.571 69.6162 110.791 70.5273 111.23 71.1191C111.67 71.7109 112.291 72.0068 113.094 72.0068C113.744 72.0068 114.242 71.8838 114.588 71.6377C114.934 71.3857 115.186 71.1133 115.344 70.8203C115.496 70.5449 115.669 70.4658 115.862 70.583L116.451 70.9346C116.627 71.04 116.653 71.1982 116.53 71.4092C116.384 71.6611 116.05 72.0156 115.528 72.4727C115.013 72.9238 114.201 73.1494 113.094 73.1494C111.688 73.1494 110.642 72.7012 109.956 71.8047C109.276 70.9023 108.937 69.7627 108.937 68.3857ZM118.851 73C118.587 73 118.455 72.8682 118.455 72.6045V60.4229C118.455 60.1592 118.587 60.0273 118.851 60.0273H119.606C119.87 60.0273 120.002 60.1592 120.002 60.4229V67.7354C120.002 67.9111 119.996 68.0869 119.984 68.2627H120.002L123.562 64C123.69 63.8477 123.846 63.7715 124.027 63.7715H124.827C125.272 63.7715 125.349 63.9443 125.056 64.29L122.296 67.5771L125.451 72.4814C125.674 72.8271 125.598 73 125.223 73H124.361C124.168 73 124.001 72.8916 123.86 72.6748L121.329 68.7285L120.002 70.3105V72.6045C120.002 72.8682 119.87 73 119.606 73H118.851ZM132.772 70.5391C132.772 69.4961 133.259 68.7314 134.231 68.2451C135.21 67.7588 136.669 67.4746 138.608 67.3926V66.7949C138.608 66.2441 138.482 65.7695 138.23 65.3711C137.984 64.9668 137.492 64.7646 136.754 64.7646C136.285 64.7646 135.91 64.8115 135.629 64.9053C135.348 64.9932 135.09 65.1133 134.855 65.2656C134.627 65.4121 134.407 65.6025 134.196 65.8369C134.038 66.0127 133.889 66.0215 133.748 65.8633L133.291 65.3359C133.162 65.1895 133.206 65.0137 133.423 64.8086C133.733 64.5156 134.035 64.2959 134.328 64.1494C134.621 64.0029 134.984 63.8799 135.418 63.7803C135.857 63.6748 136.303 63.6221 136.754 63.6221C137.979 63.6221 138.852 63.9385 139.373 64.5713C139.895 65.1982 140.155 66.0596 140.155 67.1553V72.6045C140.155 72.8682 140.023 73 139.76 73H138.969C138.74 73 138.626 72.8682 138.626 72.6045V72.1738H138.608C138.146 72.5371 137.691 72.792 137.246 72.9385C136.807 73.0791 136.314 73.1494 135.77 73.1494C134.809 73.1494 134.067 72.9209 133.546 72.4639C133.03 72.001 132.772 71.3594 132.772 70.5391ZM134.372 70.5742C134.372 70.9375 134.448 71.2305 134.601 71.4531C134.753 71.6699 134.964 71.8105 135.233 71.875C135.503 71.9336 135.784 71.9629 136.077 71.9629C136.528 71.9629 136.956 71.9189 137.36 71.8311C137.765 71.7432 138.181 71.5117 138.608 71.1367V68.5439C137.425 68.6318 136.581 68.7402 136.077 68.8691C135.573 68.9922 135.163 69.209 134.847 69.5195C134.53 69.8242 134.372 70.1758 134.372 70.5742ZM143.056 73C142.792 73 142.66 72.8682 142.66 72.6045V64.167C142.66 63.9033 142.792 63.7715 143.056 63.7715H143.794C144.058 63.7715 144.189 63.9033 144.189 64.167V64.8701H144.225C144.605 64.4482 145.016 64.1348 145.455 63.9297C145.895 63.7246 146.442 63.6221 147.099 63.6221C148.165 63.6221 148.93 63.9238 149.393 64.5273C149.861 65.125 150.096 65.9453 150.096 66.9883V72.6045C150.096 72.8682 149.964 73 149.7 73H148.944C148.681 73 148.549 72.8682 148.549 72.6045V67.4102C148.549 66.2617 148.358 65.5352 147.978 65.2305C147.597 64.9199 147.113 64.7646 146.527 64.7646C145.766 64.7646 145.188 64.9932 144.796 65.4502C144.403 65.9014 144.207 66.6777 144.207 67.7793V72.6045C144.207 72.8682 144.075 73 143.812 73H143.056ZM151.933 64.2021C151.827 63.915 151.906 63.7715 152.17 63.7715H153.128C153.321 63.7715 153.453 63.8857 153.523 64.1143L155.369 69.915C155.422 70.0732 155.501 70.3223 155.606 70.6621C155.718 70.9961 155.797 71.2949 155.844 71.5586H155.861C155.908 71.2949 155.964 71.0576 156.028 70.8467C156.099 70.6299 156.201 70.3193 156.336 69.915L158.199 64.1143C158.275 63.8857 158.407 63.7715 158.595 63.7715H159.553C159.816 63.7715 159.896 63.915 159.79 64.2021L156.828 72.4639C156.271 74.0166 155.773 75.1035 155.334 75.7246C154.895 76.3516 154.238 76.665 153.365 76.665C152.908 76.665 152.545 76.5977 152.275 76.4629C152.152 76.4043 152.111 76.3135 152.152 76.1904L152.381 75.4785C152.422 75.3555 152.501 75.3203 152.618 75.373C152.858 75.4727 153.09 75.5225 153.312 75.5225C153.723 75.5225 154.057 75.2998 154.314 74.8545C154.572 74.415 154.777 73.9727 154.93 73.5273L155.105 73.0088L151.933 64.2021ZM160.537 64.2021C160.461 63.915 160.54 63.7715 160.774 63.7715H161.697C161.908 63.7715 162.04 63.8857 162.093 64.1143L163.385 69.915C163.426 70.085 163.487 70.3516 163.569 70.7148C163.657 71.0781 163.719 71.3447 163.754 71.5146H163.789C163.818 71.3506 163.868 71.1045 163.938 70.7764C164.015 70.4482 164.085 70.1611 164.149 69.915L165.696 64.1143C165.755 63.8857 165.887 63.7715 166.092 63.7715H166.883C167.088 63.7715 167.22 63.8857 167.278 64.1143L168.825 69.915C168.89 70.1611 168.957 70.4482 169.027 70.7764C169.104 71.1045 169.156 71.3506 169.186 71.5146H169.221C169.256 71.3447 169.314 71.0781 169.396 70.7148C169.484 70.3516 169.549 70.085 169.59 69.915L170.882 64.1143C170.935 63.8857 171.066 63.7715 171.277 63.7715H172.2C172.435 63.7715 172.514 63.915 172.438 64.2021L170.258 72.4639C170.164 72.8213 170.006 73 169.783 73H168.729C168.506 73 168.348 72.8213 168.254 72.4639L166.76 66.6543C166.654 66.2441 166.587 65.957 166.558 65.793C166.534 65.6289 166.514 65.4736 166.496 65.3271H166.479C166.461 65.4736 166.438 65.6289 166.408 65.793C166.385 65.957 166.32 66.2441 166.215 66.6543L164.721 72.4639C164.627 72.8213 164.469 73 164.246 73H163.191C162.969 73 162.811 72.8213 162.717 72.4639L160.537 64.2021ZM174.362 73C174.099 73 173.967 72.8682 173.967 72.6045V60.4229C173.967 60.1592 174.099 60.0273 174.362 60.0273H175.118C175.382 60.0273 175.514 60.1592 175.514 60.4229V64.3428C175.514 64.5186 175.508 64.6943 175.496 64.8701H175.531C175.912 64.4482 176.322 64.1348 176.762 63.9297C177.201 63.7246 177.749 63.6221 178.405 63.6221C179.472 63.6221 180.236 63.9238 180.699 64.5273C181.168 65.125 181.402 65.9453 181.402 66.9883V72.6045C181.402 72.8682 181.271 73 181.007 73H180.251C179.987 73 179.855 72.8682 179.855 72.6045V67.4102C179.855 66.2617 179.665 65.5352 179.284 65.2305C178.903 64.9199 178.42 64.7646 177.834 64.7646C177.072 64.7646 176.495 64.9932 176.103 65.4502C175.71 65.9014 175.514 66.6777 175.514 67.7793V72.6045C175.514 72.8682 175.382 73 175.118 73H174.362ZM183.38 68.3857C183.38 66.9326 183.743 65.7754 184.47 64.9141C185.196 64.0527 186.236 63.6221 187.59 63.6221C188.715 63.6221 189.646 64.0176 190.385 64.8086C191.129 65.5938 191.501 66.8506 191.501 68.5791C191.501 68.8428 191.381 68.9746 191.141 68.9746H185.015C185.114 70.1055 185.419 70.8936 185.929 71.3389C186.438 71.7783 187.016 71.998 187.66 71.998C188.34 71.998 188.861 71.8838 189.225 71.6553C189.588 71.4268 189.854 71.2012 190.024 70.9785C190.212 70.7324 190.394 70.6855 190.569 70.8379L191.088 71.2861C191.223 71.4033 191.223 71.5645 191.088 71.7695C190.977 71.9395 190.657 72.2119 190.13 72.5869C189.608 72.9619 188.785 73.1494 187.66 73.1494C186.195 73.1494 185.114 72.7188 184.417 71.8574C183.726 70.9961 183.38 69.8389 183.38 68.3857ZM184.979 67.832H189.945C189.922 67.0117 189.711 66.2939 189.312 65.6787C188.914 65.0576 188.328 64.7471 187.555 64.7471C186.875 64.7471 186.298 64.9756 185.823 65.4326C185.349 65.8838 185.067 66.6836 184.979 67.832ZM193.927 73C193.663 73 193.531 72.8682 193.531 72.6045V64.167C193.531 63.9033 193.663 63.7715 193.927 63.7715H194.665C194.929 63.7715 195.061 63.9033 195.061 64.167V65.2217H195.096C195.377 64.6943 195.708 64.2959 196.089 64.0264C196.47 63.7568 196.944 63.6221 197.513 63.6221C197.888 63.6221 198.151 63.6543 198.304 63.7188C198.438 63.7715 198.488 63.8594 198.453 63.9824L198.251 64.7031C198.222 64.8086 198.146 64.8496 198.022 64.8262C197.817 64.7852 197.624 64.7646 197.442 64.7646C196.757 64.7646 196.191 65.0752 195.746 65.6963C195.301 66.3115 195.078 67.1523 195.078 68.2188V72.6045C195.078 72.8682 194.946 73 194.683 73H193.927ZM199.376 68.3857C199.376 66.9326 199.739 65.7754 200.466 64.9141C201.192 64.0527 202.232 63.6221 203.586 63.6221C204.711 63.6221 205.643 64.0176 206.381 64.8086C207.125 65.5938 207.497 66.8506 207.497 68.5791C207.497 68.8428 207.377 68.9746 207.137 68.9746H201.011C201.11 70.1055 201.415 70.8936 201.925 71.3389C202.435 71.7783 203.012 71.998 203.656 71.998C204.336 71.998 204.857 71.8838 205.221 71.6553C205.584 71.4268 205.851 71.2012 206.021 70.9785C206.208 70.7324 206.39 70.6855 206.565 70.8379L207.084 71.2861C207.219 71.4033 207.219 71.5645 207.084 71.7695C206.973 71.9395 206.653 72.2119 206.126 72.5869C205.604 72.9619 204.781 73.1494 203.656 73.1494C202.191 73.1494 201.11 72.7188 200.413 71.8574C199.722 70.9961 199.376 69.8389 199.376 68.3857ZM200.976 67.832H205.941C205.918 67.0117 205.707 66.2939 205.309 65.6787C204.91 65.0576 204.324 64.7471 203.551 64.7471C202.871 64.7471 202.294 64.9756 201.819 65.4326C201.345 65.8838 201.063 66.6836 200.976 67.832ZM210.055 73C209.791 73 209.659 72.8682 209.659 72.6045V71.5322C209.659 71.2686 209.791 71.1367 210.055 71.1367H211.074C211.338 71.1367 211.47 71.2686 211.47 71.5322V72.6045C211.47 73.2197 211.402 73.7559 211.268 74.2129C211.139 74.6758 210.881 75.0801 210.494 75.4258C210.365 75.5371 210.257 75.5518 210.169 75.4697L209.773 75.1006C209.686 75.0186 209.706 74.9189 209.835 74.8018C210.034 74.626 210.195 74.3711 210.318 74.0371C210.447 73.709 210.512 73.3633 210.512 73H210.055ZM219.925 68.3857C219.925 67.126 220.229 66.0186 220.839 65.0635C221.448 64.1025 222.339 63.6221 223.511 63.6221C224.185 63.6221 224.724 63.7334 225.128 63.9561C225.532 64.1787 225.896 64.4834 226.218 64.8701H226.235C226.224 64.6943 226.218 64.5156 226.218 64.334V60.4229C226.218 60.1592 226.35 60.0273 226.613 60.0273H227.369C227.633 60.0273 227.765 60.1592 227.765 60.4229V72.6045C227.765 72.8682 227.633 73 227.369 73H226.631C226.42 73 226.306 72.8682 226.288 72.6045L226.235 71.9014H226.218C225.896 72.2881 225.532 72.5928 225.128 72.8154C224.724 73.0381 224.185 73.1494 223.511 73.1494C222.339 73.1494 221.448 72.6719 220.839 71.7168C220.229 70.7559 219.925 69.6455 219.925 68.3857ZM221.56 68.3857C221.56 69.4639 221.744 70.3369 222.113 71.0049C222.488 71.6729 223.121 72.0068 224.012 72.0068C224.645 72.0068 225.169 71.793 225.585 71.3652C226.007 70.9316 226.218 70.2754 226.218 69.3965V67.375C226.218 66.4961 226.007 65.8428 225.585 65.415C225.169 64.9814 224.645 64.7646 224.012 64.7646C223.121 64.7646 222.488 65.0986 222.113 65.7666C221.744 66.4346 221.56 67.3076 221.56 68.3857ZM230.665 73C230.401 73 230.27 72.8682 230.27 72.6045V64.167C230.27 63.9033 230.401 63.7715 230.665 63.7715H231.403C231.667 63.7715 231.799 63.9033 231.799 64.167V65.2217H231.834C232.115 64.6943 232.446 64.2959 232.827 64.0264C233.208 63.7568 233.683 63.6221 234.251 63.6221C234.626 63.6221 234.89 63.6543 235.042 63.7188C235.177 63.7715 235.227 63.8594 235.191 63.9824L234.989 64.7031C234.96 64.8086 234.884 64.8496 234.761 64.8262C234.556 64.7852 234.362 64.7646 234.181 64.7646C233.495 64.7646 232.93 65.0752 232.484 65.6963C232.039 66.3115 231.816 67.1523 231.816 68.2188V72.6045C231.816 72.8682 231.685 73 231.421 73H230.665ZM236.114 70.5391C236.114 69.4961 236.601 68.7314 237.573 68.2451C238.552 67.7588 240.011 67.4746 241.95 67.3926V66.7949C241.95 66.2441 241.824 65.7695 241.572 65.3711C241.326 64.9668 240.834 64.7646 240.096 64.7646C239.627 64.7646 239.252 64.8115 238.971 64.9053C238.689 64.9932 238.432 65.1133 238.197 65.2656C237.969 65.4121 237.749 65.6025 237.538 65.8369C237.38 66.0127 237.23 66.0215 237.09 65.8633L236.633 65.3359C236.504 65.1895 236.548 65.0137 236.765 64.8086C237.075 64.5156 237.377 64.2959 237.67 64.1494C237.963 64.0029 238.326 63.8799 238.76 63.7803C239.199 63.6748 239.645 63.6221 240.096 63.6221C241.32 63.6221 242.193 63.9385 242.715 64.5713C243.236 65.1982 243.497 66.0596 243.497 67.1553V72.6045C243.497 72.8682 243.365 73 243.102 73H242.311C242.082 73 241.968 72.8682 241.968 72.6045V72.1738H241.95C241.487 72.5371 241.033 72.792 240.588 72.9385C240.148 73.0791 239.656 73.1494 239.111 73.1494C238.15 73.1494 237.409 72.9209 236.888 72.4639C236.372 72.001 236.114 71.3594 236.114 70.5391ZM237.714 70.5742C237.714 70.9375 237.79 71.2305 237.942 71.4531C238.095 71.6699 238.306 71.8105 238.575 71.875C238.845 71.9336 239.126 71.9629 239.419 71.9629C239.87 71.9629 240.298 71.9189 240.702 71.8311C241.106 71.7432 241.522 71.5117 241.95 71.1367V68.5439C240.767 68.6318 239.923 68.7402 239.419 68.8691C238.915 68.9922 238.505 69.209 238.188 69.5195C237.872 69.8242 237.714 70.1758 237.714 70.5742ZM245.501 68.3857C245.501 67.126 245.806 66.0186 246.415 65.0635C247.024 64.1025 247.915 63.6221 249.087 63.6221C249.761 63.6221 250.3 63.7334 250.704 63.9561C251.108 64.1787 251.472 64.4834 251.794 64.8701H251.812L251.864 64.167C251.882 63.9033 251.996 63.7715 252.207 63.7715H252.945C253.209 63.7715 253.341 63.9033 253.341 64.167V73.0703C253.341 74.1953 253.08 75.0742 252.559 75.707C252.043 76.3457 251.021 76.665 249.491 76.665C248.466 76.665 247.698 76.5479 247.188 76.3135C246.679 76.085 246.315 75.8418 246.099 75.584C245.94 75.3906 245.932 75.2266 246.072 75.0918L246.556 74.6172C246.69 74.4883 246.878 74.5293 247.118 74.7402C247.429 75.0215 247.728 75.2207 248.015 75.3379C248.302 75.4609 248.797 75.5225 249.5 75.5225C250.297 75.5225 250.877 75.3525 251.24 75.0127C251.609 74.6729 251.794 73.9697 251.794 72.9033V72.376C251.794 72.1943 251.8 72.0156 251.812 71.8398H251.794C251.489 72.2441 251.129 72.5635 250.713 72.7979C250.303 73.0322 249.761 73.1494 249.087 73.1494C247.915 73.1494 247.024 72.6719 246.415 71.7168C245.806 70.7559 245.501 69.6455 245.501 68.3857ZM247.136 68.3857C247.136 69.4639 247.32 70.3369 247.689 71.0049C248.064 71.6729 248.697 72.0068 249.588 72.0068C250.221 72.0068 250.745 71.793 251.161 71.3652C251.583 70.9316 251.794 70.2754 251.794 69.3965V67.375C251.794 66.4961 251.583 65.8428 251.161 65.415C250.745 64.9814 250.221 64.7646 249.588 64.7646C248.697 64.7646 248.064 65.0986 247.689 65.7666C247.32 66.4346 247.136 67.3076 247.136 68.3857ZM261.383 64.9316C261.119 64.9316 260.987 64.8291 260.987 64.624V64.0791C260.987 63.874 261.119 63.7715 261.383 63.7715H262.323V62.7256C262.323 61.6123 262.684 60.8594 263.404 60.4668C264.131 60.0742 264.972 59.8779 265.927 59.8779C266.542 59.8779 267.049 59.9424 267.447 60.0713C267.852 60.2002 268.203 60.3672 268.502 60.5723C268.619 60.6543 268.631 60.7568 268.537 60.8799L268.08 61.5039C268.016 61.5918 267.913 61.5889 267.772 61.4951C267.591 61.3779 267.356 61.2695 267.069 61.1699C266.782 61.0703 266.431 61.0205 266.015 61.0205C265.446 61.0205 264.945 61.1201 264.512 61.3193C264.084 61.5127 263.87 62.0664 263.87 62.9805V63.7715H268.722C268.985 63.7715 269.117 63.9033 269.117 64.167V72.6045C269.117 72.8682 268.985 73 268.722 73H267.966C267.702 73 267.57 72.8682 267.57 72.6045V64.9316H263.87V72.6045C263.87 72.8682 263.738 73 263.475 73H262.719C262.455 73 262.323 72.8682 262.323 72.6045V64.9316H261.383ZM272.009 73C271.745 73 271.613 72.8682 271.613 72.6045V61.6357C271.613 61.5186 271.643 61.4072 271.701 61.3018L272.316 60.1855C272.428 59.9805 272.519 59.8779 272.589 59.8779H272.896C273.072 59.8779 273.16 59.9805 273.16 60.1855V72.6045C273.16 72.8682 273.028 73 272.765 73H272.009ZM275.155 68.3857C275.155 66.9326 275.519 65.7754 276.245 64.9141C276.972 64.0527 278.012 63.6221 279.365 63.6221C280.49 63.6221 281.422 64.0176 282.16 64.8086C282.904 65.5938 283.276 66.8506 283.276 68.5791C283.276 68.8428 283.156 68.9746 282.916 68.9746H276.79C276.89 70.1055 277.194 70.8936 277.704 71.3389C278.214 71.7783 278.791 71.998 279.436 71.998C280.115 71.998 280.637 71.8838 281 71.6553C281.363 71.4268 281.63 71.2012 281.8 70.9785C281.987 70.7324 282.169 70.6855 282.345 70.8379L282.863 71.2861C282.998 71.4033 282.998 71.5645 282.863 71.7695C282.752 71.9395 282.433 72.2119 281.905 72.5869C281.384 72.9619 280.561 73.1494 279.436 73.1494C277.971 73.1494 276.89 72.7188 276.192 71.8574C275.501 70.9961 275.155 69.8389 275.155 68.3857ZM276.755 67.832H281.721C281.697 67.0117 281.486 66.2939 281.088 65.6787C280.689 65.0576 280.104 64.7471 279.33 64.7471C278.65 64.7471 278.073 64.9756 277.599 65.4326C277.124 65.8838 276.843 66.6836 276.755 67.832ZM284.946 72.1387C284.765 71.9688 284.727 71.8105 284.832 71.6641L285.228 71.1104C285.356 70.9346 285.547 70.9434 285.799 71.1367C286.145 71.4004 286.528 71.6113 286.95 71.7695C287.378 71.9277 287.864 72.0068 288.409 72.0068C288.731 72.0068 289.019 71.9688 289.271 71.8926C289.522 71.8105 289.742 71.6611 289.93 71.4443C290.123 71.2275 290.22 70.9375 290.22 70.5742C290.22 70.3633 290.173 70.1641 290.079 69.9766C289.991 69.7891 289.851 69.6396 289.657 69.5283C289.47 69.4111 289.285 69.3203 289.104 69.2559C288.805 69.1445 288.506 69.0537 288.207 68.9834C287.914 68.9072 287.527 68.793 287.047 68.6406C286.725 68.541 286.42 68.4004 286.133 68.2188C285.846 68.0312 285.594 67.7793 285.377 67.4629C285.166 67.1465 285.061 66.71 285.061 66.1533C285.061 65.585 285.233 65.0957 285.579 64.6855C285.925 64.2754 286.358 63.9971 286.88 63.8506C287.401 63.6982 287.908 63.6221 288.4 63.6221C289.127 63.6221 289.71 63.707 290.149 63.877C290.595 64.041 290.979 64.2373 291.301 64.4658C291.488 64.6006 291.515 64.7559 291.38 64.9316L290.984 65.459C290.861 65.6289 290.671 65.623 290.413 65.4414C290.196 65.2891 289.889 65.1455 289.49 65.0107C289.092 64.876 288.743 64.8086 288.444 64.8086C288.075 64.8086 287.759 64.8496 287.495 64.9316C287.231 65.0137 287.018 65.1543 286.854 65.3535C286.689 65.5527 286.607 65.7871 286.607 66.0566C286.607 66.2617 286.64 66.4463 286.704 66.6104C286.769 66.7686 286.889 66.915 287.064 67.0498C287.24 67.1846 287.486 67.293 287.803 67.375C288.295 67.5039 288.743 67.6211 289.147 67.7266C289.558 67.832 289.927 67.9609 290.255 68.1133C290.683 68.3125 291.011 68.5322 291.239 68.7725C291.474 69.0127 291.635 69.2734 291.723 69.5547C291.811 69.8301 291.854 70.1377 291.854 70.4775C291.854 71.1045 291.667 71.6348 291.292 72.0684C290.923 72.502 290.51 72.792 290.053 72.9385C289.596 73.0791 289.045 73.1494 288.4 73.1494C287.527 73.1494 286.777 73.0264 286.15 72.7803C285.529 72.5283 285.128 72.3145 284.946 72.1387ZM299.993 73C299.729 73 299.598 72.8682 299.598 72.6045V64.167C299.598 63.9033 299.729 63.7715 299.993 63.7715H300.749C301.013 63.7715 301.145 63.9033 301.145 64.167V72.6045C301.145 72.8682 301.013 73 300.749 73H299.993ZM299.993 62.1016C299.729 62.1016 299.598 61.9697 299.598 61.7061V60.9502C299.598 60.6865 299.729 60.5547 299.993 60.5547H300.749C301.013 60.5547 301.145 60.6865 301.145 60.9502V61.7061C301.145 61.9697 301.013 62.1016 300.749 62.1016H299.993ZM304.036 73C303.772 73 303.641 72.8682 303.641 72.6045V64.167C303.641 63.9033 303.772 63.7715 304.036 63.7715H304.774C305.038 63.7715 305.17 63.9033 305.17 64.167V64.8701H305.205C305.586 64.4482 305.996 64.1348 306.436 63.9297C306.875 63.7246 307.423 63.6221 308.079 63.6221C309.146 63.6221 309.91 63.9238 310.373 64.5273C310.842 65.125 311.076 65.9453 311.076 66.9883V72.6045C311.076 72.8682 310.944 73 310.681 73H309.925C309.661 73 309.529 72.8682 309.529 72.6045V67.4102C309.529 66.2617 309.339 65.5352 308.958 65.2305C308.577 64.9199 308.094 64.7646 307.508 64.7646C306.746 64.7646 306.169 64.9932 305.776 65.4502C305.384 65.9014 305.188 66.6777 305.188 67.7793V72.6045C305.188 72.8682 305.056 73 304.792 73H304.036ZM314.451 73C314.188 73 314.056 72.8682 314.056 72.6045V71.5322C314.056 71.2686 314.188 71.1367 314.451 71.1367H315.471C315.734 71.1367 315.866 71.2686 315.866 71.5322V72.6045C315.866 73.2197 315.799 73.7559 315.664 74.2129C315.535 74.6758 315.277 75.0801 314.891 75.4258C314.762 75.5371 314.653 75.5518 314.565 75.4697L314.17 75.1006C314.082 75.0186 314.103 74.9189 314.231 74.8018C314.431 74.626 314.592 74.3711 314.715 74.0371C314.844 73.709 314.908 73.3633 314.908 73H314.451ZM29.7471 96.5391C29.7471 95.4961 30.2334 94.7314 31.2061 94.2451C32.1846 93.7588 33.6436 93.4746 35.583 93.3926V92.7949C35.583 92.2441 35.457 91.7695 35.2051 91.3711C34.959 90.9668 34.4668 90.7646 33.7285 90.7646C33.2598 90.7646 32.8848 90.8115 32.6035 90.9053C32.3223 90.9932 32.0645 91.1133 31.8301 91.2656C31.6016 91.4121 31.3818 91.6025 31.1709 91.8369C31.0127 92.0127 30.8633 92.0215 30.7227 91.8633L30.2656 91.3359C30.1367 91.1895 30.1807 91.0137 30.3975 90.8086C30.708 90.5156 31.0098 90.2959 31.3027 90.1494C31.5957 90.0029 31.959 89.8799 32.3926 89.7803C32.832 89.6748 33.2773 89.6221 33.7285 89.6221C34.9531 89.6221 35.8262 89.9385 36.3477 90.5713C36.8691 91.1982 37.1299 92.0596 37.1299 93.1553V98.6045C37.1299 98.8682 36.998 99 36.7344 99H35.9434C35.7148 99 35.6006 98.8682 35.6006 98.6045V98.1738H35.583C35.1201 98.5371 34.666 98.792 34.2207 98.9385C33.7812 99.0791 33.2891 99.1494 32.7441 99.1494C31.7832 99.1494 31.042 98.9209 30.5205 98.4639C30.0049 98.001 29.7471 97.3594 29.7471 96.5391ZM31.3467 96.5742C31.3467 96.9375 31.4229 97.2305 31.5752 97.4531C31.7275 97.6699 31.9385 97.8105 32.208 97.875C32.4775 97.9336 32.7588 97.9629 33.0518 97.9629C33.5029 97.9629 33.9307 97.9189 34.335 97.8311C34.7393 97.7432 35.1553 97.5117 35.583 97.1367V94.5439C34.3994 94.6318 33.5557 94.7402 33.0518 94.8691C32.5479 94.9922 32.1377 95.209 31.8213 95.5195C31.5049 95.8242 31.3467 96.1758 31.3467 96.5742ZM40.0303 99C39.7666 99 39.6348 98.8682 39.6348 98.6045V90.167C39.6348 89.9033 39.7666 89.7715 40.0303 89.7715H40.7686C41.0322 89.7715 41.1641 89.9033 41.1641 90.167V90.8701H41.1992C41.5801 90.4482 41.9902 90.1348 42.4297 89.9297C42.8691 89.7246 43.417 89.6221 44.0732 89.6221C45.1396 89.6221 45.9043 89.9238 46.3672 90.5273C46.8359 91.125 47.0703 91.9453 47.0703 92.9883V98.6045C47.0703 98.8682 46.9385 99 46.6748 99H45.9189C45.6553 99 45.5234 98.8682 45.5234 98.6045V93.4102C45.5234 92.2617 45.333 91.5352 44.9521 91.2305C44.5713 90.9199 44.0879 90.7646 43.502 90.7646C42.7402 90.7646 42.1631 90.9932 41.7705 91.4502C41.3779 91.9014 41.1816 92.6777 41.1816 93.7793V98.6045C41.1816 98.8682 41.0498 99 40.7861 99H40.0303ZM49.0479 94.3857C49.0479 93.126 49.3525 92.0186 49.9619 91.0635C50.5713 90.1025 51.4619 89.6221 52.6338 89.6221C53.3076 89.6221 53.8467 89.7334 54.251 89.9561C54.6553 90.1787 55.0186 90.4834 55.3408 90.8701H55.3584C55.3467 90.6943 55.3408 90.5156 55.3408 90.334V86.4229C55.3408 86.1592 55.4727 86.0273 55.7363 86.0273H56.4922C56.7559 86.0273 56.8877 86.1592 56.8877 86.4229V98.6045C56.8877 98.8682 56.7559 99 56.4922 99H55.7539C55.543 99 55.4287 98.8682 55.4111 98.6045L55.3584 97.9014H55.3408C55.0186 98.2881 54.6553 98.5928 54.251 98.8154C53.8467 99.0381 53.3076 99.1494 52.6338 99.1494C51.4619 99.1494 50.5713 98.6719 49.9619 97.7168C49.3525 96.7559 49.0479 95.6455 49.0479 94.3857ZM50.6826 94.3857C50.6826 95.4639 50.8672 96.3369 51.2363 97.0049C51.6113 97.6729 52.2441 98.0068 53.1348 98.0068C53.7676 98.0068 54.292 97.793 54.708 97.3652C55.1299 96.9316 55.3408 96.2754 55.3408 95.3965V93.375C55.3408 92.4961 55.1299 91.8428 54.708 91.415C54.292 90.9814 53.7676 90.7646 53.1348 90.7646C52.2441 90.7646 51.6113 91.0986 51.2363 91.7666C50.8672 92.4346 50.6826 93.3076 50.6826 94.3857ZM64.8857 94.3857C64.8857 93.0088 65.2256 91.8721 65.9053 90.9756C66.5908 90.0732 67.6367 89.6221 69.043 89.6221C69.9922 89.6221 70.7158 89.792 71.2139 90.1318C71.7178 90.4658 72.0811 90.8086 72.3037 91.1602C72.4268 91.3535 72.4004 91.5088 72.2246 91.626L71.6709 91.9863C71.4951 92.1094 71.3193 92.0303 71.1436 91.749C70.9736 91.4795 70.7334 91.248 70.4229 91.0547C70.1182 90.8613 69.6582 90.7646 69.043 90.7646C68.2402 90.7646 67.6191 91.0605 67.1797 91.6523C66.7402 92.2441 66.5205 93.1553 66.5205 94.3857C66.5205 95.6162 66.7402 96.5273 67.1797 97.1191C67.6191 97.7109 68.2402 98.0068 69.043 98.0068C69.6934 98.0068 70.1914 97.8838 70.5371 97.6377C70.8828 97.3857 71.1348 97.1133 71.293 96.8203C71.4453 96.5449 71.6182 96.4658 71.8115 96.583L72.4004 96.9346C72.5762 97.04 72.6025 97.1982 72.4795 97.4092C72.333 97.6611 71.999 98.0156 71.4775 98.4727C70.9619 98.9238 70.1504 99.1494 69.043 99.1494C67.6367 99.1494 66.5908 98.7012 65.9053 97.8047C65.2256 96.9023 64.8857 95.7627 64.8857 94.3857ZM74.7998 99C74.5361 99 74.4043 98.8682 74.4043 98.6045V87.6357C74.4043 87.5186 74.4336 87.4072 74.4922 87.3018L75.1074 86.1855C75.2188 85.9805 75.3096 85.8779 75.3799 85.8779H75.6875C75.8633 85.8779 75.9512 85.9805 75.9512 86.1855V98.6045C75.9512 98.8682 75.8193 99 75.5557 99H74.7998ZM78.8428 99C78.5791 99 78.4473 98.8682 78.4473 98.6045V90.167C78.4473 89.9033 78.5791 89.7715 78.8428 89.7715H79.5986C79.8623 89.7715 79.9941 89.9033 79.9941 90.167V98.6045C79.9941 98.8682 79.8623 99 79.5986 99H78.8428ZM78.8428 88.1016C78.5791 88.1016 78.4473 87.9697 78.4473 87.7061V86.9502C78.4473 86.6865 78.5791 86.5547 78.8428 86.5547H79.5986C79.8623 86.5547 79.9941 86.6865 79.9941 86.9502V87.7061C79.9941 87.9697 79.8623 88.1016 79.5986 88.1016H78.8428ZM81.9893 94.3857C81.9893 93.0088 82.3291 91.8721 83.0088 90.9756C83.6943 90.0732 84.7402 89.6221 86.1465 89.6221C87.0957 89.6221 87.8193 89.792 88.3174 90.1318C88.8213 90.4658 89.1846 90.8086 89.4072 91.1602C89.5303 91.3535 89.5039 91.5088 89.3281 91.626L88.7744 91.9863C88.5986 92.1094 88.4229 92.0303 88.2471 91.749C88.0771 91.4795 87.8369 91.248 87.5264 91.0547C87.2217 90.8613 86.7617 90.7646 86.1465 90.7646C85.3438 90.7646 84.7227 91.0605 84.2832 91.6523C83.8438 92.2441 83.624 93.1553 83.624 94.3857C83.624 95.6162 83.8438 96.5273 84.2832 97.1191C84.7227 97.7109 85.3438 98.0068 86.1465 98.0068C86.7969 98.0068 87.2949 97.8838 87.6406 97.6377C87.9863 97.3857 88.2383 97.1133 88.3965 96.8203C88.5488 96.5449 88.7217 96.4658 88.915 96.583L89.5039 96.9346C89.6797 97.04 89.7061 97.1982 89.583 97.4092C89.4365 97.6611 89.1025 98.0156 88.5811 98.4727C88.0654 98.9238 87.2539 99.1494 86.1465 99.1494C84.7402 99.1494 83.6943 98.7012 83.0088 97.8047C82.3291 96.9023 81.9893 95.7627 81.9893 94.3857ZM91.9033 99C91.6396 99 91.5078 98.8682 91.5078 98.6045V86.4229C91.5078 86.1592 91.6396 86.0273 91.9033 86.0273H92.6592C92.9229 86.0273 93.0547 86.1592 93.0547 86.4229V93.7354C93.0547 93.9111 93.0488 94.0869 93.0371 94.2627H93.0547L96.6143 90C96.7432 89.8477 96.8984 89.7715 97.0801 89.7715H97.8799C98.3252 89.7715 98.4014 89.9443 98.1084 90.29L95.3486 93.5771L98.5039 98.4814C98.7266 98.8271 98.6504 99 98.2754 99H97.4141C97.2207 99 97.0537 98.8916 96.9131 98.6748L94.3818 94.7285L93.0547 96.3105V98.6045C93.0547 98.8682 92.9229 99 92.6592 99H91.9033ZM106.722 99C106.458 99 106.326 98.8682 106.326 98.6045V86.4229C106.326 86.1592 106.458 86.0273 106.722 86.0273H107.478C107.741 86.0273 107.873 86.1592 107.873 86.4229V90.3428C107.873 90.5186 107.867 90.6943 107.855 90.8701H107.891C108.271 90.4482 108.682 90.1348 109.121 89.9297C109.561 89.7246 110.108 89.6221 110.765 89.6221C111.831 89.6221 112.596 89.9238 113.059 90.5273C113.527 91.125 113.762 91.9453 113.762 92.9883V98.6045C113.762 98.8682 113.63 99 113.366 99H112.61C112.347 99 112.215 98.8682 112.215 98.6045V93.4102C112.215 92.2617 112.024 91.5352 111.644 91.2305C111.263 90.9199 110.779 90.7646 110.193 90.7646C109.432 90.7646 108.854 90.9932 108.462 91.4502C108.069 91.9014 107.873 92.6777 107.873 93.7793V98.6045C107.873 98.8682 107.741 99 107.478 99H106.722ZM115.739 94.3857C115.739 92.9326 116.103 91.7754 116.829 90.9141C117.556 90.0527 118.596 89.6221 119.949 89.6221C121.074 89.6221 122.006 90.0176 122.744 90.8086C123.488 91.5938 123.86 92.8506 123.86 94.5791C123.86 94.8428 123.74 94.9746 123.5 94.9746H117.374C117.474 96.1055 117.778 96.8936 118.288 97.3389C118.798 97.7783 119.375 97.998 120.02 97.998C120.699 97.998 121.221 97.8838 121.584 97.6553C121.947 97.4268 122.214 97.2012 122.384 96.9785C122.571 96.7324 122.753 96.6855 122.929 96.8379L123.447 97.2861C123.582 97.4033 123.582 97.5645 123.447 97.7695C123.336 97.9395 123.017 98.2119 122.489 98.5869C121.968 98.9619 121.145 99.1494 120.02 99.1494C118.555 99.1494 117.474 98.7188 116.776 97.8574C116.085 96.9961 115.739 95.8389 115.739 94.3857ZM117.339 93.832H122.305C122.281 93.0117 122.07 92.2939 121.672 91.6787C121.273 91.0576 120.688 90.7471 119.914 90.7471C119.234 90.7471 118.657 90.9756 118.183 91.4326C117.708 91.8838 117.427 92.6836 117.339 93.832ZM126.286 99C126.022 99 125.891 98.8682 125.891 98.6045V90.167C125.891 89.9033 126.022 89.7715 126.286 89.7715H127.024C127.288 89.7715 127.42 89.9033 127.42 90.167V91.2217H127.455C127.736 90.6943 128.067 90.2959 128.448 90.0264C128.829 89.7568 129.304 89.6221 129.872 89.6221C130.247 89.6221 130.511 89.6543 130.663 89.7188C130.798 89.7715 130.848 89.8594 130.812 89.9824L130.61 90.7031C130.581 90.8086 130.505 90.8496 130.382 90.8262C130.177 90.7852 129.983 90.7646 129.802 90.7646C129.116 90.7646 128.551 91.0752 128.105 91.6963C127.66 92.3115 127.438 93.1523 127.438 94.2188V98.6045C127.438 98.8682 127.306 99 127.042 99H126.286ZM131.735 94.3857C131.735 92.9326 132.099 91.7754 132.825 90.9141C133.552 90.0527 134.592 89.6221 135.945 89.6221C137.07 89.6221 138.002 90.0176 138.74 90.8086C139.484 91.5938 139.856 92.8506 139.856 94.5791C139.856 94.8428 139.736 94.9746 139.496 94.9746H133.37C133.47 96.1055 133.774 96.8936 134.284 97.3389C134.794 97.7783 135.371 97.998 136.016 97.998C136.695 97.998 137.217 97.8838 137.58 97.6553C137.943 97.4268 138.21 97.2012 138.38 96.9785C138.567 96.7324 138.749 96.6855 138.925 96.8379L139.443 97.2861C139.578 97.4033 139.578 97.5645 139.443 97.7695C139.332 97.9395 139.013 98.2119 138.485 98.5869C137.964 98.9619 137.141 99.1494 136.016 99.1494C134.551 99.1494 133.47 98.7188 132.772 97.8574C132.081 96.9961 131.735 95.8389 131.735 94.3857ZM133.335 93.832H138.301C138.277 93.0117 138.066 92.2939 137.668 91.6787C137.27 91.0576 136.684 90.7471 135.91 90.7471C135.23 90.7471 134.653 90.9756 134.179 91.4326C133.704 91.8838 133.423 92.6836 133.335 93.832ZM147.433 90.9316C147.169 90.9316 147.037 90.8291 147.037 90.624V90.0791C147.037 89.874 147.169 89.7715 147.433 89.7715H148.47V88.9805C148.47 88.8633 148.499 88.752 148.558 88.6465L149.173 87.5303C149.284 87.3252 149.375 87.2227 149.445 87.2227H149.753C149.929 87.2227 150.017 87.3252 150.017 87.5303V89.7715H151.889C152.152 89.7715 152.284 89.874 152.284 90.0791V90.624C152.284 90.8291 152.152 90.9316 151.889 90.9316H150.017V96.5303C150.017 97.1455 150.107 97.5469 150.289 97.7344C150.477 97.916 150.699 98.0068 150.957 98.0068C151.156 98.0068 151.394 97.9482 151.669 97.8311C151.95 97.7139 152.144 97.6143 152.249 97.5322C152.354 97.4502 152.437 97.4766 152.495 97.6113L152.785 98.2881C152.832 98.4053 152.797 98.499 152.68 98.5693C152.451 98.7041 152.117 98.8359 151.678 98.9648C151.238 99.0879 150.799 99.1494 150.359 99.1494C149.75 99.1494 149.281 98.9297 148.953 98.4902C148.631 98.0508 148.47 97.4297 148.47 96.627V90.9316H147.433ZM154.042 94.3857C154.042 93.0088 154.405 91.8721 155.132 90.9756C155.864 90.0732 156.934 89.6221 158.34 89.6221C159.746 89.6221 160.812 90.0732 161.539 90.9756C162.271 91.8721 162.638 93.0088 162.638 94.3857C162.638 95.7627 162.271 96.9023 161.539 97.8047C160.812 98.7012 159.746 99.1494 158.34 99.1494C156.934 99.1494 155.864 98.7012 155.132 97.8047C154.405 96.9023 154.042 95.7627 154.042 94.3857ZM155.677 94.3857C155.677 95.6162 155.92 96.5273 156.406 97.1191C156.893 97.7109 157.537 98.0068 158.34 98.0068C159.143 98.0068 159.787 97.7109 160.273 97.1191C160.76 96.5273 161.003 95.6162 161.003 94.3857C161.003 93.1553 160.76 92.2441 160.273 91.6523C159.787 91.0605 159.143 90.7646 158.34 90.7646C157.537 90.7646 156.893 91.0605 156.406 91.6523C155.92 92.2441 155.677 93.1553 155.677 94.3857ZM171.022 102.516C170.759 102.516 170.627 102.384 170.627 102.12V90.167C170.627 89.9033 170.759 89.7715 171.022 89.7715H171.761C171.972 89.7715 172.086 89.9033 172.104 90.167L172.156 90.8701H172.174C172.496 90.4834 172.859 90.1787 173.264 89.9561C173.668 89.7334 174.207 89.6221 174.881 89.6221C176.053 89.6221 176.943 90.1025 177.553 91.0635C178.162 92.0186 178.467 93.126 178.467 94.3857C178.467 95.6455 178.162 96.7559 177.553 97.7168C176.943 98.6719 176.053 99.1494 174.881 99.1494C174.207 99.1494 173.668 99.0381 173.264 98.8154C172.859 98.5928 172.496 98.2881 172.174 97.9014H172.156C172.168 98.0771 172.174 98.2559 172.174 98.4375V102.12C172.174 102.384 172.042 102.516 171.778 102.516H171.022ZM172.174 95.3965C172.174 96.2754 172.382 96.9316 172.798 97.3652C173.22 97.793 173.747 98.0068 174.38 98.0068C175.271 98.0068 175.9 97.6729 176.27 97.0049C176.645 96.3369 176.832 95.4639 176.832 94.3857C176.832 93.3076 176.645 92.4346 176.27 91.7666C175.9 91.0986 175.271 90.7646 174.38 90.7646C173.747 90.7646 173.22 90.9814 172.798 91.415C172.382 91.8428 172.174 92.4961 172.174 93.375V95.3965ZM179.97 94.3857C179.97 93.0088 180.333 91.8721 181.06 90.9756C181.792 90.0732 182.861 89.6221 184.268 89.6221C185.674 89.6221 186.74 90.0732 187.467 90.9756C188.199 91.8721 188.565 93.0088 188.565 94.3857C188.565 95.7627 188.199 96.9023 187.467 97.8047C186.74 98.7012 185.674 99.1494 184.268 99.1494C182.861 99.1494 181.792 98.7012 181.06 97.8047C180.333 96.9023 179.97 95.7627 179.97 94.3857ZM181.604 94.3857C181.604 95.6162 181.848 96.5273 182.334 97.1191C182.82 97.7109 183.465 98.0068 184.268 98.0068C185.07 98.0068 185.715 97.7109 186.201 97.1191C186.688 96.5273 186.931 95.6162 186.931 94.3857C186.931 93.1553 186.688 92.2441 186.201 91.6523C185.715 91.0605 185.07 90.7646 184.268 90.7646C183.465 90.7646 182.82 91.0605 182.334 91.6523C181.848 92.2441 181.604 93.1553 181.604 94.3857ZM190.2 98.1387C190.019 97.9688 189.98 97.8105 190.086 97.6641L190.481 97.1104C190.61 96.9346 190.801 96.9434 191.053 97.1367C191.398 97.4004 191.782 97.6113 192.204 97.7695C192.632 97.9277 193.118 98.0068 193.663 98.0068C193.985 98.0068 194.272 97.9688 194.524 97.8926C194.776 97.8105 194.996 97.6611 195.184 97.4443C195.377 97.2275 195.474 96.9375 195.474 96.5742C195.474 96.3633 195.427 96.1641 195.333 95.9766C195.245 95.7891 195.104 95.6396 194.911 95.5283C194.724 95.4111 194.539 95.3203 194.357 95.2559C194.059 95.1445 193.76 95.0537 193.461 94.9834C193.168 94.9072 192.781 94.793 192.301 94.6406C191.979 94.541 191.674 94.4004 191.387 94.2188C191.1 94.0312 190.848 93.7793 190.631 93.4629C190.42 93.1465 190.314 92.71 190.314 92.1533C190.314 91.585 190.487 91.0957 190.833 90.6855C191.179 90.2754 191.612 89.9971 192.134 89.8506C192.655 89.6982 193.162 89.6221 193.654 89.6221C194.381 89.6221 194.964 89.707 195.403 89.877C195.849 90.041 196.232 90.2373 196.555 90.4658C196.742 90.6006 196.769 90.7559 196.634 90.9316L196.238 91.459C196.115 91.6289 195.925 91.623 195.667 91.4414C195.45 91.2891 195.143 91.1455 194.744 91.0107C194.346 90.876 193.997 90.8086 193.698 90.8086C193.329 90.8086 193.013 90.8496 192.749 90.9316C192.485 91.0137 192.271 91.1543 192.107 91.3535C191.943 91.5527 191.861 91.7871 191.861 92.0566C191.861 92.2617 191.894 92.4463 191.958 92.6104C192.022 92.7686 192.143 92.915 192.318 93.0498C192.494 93.1846 192.74 93.293 193.057 93.375C193.549 93.5039 193.997 93.6211 194.401 93.7266C194.812 93.832 195.181 93.9609 195.509 94.1133C195.937 94.3125 196.265 94.5322 196.493 94.7725C196.728 95.0127 196.889 95.2734 196.977 95.5547C197.064 95.8301 197.108 96.1377 197.108 96.4775C197.108 97.1045 196.921 97.6348 196.546 98.0684C196.177 98.502 195.764 98.792 195.307 98.9385C194.85 99.0791 194.299 99.1494 193.654 99.1494C192.781 99.1494 192.031 99.0264 191.404 98.7803C190.783 98.5283 190.382 98.3145 190.2 98.1387ZM198.409 90.9316C198.146 90.9316 198.014 90.8291 198.014 90.624V90.0791C198.014 89.874 198.146 89.7715 198.409 89.7715H199.446V88.9805C199.446 88.8633 199.476 88.752 199.534 88.6465L200.149 87.5303C200.261 87.3252 200.352 87.2227 200.422 87.2227H200.729C200.905 87.2227 200.993 87.3252 200.993 87.5303V89.7715H202.865C203.129 89.7715 203.261 89.874 203.261 90.0791V90.624C203.261 90.8291 203.129 90.9316 202.865 90.9316H200.993V96.5303C200.993 97.1455 201.084 97.5469 201.266 97.7344C201.453 97.916 201.676 98.0068 201.934 98.0068C202.133 98.0068 202.37 97.9482 202.646 97.8311C202.927 97.7139 203.12 97.6143 203.226 97.5322C203.331 97.4502 203.413 97.4766 203.472 97.6113L203.762 98.2881C203.809 98.4053 203.773 98.499 203.656 98.5693C203.428 98.7041 203.094 98.8359 202.654 98.9648C202.215 99.0879 201.775 99.1494 201.336 99.1494C200.727 99.1494 200.258 98.9297 199.93 98.4902C199.607 98.0508 199.446 97.4297 199.446 96.627V90.9316H198.409ZM206.416 99C206.152 99 206.021 98.8682 206.021 98.6045V97.5322C206.021 97.2686 206.152 97.1367 206.416 97.1367H207.4C207.664 97.1367 207.796 97.2686 207.796 97.5322V98.6045C207.796 98.8682 207.664 99 207.4 99H206.416Z" fill="black"/>
<defs>
<filter id="filter0_d_249_960" x="364" y="0" width="163" height="163" filterUnits="userSpaceOnUse" color-interpolation-filters="sRGB">
<feFlood flood-opacity="0" result="BackgroundImageFix"/>
<feColorMatrix in="SourceAlpha" type="matrix" values="0 0 0 0 0 0 0 0 0 0 0 0 0 0 0 0 0 0 127 0" result="hardAlpha"/>
<feOffset dy="4"/>
<feGaussianBlur stdDeviation="2"/>
<feComposite in2="hardAlpha" operator="out"/>
<feColorMatrix type="matrix" values="0 0 0 0 0 0 0 0 0 0 0 0 0 0 0 0 0 0 0.25 0"/>
<feBlend mode="normal" in2="BackgroundImageFix" result="effect1_dropShadow_249_960"/>
<feBlend mode="normal" in="SourceGraphic" in2="effect1_dropShadow_249_960" result="shape"/>
</filter>
<filter id="filter1_d_249_960" x="396" y="32" width="99" height="99" filterUnits="userSpaceOnUse" color-interpolation-filters="sRGB">
<feFlood flood-opacity="0" result="BackgroundImageFix"/>
<feColorMatrix in="SourceAlpha" type="matrix" values="0 0 0 0 0 0 0 0 0 0 0 0 0 0 0 0 0 0 127 0" result="hardAlpha"/>
<feOffset dy="4"/>
<feGaussianBlur stdDeviation="2"/>
<feComposite in2="hardAlpha" operator="out"/>
<feColorMatrix type="matrix" values="0 0 0 0 0 0 0 0 0 0 0 0 0 0 0 0 0 0 0.25 0"/>
<feBlend mode="normal" in2="BackgroundImageFix" result="effect1_dropShadow_249_960"/>
<feBlend mode="normal" in="SourceGraphic" in2="effect1_dropShadow_249_960" result="shape"/>
</filter>
<filter id="filter2_d_249_960" x="0" y="42" width="357" height="84" filterUnits="userSpaceOnUse" color-interpolation-filters="sRGB">
<feFlood flood-opacity="0" result="BackgroundImageFix"/>
<feColorMatrix in="SourceAlpha" type="matrix" values="0 0 0 0 0 0 0 0 0 0 0 0 0 0 0 0 0 0 127 0" result="hardAlpha"/>
<feOffset dy="4"/>
<feGaussianBlur stdDeviation="2"/>
<feComposite in2="hardAlpha" operator="out"/>
<feColorMatrix type="matrix" values="0 0 0 0 0 0 0 0 0 0 0 0 0 0 0 0 0 0 0.25 0"/>
<feBlend mode="normal" in2="BackgroundImageFix" result="effect1_dropShadow_249_960"/>
<feBlend mode="normal" in="SourceGraphic" in2="effect1_dropShadow_249_960" result="shape"/>
</filter>
</defs>
</svg>
