<svg width="33" height="36" viewBox="0 0 33 36" fill="none" xmlns="http://www.w3.org/2000/svg">
<path d="M28 34.5H5C4.17157 34.5 3.5 33.8284 3.5 33V18V3C3.5 2.17157 4.17157 1.5 5 1.5H17.2574C17.6552 1.5 18.0367 1.65804 18.318 1.93934L19.3787 0.87868L18.318 1.93934L29.0607 12.682C29.342 12.9633 29.5 13.3448 29.5 13.7426V33C29.5 33.8284 28.8284 34.5 28 34.5Z" stroke="#5B2813" stroke-width="3"/>
<path d="M18 2V12C18 12.6667 18.4174 14 20.087 14C21.7565 14 27.3913 14 30 14" stroke="#5B2813" stroke-width="2"/>
<rect x="3" y="19" width="27" height="9" fill="#FFD2BF"/>
<mask id="path-4-inside-1_397_1846" fill="white">
<rect y="16" width="33" height="15" rx="2"/>
</mask>
<rect y="16" width="33" height="15" rx="2" stroke="#5B2813" stroke-width="6" mask="url(#path-4-inside-1_397_1846)"/>
<path d="M7.6323 27V19.7273H10.5016C11.0532 19.7273 11.5232 19.8326 11.9114 20.0433C12.2997 20.2517 12.5956 20.5417 12.7992 20.9134C13.0052 21.2827 13.1082 21.7088 13.1082 22.1918C13.1082 22.6747 13.004 23.1009 12.7957 23.4702C12.5873 23.8395 12.2855 24.1271 11.8901 24.3331C11.4971 24.5391 11.0213 24.642 10.4626 24.642H8.63372V23.4098H10.214C10.5099 23.4098 10.7537 23.3589 10.9455 23.2571C11.1396 23.1529 11.284 23.0097 11.3787 22.8274C11.4758 22.6428 11.5243 22.4309 11.5243 22.1918C11.5243 21.9503 11.4758 21.7396 11.3787 21.5597C11.284 21.3774 11.1396 21.2365 10.9455 21.1371C10.7514 21.0353 10.5052 20.9844 10.2069 20.9844H9.16994V27H7.6323ZM16.885 27H14.3069V19.7273H16.9063C17.6379 19.7273 18.2676 19.8729 18.7955 20.1641C19.3235 20.4529 19.7295 20.8684 20.0136 21.4105C20.3 21.9527 20.4433 22.6013 20.4433 23.3565C20.4433 24.1141 20.3 24.7652 20.0136 25.3097C19.7295 25.8542 19.3211 26.272 18.7884 26.5632C18.2581 26.8544 17.6237 27 16.885 27ZM15.8445 25.6825H16.8211C17.2757 25.6825 17.658 25.602 17.9681 25.4411C18.2806 25.2777 18.515 25.0256 18.6713 24.6847C18.8299 24.3414 18.9092 23.8987 18.9092 23.3565C18.9092 22.8191 18.8299 22.38 18.6713 22.0391C18.515 21.6982 18.2818 21.4472 17.9717 21.2862C17.6615 21.1252 17.2792 21.0447 16.8247 21.0447H15.8445V25.6825ZM21.7823 27V19.7273H26.5976V20.995H23.3199V22.728H26.278V23.9957H23.3199V27H21.7823Z" fill="#5B2813"/>
</svg>
