<svg width="285" height="286" viewBox="0 0 285 286" fill="none" xmlns="http://www.w3.org/2000/svg">
<path d="M200.5 8.00001L168 40.5L247.5 120C253.333 112.667 267.9 97.6 279.5 86C287 78.5 287 64 276.5 53.5L230.5 7.49997C218.1 -4.90003 205.5 2.83335 200.5 8.00001Z" fill="#757575"/>
<path d="M168 40.5L156.5 52L236 131.5L247.5 120L168 40.5Z" fill="white"/>
<path d="M0.5 207.5L156.5 52L236 131.5L81.5 286H0.5V207.5Z" fill="#757575"/>
<path d="M161 90L61 190" stroke="white" stroke-width="8" stroke-linecap="round"/>
<path d="M84.5 244.5L42 202L24.5 216.5V237.5H49V261H68.5L84.5 244.5Z" fill="white"/>
</svg>
