<svg width="35" height="39" viewBox="0 0 35 39" fill="none" xmlns="http://www.w3.org/2000/svg">
<g clip-path="url(#clip0_638_2021)">
<path d="M2 17.5C2 15.61 2 14.67 2.59 14.09C3.18 13.5 4.12 13.5 6 13.5H28.67C30.56 13.5 31.5 13.5 32.08 14.09C32.67 14.68 32.67 15.62 32.67 17.5V30.5C32.67 33.33 32.67 34.74 31.79 35.62C30.91 36.5 29.5 36.5 26.67 36.5H8C5.17 36.5 3.76 36.5 2.88 35.62C2 34.74 2 33.33 2 30.5V17.5Z" stroke="#006B62" stroke-width="4"/>
<path d="M24.9997 11.58V9.66C24.9997 7.17 24.9997 5.93 24.5697 4.96C24.0697 3.83 23.1597 2.93 22.0397 2.43C21.0697 2 19.8297 2 17.3397 2C14.8497 2 13.6097 2 12.6397 2.43C11.5097 2.93 10.6097 3.84 10.1097 4.96C9.67969 5.93 9.67969 7.17 9.67969 9.66V11.58" stroke="#006B62" stroke-width="4" stroke-linecap="round"/>
<path d="M17.33 28.8299C19.4453 28.8299 21.16 27.1152 21.16 24.9999C21.16 22.8847 19.4453 21.1699 17.33 21.1699C15.2147 21.1699 13.5 22.8847 13.5 24.9999C13.5 27.1152 15.2147 28.8299 17.33 28.8299Z" fill="#006B62"/>
</g>
<defs>
<clipPath id="clip0_638_2021">
<rect width="34.67" height="38.5" fill="white"/>
</clipPath>
</defs>
</svg>
