<?xml version="1.0" encoding="UTF-8"?>
<svg id="Layer_1" data-name="Layer 1" xmlns="http://www.w3.org/2000/svg" xmlns:xlink="http://www.w3.org/1999/xlink" viewBox="0 0 39.44 39.45">
  <defs>
    <style>
      .cls-1, .cls-2 {
        fill: none;
      }

      .cls-3 {
        clip-path: url(#clippath);
      }

      .cls-4 {
        fill: #006b62;
        stroke-width: .25px;
      }

      .cls-4, .cls-2 {
        stroke: #006b62;
        stroke-miterlimit: 10;
      }

      .cls-2 {
        stroke-width: 2px;
      }
    </style>
    <clipPath id="clippath">
      <rect class="cls-1" x=".22" y=".22" width="39" height="39"/>
    </clipPath>
  </defs>
  <g class="cls-3">
    <g>
      <path class="cls-2" d="M19.72,38.45c10.34,0,18.72-8.38,18.72-18.72S30.06,1,19.72,1,1,9.38,1,19.72s8.38,18.72,18.72,18.72Z"/>
      <path class="cls-4" d="M9.97,4.55s.89,1.35,.32,1.94c0,0-.4,.5,0,.74,.4,.24,.63,1.3,.44,1.58,0,0-.12,.3-.37,.04-.26-.26-.86,.11-.86,.11,0,0-.3,.24-1.07,.25-.77,0-.65,1.23-.65,1.23,0,0,.12,1-.72,1.02-.84,.02-1.71,.05-1.92,.53-.21,.48-.25,.61-.97,.86-.72,.25-1.2,.34-1.65,1.03,0,0,.84-3.77,1.35-4.3,.51-.53,5.5-5.01,5.5-5.01h.61Z"/>
      <path class="cls-4" d="M1.66,20.61s.26,1.74,1.05,1.78c.79,.04,1.36,0,1.27,1.48,0,0,.06,.29,.47,.4,.41,.11,.61,.79,.61,.79,0,0,.29,.45,1.11,0,0,0,.74-.25,1.8,1.13,0,0,.37,.86,0,3.41,0,0,.86,.93,0,1.72,0,0-.93,1.1-.09,1.51,0,0,.74,.26,.07,1.24,0,0-5.4-4.95-5.68-7.57-.28-2.61-1.22-5.46-1.22-5.46l.61-.44h0Z"/>
      <path class="cls-4" d="M37.25,25.19s-.65-.35-.84,.58c-.19,.93-1.28-1.43-1.4,3.02,0,0-.25,.74-.5,.79-.25,.05-.77,.5-.9,.68-.13,.19-.66,.11-.93,.22-.27,.11-.36,.47-.3,.82,.05,.36-.63,.11-.52,1.95,.11,1.84,2.55-2.19,2.55-2.19l2.67-4.28,.18-1.59Z"/>
      <path class="cls-4" d="M36.62,12.33l-1.48-3.23-6.15-5.64-3.38-.8s2.78,1.68,2.88,2.01c0,0-.75,1.28-2.63,.94,0,0-1.64-.46-1.28-1.62,0,0-.22-.41-1.27-.02-1.06,.4-1.08,.81-1.78,.68-.7-.12-.97-.4-.97-.4,0,0-.33-.49-1.69,1.22,0,0-.16,.48,0,1.12,.16,.64-.23,1.28-.23,1.28,0,0-.81,1.39-.7,1.62,.11,.23-1.27-.98-1.27-.98,0,0-.16-1.3-.66-1.4-.5-.09-1.73,1.27-1.73,1.27,0,0-.47,.48-.42,1.34,0,0-.08,.23,.72-.05,0,0,.15-.1,.57,.39,0,0,.23,.27,.59,.22,.37-.05-.23,.61-.23,.61,0,0-.16,.47-1.01,.46-.86,0-.8-.41-.87,.53-.07,.94-.15,1.54-.15,1.54,0,0-.28,.22,.82,.33,1.11,.1-.47,1.54-1.07,1.13,0,0-.23-.29-.57,1.03,0,0-.75,.44-.81,.89-.06,.46-.23,1.09-.23,1.09,0,0-.69,.26-.26,1.66,0,0-.23,.61,.05,1.29,0,0-.09,.63-.36,.68,0,0-.2,.38,.37,.86,.58,.48,2.15,.96,3.06,.95,.9-.02,1.4,0,2.16-.28,0,0,1.03-.57,2.01,2.43,0,0,.6,1.14,1.07,1.26,.48,.13,.75,2,.43,3.2,0,0-.23,.12,.3,1.06,0,0,.19,.54,.19,1.17s.79,2.49,1.69,2.4c0,0,.3-.9,1.03-1,.72-.09,1.57,.32,2.88-1.82,0,0,.79-1.01,.65-1.68,0,0,.54,.75,.58,1.1,.02,.34,1.06,.37,1.26,.37,0,0,.04-.56,.77-.55,.74,.02,.42-.67,.5-1.09,.07-.42,.36-1.19,.36-1.19,0,0,.31-.62-.92-.27-1.23,.35-1.5-.89-1.25-1.72,.25-.83,.61-.75,.61-.75,0,0,.75-.12,1.05-1.14,.3-1.03,.96-.77,1.49-1.46,.52-.69,.32-.84,.1-1.08-.23-.23,.96-1.06-.57-1.34-1.54-.27-2.23,.49-2.83-1.3,0,0-.68-.85-.59-2.04,.06-.87,.07-1,.07-1,0-.05,.11-.51,.33,.96,.24,1.55,1.24,1.49,1.62,2.29,.37,.82,.14,.55,.69,.43,.55-.13,1.56,.16,2.25-.82,.7-.98,.52-1.28,.52-1.56s.33-1.12,.65-.71c.33,.41,1.31,.03,1.58,.44,.26,.41,.54,.72,.49,1.74-.04,1.03-.2,1.09,.16,1.38,.36,.29,.58,.38,.58,.65s-.26,.56,.26,.85c0,0,.34,.04,.49-.63,.15-.68-.2-1.06-.2-1.06,0,0,.39-.77,.24-.92-.15-.16-.3-.16,.03-.44l.33-.27,.29-.02,.43-2.54-1.66-4.03Zm-15.74-6.27l1.56,.79s.04,1.07-1.39,.99l-.17-.12s-.82,.44-1.38,.33c0,0,2.11-.6,1.38-2h0Zm4.92,9.83s-1.06,.54-1.81-1.25c-.75-1.8-2.54,2.13-4.51-1.45,0,0-1.94,.12-2.18-.54l.37-.5,.89,.02s.48,.02,.57-.17c.08-.19,.6-.32,.75,0,0,0,.95,.21,1.14,.82,0,0,.03,.26,.54,.16,.51-.09,.8,.21,.8,.21,0,0,1.19,.32,1.25,.32s1.25,.18,1.25,.18c0,0,1.3,.19,1.52,.85,.23,.66-.59,1.35-.59,1.35Zm1.26-8.54s.82-.88,.65-1.28c0,0,.69-.2,.86-.39,.16-.19,.53-.35,1.1,0,.57,.35,1.02,.71,1.02,.71,0,0-2.5-.26-3.63,.96h0Z"/>
    </g>
  </g>
</svg>