<svg width="49" height="51" viewBox="0 0 49 51" fill="none" xmlns="http://www.w3.org/2000/svg">
<rect width="49" height="51" rx="20" fill="#DC5E29"/>
<path d="M27.6702 14.2018L26.6751 14.3013L26.6751 14.3013L27.6702 14.2018ZM27.3238 12.8153L26.595 13.5L26.595 13.5L27.3238 12.8153ZM28.3408 16.6249L28.8303 15.7529L28.8303 15.7529L28.3408 16.6249ZM28.5598 16.7156L28.2893 17.6783L28.2893 17.6783L28.5598 16.7156ZM30.7473 15.4764L30.1141 14.7025L30.1141 14.7025L30.7473 15.4764ZM31.9726 14.7409L32.0038 15.7404L32.0038 15.7404L31.9726 14.7409ZM32.1343 14.749L32.2648 13.7575L32.2648 13.7575L32.1343 14.749ZM33.2804 15.6027L32.5733 16.3099L32.5733 16.3099L33.2804 15.6027ZM34.3972 16.7196L33.6901 17.4267L33.6901 17.4267L34.3972 16.7196ZM35.251 17.8656L36.2424 17.7352L36.2424 17.7351L35.251 17.8656ZM35.259 18.0273L36.2585 18.0585L36.2585 18.0585L35.259 18.0273ZM34.5235 19.2526L33.7496 18.6194L34.5235 19.2526ZM33.2843 21.4402L32.3216 21.7107L32.3216 21.7107L33.2843 21.4402ZM33.375 21.6592L34.2471 21.1697L34.2471 21.1697L33.375 21.6592ZM35.7982 22.3298L35.6987 23.3249L35.6987 23.3249L35.7982 22.3298ZM37.1847 22.6762L36.5 23.405L36.5 23.405L37.1847 22.6762ZM37.2933 22.7962L36.5 23.405L36.5 23.405L37.2933 22.7962ZM37.2934 27.2037L36.5 26.595L36.5 26.595L37.2934 27.2037ZM37.1846 27.3239L37.8693 28.0528L37.8693 28.0528L37.1846 27.3239ZM35.7983 27.6702L35.8978 28.6652L35.8978 28.6652L35.7983 27.6702ZM33.3756 28.3405L32.5038 27.8508L32.5038 27.8508L33.3756 28.3405ZM33.2847 28.56L34.2475 28.8302L34.2475 28.8302L33.2847 28.56ZM34.5237 30.747L35.3558 30.1923L35.3287 30.1516L35.2977 30.1137L34.5237 30.747ZM34.5237 30.747L33.6917 31.3017L33.7188 31.3424L33.7498 31.3802L34.5237 30.747ZM35.2591 31.972L36.2586 31.9406L36.2586 31.9406L35.2591 31.972ZM35.251 32.134L36.2424 32.2646L36.2424 32.2646L35.251 32.134ZM32.1344 35.2505L32.2649 36.2419L32.2649 36.2419L32.1344 35.2505ZM31.9727 35.2585L31.9415 36.258L31.9415 36.258L31.9727 35.2585ZM30.7474 34.523L30.1142 35.297L30.1142 35.297L30.7474 34.523ZM28.5599 33.2839L28.2894 32.3211L28.2894 32.3211L28.5599 33.2839ZM28.3408 33.3746L28.8303 34.2466L28.8303 34.2466L28.3408 33.3746ZM27.6702 35.7979L26.6752 35.6984L26.6752 35.6984L27.6702 35.7979ZM27.3237 37.1848L26.595 36.5L26.595 36.5L27.3237 37.1848ZM27.2039 37.2932L26.595 36.5L26.595 36.5L27.2039 37.2932ZM22.7962 37.2933L23.405 36.5L23.405 36.5L22.7962 37.2933ZM22.6762 37.1847L23.405 36.5L23.405 36.5L22.6762 37.1847ZM22.3298 35.7982L21.3348 35.8977L21.3348 35.8977L22.3298 35.7982ZM21.6592 33.3751L21.1697 34.2471L21.1697 34.2471L21.6592 33.3751ZM21.4402 33.2844L21.1697 34.2471L21.1697 34.2471L21.4402 33.2844ZM19.2526 34.5236L19.8858 35.2975L19.8858 35.2975L19.2526 34.5236ZM18.0272 35.2591L17.9961 34.2596L17.9961 34.2596L18.0272 35.2591ZM17.8656 35.251L17.7351 36.2425L17.7351 36.2425L17.8656 35.251ZM16.7195 34.3972L17.4266 33.6901L17.4266 33.6901L16.7195 34.3972ZM15.6027 33.2804L14.8956 33.9875L14.8956 33.9875L15.6027 33.2804ZM14.7489 32.1344L15.7404 32.0039L15.7404 32.0039L14.7489 32.1344ZM14.7409 31.9727L13.7413 31.9415L13.7413 31.9415L14.7409 31.9727ZM15.4764 30.7474L14.7024 30.1141L14.7024 30.1141L15.4764 30.7474ZM16.7156 28.5598L17.6783 28.2893L17.6783 28.2893L16.7156 28.5598ZM16.6249 28.3408L17.4969 27.8513L17.4969 27.8513L16.6249 28.3408ZM14.2018 27.6702L14.1023 28.6652L14.1023 28.6652L14.2018 27.6702ZM12.8153 27.3238L13.5 26.595L13.5 26.595L12.8153 27.3238ZM12.7067 27.2038L13.5 26.595L13.5 26.595L12.7067 27.2038ZM12.7067 22.7961L13.5 23.405L13.5 23.405L12.7067 22.7961ZM12.8152 22.6763L13.5 23.405L13.5 23.405L12.8152 22.6763ZM14.2019 22.3298L14.1024 21.3348L14.1024 21.3348L14.2019 22.3298ZM16.6254 21.659L17.4975 22.1483L17.4975 22.1483L16.6254 21.659ZM16.716 21.4403L15.7533 21.1697L15.7533 21.1697L16.716 21.4403ZM15.4766 19.2523L16.2506 18.619L16.2506 18.619L15.4766 19.2523ZM14.7409 18.0266L15.7404 17.9956L15.7404 17.9956L14.7409 18.0266ZM14.749 17.8652L13.7575 17.7349L13.7575 17.7349L14.749 17.8652ZM15.6029 16.7189L14.8958 16.0118L14.8958 16.0118L15.6029 16.7189ZM16.7196 15.6022L17.4267 16.3093L17.4267 16.3093L16.7196 15.6022ZM17.8657 14.7484L17.7352 13.757L17.7352 13.757L17.8657 14.7484ZM18.0273 14.7404L17.9961 15.7399L17.9961 15.7399L18.0273 14.7404ZM19.2527 15.476L19.886 14.702L19.886 14.702L19.2527 15.476ZM21.4401 16.7151L21.1698 15.7524L21.1698 15.7524L21.4401 16.7151ZM21.6594 16.6243L22.1491 17.4962L22.1491 17.4962L21.6594 16.6243ZM22.3298 14.2016L23.3249 14.3011L23.3298 14.2515V14.2016H22.3298ZM22.3298 14.2016L21.3348 14.1021L21.3298 14.1517V14.2016H22.3298ZM22.6761 12.8154L23.405 13.5L23.405 13.5L22.6761 12.8154ZM22.7963 12.7066L23.405 13.5L23.405 13.5L22.7963 12.7066ZM27.2038 12.7067L26.595 13.5L26.595 13.5L27.2038 12.7067ZM28.6652 14.1023C28.6296 13.7461 28.5959 13.394 28.5328 13.1039C28.4648 12.7914 28.3414 12.4379 28.0526 12.1306L26.595 13.5C26.5387 13.4401 26.5505 13.4001 26.5786 13.5292C26.6115 13.6807 26.6348 13.8981 26.6751 14.3013L28.6652 14.1023ZM28.8303 15.7529C28.9804 15.8371 28.9377 15.9474 28.8628 15.6301C28.7888 15.3171 28.7405 14.8549 28.6652 14.1023L26.6751 14.3013C26.7444 14.9942 26.8045 15.6163 26.9163 16.0897C27.0271 16.5588 27.2474 17.1579 27.8513 17.4969L28.8303 15.7529ZM28.8303 15.7529L28.8303 15.7529L27.8513 17.4969C27.9896 17.5745 28.1366 17.6354 28.2893 17.6783L28.8303 15.7529ZM30.1141 14.7025C29.5287 15.1814 29.1677 15.474 28.8941 15.6431C28.6167 15.8145 28.6645 15.7063 28.8303 15.7529L28.2893 17.6783C28.956 17.8656 29.5354 17.5978 29.9455 17.3444C30.3593 17.0887 30.8416 16.6913 31.3806 16.2504L30.1141 14.7025ZM31.9414 13.7414C31.52 13.7546 31.1827 13.9172 30.9137 14.0901C30.6639 14.2506 30.3912 14.4758 30.1141 14.7025L31.3806 16.2504C31.6942 15.9938 31.8644 15.8565 31.9948 15.7727C32.1059 15.7013 32.086 15.7379 32.0038 15.7404L31.9414 13.7414ZM32.2648 13.7575C32.1576 13.7434 32.0495 13.738 31.9414 13.7414L32.0038 15.7404L32.0038 15.7404L32.2648 13.7575ZM33.9875 14.8956C33.7343 14.6425 33.4853 14.3913 33.2528 14.2068C33.0023 14.008 32.6829 13.8126 32.2648 13.7575L32.0038 15.7404C31.9223 15.7297 31.9061 15.6914 32.0096 15.7734C32.131 15.8698 32.2867 16.0233 32.5733 16.3099L33.9875 14.8956ZM35.1043 16.0125L33.9875 14.8956L32.5733 16.3099L33.6901 17.4267L35.1043 16.0125ZM36.2424 17.7351C36.1874 17.3171 35.992 16.9977 35.7932 16.7471C35.6087 16.5146 35.3574 16.2656 35.1043 16.0125L33.6901 17.4267C33.9766 17.7132 34.1301 17.8689 34.2265 17.9904C34.3086 18.0938 34.2702 18.0776 34.2595 17.9961L36.2424 17.7351ZM36.2585 18.0585C36.2619 17.9504 36.2565 17.8423 36.2424 17.7352L34.2595 17.9961L34.2595 17.9961L36.2585 18.0585ZM35.2975 19.8859C35.5242 19.6088 35.7494 19.336 35.9098 19.0863C36.0827 18.8172 36.2454 18.48 36.2585 18.0585L34.2595 17.9961C34.2621 17.914 34.2986 17.894 34.2273 18.0051C34.1434 18.1356 34.0062 18.3058 33.7496 18.6194L35.2975 19.8859ZM34.2471 21.1697C34.2936 21.3355 34.1854 21.3833 34.3569 21.1059C34.5259 20.8323 34.8185 20.4713 35.2975 19.8859L33.7496 18.6194C33.3086 19.1584 32.9112 19.6407 32.6555 20.0545C32.4021 20.4646 32.1343 21.044 32.3216 21.7107L34.2471 21.1697ZM34.2471 21.1697L34.2471 21.1697L32.3216 21.7107C32.3645 21.8634 32.4254 22.0104 32.503 22.1487L34.2471 21.1697ZM35.8977 21.3348C35.145 21.2595 34.6829 21.2111 34.3699 21.1372C34.0525 21.0623 34.1628 21.0196 34.2471 21.1697L32.503 22.1487C32.842 22.7526 33.4411 22.9729 33.9102 23.0837C34.3837 23.1955 35.0057 23.2556 35.6987 23.3249L35.8977 21.3348ZM37.8694 21.9474C37.5621 21.6586 37.2086 21.5352 36.8961 21.4672C36.606 21.4041 36.2539 21.3704 35.8977 21.3348L35.6987 23.3249C36.1019 23.3652 36.3193 23.3885 36.4708 23.4214C36.5999 23.4495 36.5599 23.4613 36.5 23.405L37.8694 21.9474ZM38.0866 22.1874C38.0209 22.1016 37.9482 22.0214 37.8694 21.9474L36.5 23.405L36.5 23.405L38.0866 22.1874ZM38.5 24.2103C38.5 23.8523 38.5015 23.4986 38.4676 23.2037C38.431 22.8859 38.3434 22.5219 38.0866 22.1874L36.5 23.405C36.45 23.3398 36.4656 23.3012 36.4807 23.4324C36.4985 23.5864 36.5 23.8051 36.5 24.2103H38.5ZM38.5 25.7899V24.2103H36.5V25.7899H38.5ZM38.0868 27.8124C38.3434 27.4779 38.4311 27.1139 38.4676 26.7963C38.5015 26.5014 38.5 26.1478 38.5 25.7899H36.5C36.5 26.195 36.4985 26.4136 36.4807 26.5676C36.4656 26.6988 36.45 26.6602 36.5 26.595L38.0868 27.8124ZM37.8693 28.0528C37.9481 27.9787 38.0209 27.8983 38.0868 27.8124L36.5 26.595L36.5 26.595L37.8693 28.0528ZM35.8978 28.6652C36.254 28.6296 36.606 28.5959 36.896 28.5328C37.2085 28.4649 37.5619 28.3414 37.8693 28.0528L36.5 26.595C36.5599 26.5387 36.5998 26.5505 36.4708 26.5786C36.3193 26.6115 36.1019 26.6348 35.6988 26.6751L35.8978 28.6652ZM34.2475 28.8302C34.1632 28.9803 34.053 28.9376 34.3703 28.8627C34.6833 28.7888 35.1453 28.7405 35.8978 28.6652L35.6988 26.6751C35.006 26.7444 34.3841 26.8045 33.9107 26.9162C33.4417 27.027 32.8428 27.2472 32.5038 27.8508L34.2475 28.8302ZM34.2475 28.8302L34.2475 28.8302L32.5038 27.8508C32.4259 27.9894 32.3649 28.1367 32.322 28.2897L34.2475 28.8302ZM35.2977 30.1137C34.8188 29.5285 34.5263 29.1676 34.3573 28.8941C34.1859 28.6168 34.2941 28.6645 34.2475 28.8302L32.322 28.2897C32.1349 28.9563 32.4026 29.5355 32.656 29.9455C32.9116 30.3592 33.3089 30.8414 33.7498 31.3802L35.2977 30.1137ZM35.3558 30.1923L35.3558 30.1923L33.6917 31.3017L33.6917 31.3017L35.3558 30.1923ZM36.2586 31.9406C36.2454 31.5192 36.0827 31.1821 35.9099 30.9131C35.7494 30.6635 35.5243 30.3908 35.2977 30.1138L33.7498 31.3802C34.0063 31.6937 34.1435 31.8639 34.2273 31.9943C34.2987 32.1054 34.2622 32.0855 34.2596 32.0033L36.2586 31.9406ZM36.2424 32.2646C36.2566 32.1572 36.262 32.0489 36.2586 31.9406L34.2596 32.0033L34.2596 32.0033L36.2424 32.2646ZM35.1045 33.9868C35.3576 33.7337 35.6087 33.4848 35.7932 33.2524C35.992 33.0019 36.1874 32.6826 36.2424 32.2646L34.2596 32.0033C34.2703 31.9218 34.3087 31.9057 34.2266 32.0091C34.1302 32.1305 33.9767 32.2862 33.6903 32.5726L35.1045 33.9868ZM33.9875 35.1038L35.1045 33.9868L33.6903 32.5726L32.5733 33.6896L33.9875 35.1038ZM32.2649 36.2419C32.683 36.1869 33.0023 35.9915 33.2529 35.7926C33.4854 35.6081 33.7344 35.3569 33.9875 35.1038L32.5733 33.6896C32.2868 33.9761 32.1311 34.1296 32.0096 34.226C31.9062 34.3081 31.9224 34.2697 32.0039 34.259L32.2649 36.2419ZM31.9415 36.258C32.0496 36.2614 32.1577 36.256 32.2649 36.2419L32.0039 34.259L32.0039 34.259L31.9415 36.258ZM30.1142 35.297C30.3912 35.5237 30.664 35.7489 30.9137 35.9093C31.1828 36.0822 31.52 36.2449 31.9415 36.258L32.0039 34.259C32.0861 34.2616 32.106 34.2981 31.9949 34.2267C31.8644 34.1429 31.6942 34.0057 31.3806 33.7491L30.1142 35.297ZM28.8303 34.2466C28.6646 34.2931 28.6168 34.185 28.8942 34.3564C29.1678 34.5254 29.5288 34.818 30.1142 35.297L31.3806 33.7491C30.8417 33.3081 30.3594 32.9107 29.9455 32.655C29.5355 32.4016 28.9561 32.1338 28.2894 32.3211L28.8303 34.2466ZM28.8303 34.2466L28.8303 34.2466L28.2894 32.3211C28.1367 32.364 27.9896 32.4249 27.8513 32.5026L28.8303 34.2466ZM28.6652 35.8974C28.7405 35.1447 28.7889 34.6825 28.8628 34.3694C28.9378 34.052 28.9805 34.1623 28.8303 34.2466L27.8513 32.5026C27.2474 32.8416 27.0271 33.4407 26.9163 33.9098C26.8045 34.3833 26.7445 35.0054 26.6752 35.6984L28.6652 35.8974ZM28.0524 37.8696C28.3413 37.5623 28.4648 37.2087 28.5328 36.8961C28.5959 36.606 28.6296 36.2537 28.6652 35.8974L26.6752 35.6984C26.6348 36.1017 26.6115 36.3192 26.5786 36.4708C26.5505 36.5999 26.5387 36.5599 26.595 36.5L28.0524 37.8696ZM27.8128 38.0865C27.8984 38.0208 27.9786 37.9483 28.0524 37.8696L26.595 36.5L26.595 36.5L27.8128 38.0865ZM25.7895 38.5C26.1476 38.5 26.5014 38.5015 26.7963 38.4676C27.1142 38.431 27.4783 38.3433 27.8128 38.0865L26.595 36.5C26.6602 36.4499 26.6988 36.4656 26.5676 36.4807C26.4135 36.4985 26.1948 36.5 25.7895 36.5V38.5ZM24.2103 38.5H25.7895V36.5H24.2103V38.5ZM22.1874 38.0866C22.5219 38.3434 22.886 38.431 23.2037 38.4676C23.4986 38.5015 23.8523 38.5 24.2103 38.5V36.5C23.8051 36.5 23.5864 36.4985 23.4324 36.4807C23.3012 36.4656 23.3398 36.45 23.405 36.5L22.1874 38.0866ZM21.9474 37.8694C22.0214 37.9482 22.1016 38.0208 22.1874 38.0867L23.405 36.5L23.405 36.5L21.9474 37.8694ZM21.3348 35.8977C21.3704 36.2539 21.4041 36.606 21.4672 36.8961C21.5352 37.2086 21.6586 37.5621 21.9474 37.8694L23.405 36.5C23.4613 36.5599 23.4495 36.5999 23.4214 36.4708C23.3885 36.3193 23.3652 36.1019 23.3249 35.6987L21.3348 35.8977ZM21.1697 34.2471C21.0196 34.1628 21.0623 34.0525 21.1372 34.3699C21.2111 34.6829 21.2595 35.145 21.3348 35.8977L23.3249 35.6987C23.2556 35.0057 23.1955 34.3837 23.0837 33.9102C22.9729 33.4411 22.7526 32.842 22.1486 32.503L21.1697 34.2471ZM21.1697 34.2471L21.1697 34.2471L22.1487 32.503C22.0104 32.4254 21.8634 32.3645 21.7107 32.3216L21.1697 34.2471ZM19.8858 35.2975C20.4713 34.8185 20.8323 34.5259 21.1059 34.3569C21.3833 34.1855 21.3355 34.2936 21.1697 34.2471L21.7107 32.3216C21.044 32.1343 20.4646 32.4021 20.0545 32.6555C19.6407 32.9112 19.1584 33.3086 18.6194 33.7496L19.8858 35.2975ZM18.0584 36.2586C18.4799 36.2455 18.8172 36.0828 19.0862 35.9099C19.336 35.7494 19.6087 35.5242 19.8858 35.2975L18.6194 33.7496C18.3057 34.0062 18.1355 34.1435 18.0051 34.2273C17.894 34.2987 17.9139 34.2621 17.9961 34.2596L18.0584 36.2586ZM17.7351 36.2425C17.8423 36.2566 17.9504 36.262 18.0584 36.2586L17.9961 34.2596L17.9961 34.2596L17.7351 36.2425ZM16.0124 35.1043C16.2656 35.3575 16.5146 35.6087 16.7471 35.7932C16.9976 35.992 17.317 36.1875 17.7351 36.2425L17.9961 34.2596C18.0776 34.2703 18.0938 34.3087 17.9903 34.2266C17.8689 34.1302 17.7131 33.9766 17.4266 33.6901L16.0124 35.1043ZM14.8956 33.9875L16.0124 35.1043L17.4266 33.6901L16.3098 32.5733L14.8956 33.9875ZM13.7575 32.2648C13.8125 32.6829 14.0079 33.0023 14.2067 33.2529C14.3912 33.4854 14.6425 33.7344 14.8956 33.9875L16.3098 32.5733C16.0233 32.2868 15.8698 32.1311 15.7734 32.0096C15.6913 31.9062 15.7297 31.9224 15.7404 32.0039L13.7575 32.2648ZM13.7413 31.9415C13.738 32.0496 13.7434 32.1577 13.7575 32.2649L15.7404 32.0039L15.7404 32.0039L13.7413 31.9415ZM14.7024 30.1141C14.4757 30.3912 14.2505 30.664 14.0901 30.9137C13.9172 31.1828 13.7545 31.52 13.7413 31.9415L15.7404 32.0039C15.7378 32.0861 15.7013 32.106 15.7726 31.9949C15.8565 31.8644 15.9938 31.6942 16.2503 31.3806L14.7024 30.1141ZM15.7529 28.8303C15.7063 28.6645 15.8145 28.6167 15.6431 28.8941C15.474 29.1677 15.1814 29.5287 14.7024 30.1141L16.2503 31.3806C16.6913 30.8416 17.0887 30.3593 17.3444 29.9455C17.5978 29.5354 17.8656 28.956 17.6783 28.2893L15.7529 28.8303ZM15.7529 28.8303L15.7529 28.8303L17.6783 28.2893C17.6354 28.1366 17.5745 27.9896 17.4969 27.8513L15.7529 28.8303ZM14.1023 28.6652C14.8549 28.7405 15.3171 28.7888 15.6301 28.8628C15.9474 28.9377 15.8371 28.9804 15.7529 28.8303L17.4969 27.8513C17.1579 27.2474 16.5588 27.0271 16.0897 26.9163C15.6163 26.8045 14.9942 26.7444 14.3013 26.6751L14.1023 28.6652ZM12.1306 28.0527C12.4379 28.3414 12.7914 28.4648 13.1039 28.5328C13.394 28.5959 13.7461 28.6296 14.1023 28.6652L14.3013 26.6751C13.8981 26.6348 13.6807 26.6115 13.5292 26.5786C13.4001 26.5505 13.4401 26.5387 13.5 26.595L12.1306 28.0527ZM11.9133 27.8126C11.9791 27.8983 12.0518 27.9786 12.1306 28.0527L13.5 26.595L13.5 26.595L11.9133 27.8126ZM11.5 25.7897C11.5 26.1477 11.4985 26.5014 11.5324 26.7963C11.569 27.114 11.6566 27.4781 11.9133 27.8126L13.5 26.595C13.55 26.6602 13.5344 26.6988 13.5193 26.5676C13.5015 26.4136 13.5 26.1949 13.5 25.7897H11.5ZM11.5 24.2104V25.7897H13.5V24.2104H11.5ZM11.9135 22.1872C11.6567 22.5218 11.569 22.8859 11.5324 23.2037C11.4985 23.4986 11.5 23.8524 11.5 24.2104H13.5C13.5 23.8052 13.5015 23.5865 13.5193 23.4324C13.5344 23.3012 13.5501 23.3398 13.5 23.405L11.9135 22.1872ZM12.1304 21.9475C12.0518 22.0214 11.9792 22.1016 11.9135 22.1872L13.5 23.405L13.5 23.405L12.1304 21.9475ZM14.1024 21.3348C13.7462 21.3704 13.394 21.4041 13.1039 21.4672C12.7913 21.5352 12.4378 21.6587 12.1304 21.9475L13.5 23.405C13.4401 23.4613 13.4001 23.4495 13.5292 23.4214C13.6807 23.3885 13.8982 23.3652 14.3014 23.3248L14.1024 21.3348ZM15.7533 21.1697C15.8376 21.0195 15.9479 21.0622 15.6305 21.1372C15.3175 21.2111 14.8552 21.2595 14.1024 21.3348L14.3014 23.3248C14.9945 23.2555 15.6167 23.1955 16.0902 23.0836C16.5594 22.9728 17.1586 22.7524 17.4975 22.1483L15.7533 21.1697ZM15.7533 21.1697L15.7533 21.1697L17.4975 22.1483C17.575 22.0102 17.6358 21.8634 17.6787 21.711L15.7533 21.1697ZM14.7026 19.8855C15.1817 20.4711 15.4744 20.8322 15.6435 21.1058C15.8149 21.3833 15.7067 21.3354 15.7533 21.1697L17.6787 21.711C17.8662 21.0442 17.5983 20.4646 17.3449 20.0545C17.0891 19.6406 16.6916 19.1581 16.2506 18.619L14.7026 19.8855ZM13.7414 18.0576C13.7545 18.4792 13.9172 18.8165 14.0901 19.0857C14.2506 19.3355 14.4759 19.6083 14.7026 19.8855L16.2506 18.619C15.9939 18.3053 15.8566 18.1351 15.7727 18.0046C15.7013 17.8934 15.7379 17.9134 15.7404 17.9956L13.7414 18.0576ZM13.7575 17.7349C13.7434 17.8419 13.7381 17.9498 13.7414 18.0576L15.7404 17.9956L15.7404 17.9956L13.7575 17.7349ZM14.8958 16.0118C14.6426 16.265 14.3913 16.5141 14.2068 16.7466C14.0079 16.9972 13.8125 17.3167 13.7575 17.7349L15.7404 17.9956C15.7297 18.0771 15.6913 18.0933 15.7734 17.9898C15.8699 17.8683 16.0234 17.7126 16.31 17.426L14.8958 16.0118ZM16.0125 14.8951L14.8958 16.0118L16.31 17.426L17.4267 16.3093L16.0125 14.8951ZM17.7352 13.757C17.3171 13.812 16.9977 14.0074 16.7471 14.2062C16.5146 14.3907 16.2656 14.642 16.0125 14.8951L17.4267 16.3093C17.7132 16.0228 17.8689 15.8693 17.9904 15.7729C18.0938 15.6908 18.0776 15.7291 17.9961 15.7399L17.7352 13.757ZM18.0585 13.7408C17.9504 13.7375 17.8423 13.7429 17.7352 13.757L17.9961 15.7399L17.9961 15.7399L18.0585 13.7408ZM19.886 14.702C19.6089 14.4753 19.3361 14.2501 19.0863 14.0896C18.8172 13.9167 18.48 13.754 18.0585 13.7408L17.9961 15.7399C17.9139 15.7373 17.894 15.7007 18.0051 15.7721C18.1356 15.856 18.3059 15.9933 18.6195 16.2499L19.886 14.702ZM21.1698 15.7524C21.3355 15.7058 21.3833 15.814 21.1059 15.6426C20.8323 15.4735 20.4713 15.1809 19.886 14.702L18.6195 16.2499C19.1584 16.6909 19.6407 17.0882 20.0545 17.3439C20.4645 17.5973 21.0437 17.8651 21.7104 17.6779L21.1698 15.7524ZM21.1698 15.7524L21.1698 15.7524L21.7104 17.6779C21.8633 17.635 22.0106 17.574 22.1491 17.4962L21.1698 15.7524ZM21.3348 14.1021C21.2596 14.8546 21.2112 15.3167 21.1373 15.6296C21.0624 15.9469 21.0197 15.8367 21.1698 15.7524L22.1491 17.4962C22.7528 17.1572 22.973 16.5582 23.0838 16.0892C23.1956 15.6158 23.2556 14.9939 23.3249 14.3011L21.3348 14.1021ZM21.3298 14.2016V14.2016H23.3298V14.2016H21.3298ZM21.9472 12.1308C21.6585 12.4381 21.5351 12.7915 21.4672 13.104C21.4041 13.3939 21.3704 13.746 21.3348 14.1021L23.3249 14.3011C23.3652 13.898 23.3885 13.6807 23.4214 13.5292C23.4495 13.4002 23.4613 13.4401 23.405 13.5L21.9472 12.1308ZM22.1876 11.9132C22.1017 11.9791 22.0213 12.0519 21.9472 12.1308L23.405 13.5L23.405 13.5L22.1876 11.9132ZM24.2101 11.5C23.8522 11.5 23.4986 11.4985 23.2037 11.5324C22.8861 11.5689 22.5221 11.6566 22.1876 11.9132L23.405 13.5C23.3398 13.55 23.3012 13.5344 23.4324 13.5193C23.5864 13.5015 23.805 13.5 24.2101 13.5V11.5ZM25.7897 11.5H24.2101V13.5H25.7897V11.5ZM27.8126 11.9133C27.4781 11.6566 27.114 11.569 26.7963 11.5324C26.5014 11.4985 26.1477 11.5 25.7897 11.5V13.5C26.1949 13.5 26.4136 13.5015 26.5676 13.5193C26.6988 13.5344 26.6602 13.55 26.595 13.5L27.8126 11.9133ZM28.0527 12.1306C27.9786 12.0518 27.8984 11.9791 27.8126 11.9133L26.595 13.5L26.595 13.5L28.0527 12.1306ZM29 25C29 27.2091 27.2091 29 25 29V31C28.3137 31 31 28.3137 31 25H29ZM25 21C27.2091 21 29 22.7909 29 25H31C31 21.6863 28.3137 19 25 19V21ZM21 25C21 22.7909 22.7909 21 25 21V19C21.6863 19 19 21.6863 19 25H21ZM25 29C22.7909 29 21 27.2091 21 25H19C19 28.3137 21.6863 31 25 31V29Z" fill="white"/>
</svg>
