<?xml version="1.0" encoding="UTF-8"?>
<svg id="Layer_1" data-name="Layer 1" xmlns="http://www.w3.org/2000/svg" viewBox="0 0 49 51">
  <defs>
    <style>
      .cls-1 {
        fill: #ffa17a;
      }

      .cls-2 {
        fill: #fff;
      }
    </style>
  </defs>
  <rect class="cls-1" width="49" height="51" rx="20" ry="20"/>
  <path class="cls-2" d="M27.67,14.2l-1,.1h0l1-.1Zm-.35-1.39l-.73,.68h0l.73-.68Zm1.02,3.81l.49-.87h0l-.49,.87Zm.22,.09l-.27,.96h0l.27-.96Zm2.19-1.24l-.63-.77h0l.63,.77Zm1.23-.74l.03,1-.03-1Zm.16,0l.13-.99h0l-.13,.99Zm1.15,.85l-.71,.71h0l.71-.71Zm1.12,1.12l-.71,.71,.71-.71Zm.85,1.15l.99-.13h0s-.99,.13-.99,.13Zm0,.16l1,.03h0l-1-.03Zm-.74,1.23l-.77-.63,.77,.63Zm-1.24,2.19l-.96,.27h0l.96-.27Zm.09,.22l.87-.49h0l-.87,.49Zm2.42,.67l-.1,1h0l.1-1Zm1.39,.35l-.68,.73h0l.68-.73Zm.11,.12l-.79,.61h0l.79-.61Zm0,4.41l-.79-.61h0l.79,.61Zm-.11,.12l.68,.73h0l-.68-.73Zm-1.39,.35l.1,.99h0l-.1-.99Zm-2.42,.67l-.87-.49h0l.87,.49Zm-.09,.22l.96,.27h0l-.96-.27Zm1.24,2.19l.83-.55-.03-.04-.03-.04-.77,.63Zm0,0l-.83,.55,.03,.04,.03,.04,.77-.63Zm.74,1.23l1-.03h0l-1,.03Zm0,.16l.99,.13h0l-.99-.13Zm-3.12,3.12l.13,.99h0l-.13-.99Zm-.16,0l-.03,1h0l.03-1Zm-1.23-.74l-.63,.77h0l.63-.77Zm-2.19-1.24l-.27-.96h0l.27,.96Zm-.22,.09l.49,.87h0l-.49-.87Zm-.67,2.42l-1-.1h0l1,.1Zm-.35,1.39l-.73-.68h0l.73,.68Zm-.12,.11l-.61-.79h0l.61,.79Zm-4.41,0l.61-.79h0l-.61,.79Zm-.12-.11l.73-.68h0l-.73,.68Zm-.35-1.39l-.99,.1,.99-.1Zm-.67-2.42l-.49,.87h0l.49-.87Zm-.22-.09l-.27,.96h0l.27-.96Zm-2.19,1.24l.63,.77h0l-.63-.77Zm-1.23,.74l-.03-1h0l.03,1Zm-.16,0l-.13,.99h0l.13-.99Zm-1.15-.85l.71-.71h0l-.71,.71Zm-1.12-1.12l-.71,.71h0l.71-.71Zm-.85-1.15l.99-.13h0l-.99,.13Zm0-.16l-1-.03h0l1,.03Zm.74-1.23l-.77-.63h0l.77,.63Zm1.24-2.19l.96-.27h0l-.96,.27Zm-.09-.22l.87-.49h0l-.87,.49Zm-2.42-.67l-.1,.99h0l.1-.99Zm-1.39-.35l.68-.73h0l-.68,.73Zm-.11-.12l.79-.61-.79,.61Zm0-4.41l.79,.61h0l-.79-.61Zm.11-.12l.68,.73h0l-.68-.73Zm1.39-.35l-.1-.99,.1,.99Zm2.42-.67l.87,.49h0l-.87-.49Zm.09-.22l-.96-.27h0l.96,.27Zm-1.24-2.19l.77-.63-.77,.63Zm-.74-1.23l1-.03-1,.03Zm0-.16l-.99-.13h0l.99,.13Zm.85-1.15l-.71-.71h0l.71,.71Zm1.12-1.12l.71,.71h0l-.71-.71Zm1.15-.85l-.13-.99h0l.13,.99Zm.16,0l-.03,1h0l.03-1Zm1.23,.74l.63-.77h0l-.63,.77Zm2.19,1.24l-.27-.96h0l.27,.96Zm.22-.09l.49,.87h0l-.49-.87Zm.67-2.42l1,.1v-.05s0-.05,0-.05h-1Zm0,0l-.99-.1v.05s0,.05,0,.05h1Zm.35-1.39l.73,.68h0l-.73-.68Zm.12-.11l.61,.79h0l-.61-.79Zm4.41,0l-.61,.79h0l.61-.79Zm1.46,1.4c-.04-.36-.07-.71-.13-1-.07-.31-.19-.67-.48-.97l-1.46,1.37c-.06-.06-.04-.1-.02,.03,.03,.15,.06,.37,.1,.77l1.99-.2Zm.17,1.65c.15,.08,.11,.19,.03-.12-.07-.31-.12-.78-.2-1.53l-1.99,.2c.07,.69,.13,1.31,.24,1.79,.11,.47,.33,1.07,.93,1.41l.98-1.74Zm0,0h0l-.98,1.74c.14,.08,.29,.14,.44,.18l.54-1.93Zm1.28-1.05c-.59,.48-.95,.77-1.22,.94-.28,.17-.23,.06-.06,.11l-.54,1.93c.67,.19,1.25-.08,1.66-.33,.41-.26,.9-.65,1.44-1.09l-1.27-1.55Zm1.83-.96c-.42,.01-.76,.18-1.03,.35-.25,.16-.52,.39-.8,.61l1.27,1.55c.31-.26,.48-.39,.61-.48,.11-.07,.09-.03,0-.03l-.06-2Zm.32,.02c-.11-.01-.22-.02-.32-.02l.06,2,.26-1.98Zm1.72,1.14c-.25-.25-.5-.5-.73-.69-.25-.2-.57-.39-.99-.45l-.26,1.98c-.08-.01-.1-.05,0,.03,.12,.1,.28,.25,.56,.54l1.41-1.41Zm1.12,1.12l-1.12-1.12-1.41,1.41,1.12,1.12,1.41-1.41Zm1.14,1.72c-.06-.42-.25-.74-.45-.99-.18-.23-.44-.48-.69-.73l-1.41,1.41c.29,.29,.44,.44,.54,.56,.08,.1,.04,.09,.03,0l1.98-.26Zm.02,.32c0-.11,0-.22-.02-.32l-1.98,.26h0l2,.06Zm-.96,1.83c.23-.28,.45-.55,.61-.8,.17-.27,.34-.61,.35-1.03l-2-.06c0-.08,.04-.1-.03,0-.08,.13-.22,.3-.48,.61l1.55,1.27Zm-1.05,1.28c.05,.17-.06,.21,.11-.06,.17-.27,.46-.63,.94-1.22l-1.55-1.27c-.44,.54-.84,1.02-1.09,1.44-.25,.41-.52,.99-.33,1.66l1.93-.54Zm0,0h0l-1.93,.54c.04,.15,.1,.3,.18,.44l1.74-.98Zm1.65,.17c-.75-.08-1.21-.12-1.53-.2-.32-.07-.21-.12-.12,.03l-1.74,.98c.34,.6,.94,.82,1.41,.93,.47,.11,1.1,.17,1.79,.24l.2-1.99Zm1.97,.61c-.31-.29-.66-.41-.97-.48-.29-.06-.64-.1-1-.13l-.2,1.99c.4,.04,.62,.06,.77,.1,.13,.03,.09,.04,.03-.02l1.37-1.46Zm.22,.24c-.07-.09-.14-.17-.22-.24l-1.37,1.46h0l1.59-1.22Zm.41,2.02c0-.36,0-.71-.03-1.01-.04-.32-.12-.68-.38-1.02l-1.59,1.22c-.05-.07-.03-.1-.02,.03,.02,.15,.02,.37,.02,.78h2Zm0,1.58v-1.58h-2v1.58h2Zm-.41,2.02c.26-.33,.34-.7,.38-1.02,.03-.29,.03-.65,.03-1.01h-2c0,.41,0,.62-.02,.78-.02,.13-.03,.09,.02,.03l1.59,1.22Zm-.22,.24c.08-.07,.15-.15,.22-.24l-1.59-1.22h0l1.37,1.46Zm-1.97,.61c.36-.04,.71-.07,1-.13,.31-.07,.67-.19,.97-.48l-1.37-1.46c.06-.06,.1-.04-.03-.02-.15,.03-.37,.06-.77,.1l.2,1.99Zm-1.65,.17c-.08,.15-.19,.11,.12,.03,.31-.07,.78-.12,1.53-.2l-.2-1.99c-.69,.07-1.31,.13-1.79,.24-.47,.11-1.07,.33-1.41,.93l1.74,.98Zm0,0h0l-1.74-.98c-.08,.14-.14,.29-.18,.44l1.93,.54Zm1.05,1.28c-.48-.59-.77-.95-.94-1.22-.17-.28-.06-.23-.11-.06l-1.93-.54c-.19,.67,.08,1.25,.33,1.66,.26,.41,.65,.9,1.09,1.43l1.55-1.27Zm.06,.08h0l-1.66,1.11h0l1.66-1.11Zm.9,1.75c-.01-.42-.18-.76-.35-1.03-.16-.25-.39-.52-.61-.8l-1.55,1.27c.26,.31,.39,.48,.48,.61,.07,.11,.03,.09,.03,0l2-.06Zm-.02,.32c.01-.11,.02-.22,.02-.32l-2,.06h0l1.98,.26Zm-1.14,1.72c.25-.25,.5-.5,.69-.73,.2-.25,.39-.57,.45-.99l-1.98-.26c.01-.08,.05-.1-.03,0-.1,.12-.25,.28-.54,.56l1.41,1.41Zm-1.12,1.12l1.12-1.12-1.41-1.41-1.12,1.12,1.41,1.41Zm-1.72,1.14c.42-.06,.74-.25,.99-.45,.23-.18,.48-.44,.73-.69l-1.41-1.41c-.29,.29-.44,.44-.56,.54-.1,.08-.09,.04,0,.03l.26,1.98Zm-.32,.02c.11,0,.22,0,.32-.02l-.26-1.98h0l-.06,2Zm-1.83-.96c.28,.23,.55,.45,.8,.61,.27,.17,.61,.34,1.03,.35l.06-2c.08,0,.1,.04,0-.03-.13-.08-.3-.22-.61-.48l-1.27,1.55Zm-1.28-1.05c-.17,.05-.21-.06,.06,.11,.27,.17,.63,.46,1.22,.94l1.27-1.55c-.54-.44-1.02-.84-1.44-1.09-.41-.25-.99-.52-1.66-.33l.54,1.93Zm0,0h0l-.54-1.93c-.15,.04-.3,.1-.44,.18l.98,1.74Zm-.17,1.65c.08-.75,.12-1.21,.2-1.53,.07-.32,.12-.21-.03-.12l-.98-1.74c-.6,.34-.82,.94-.93,1.41-.11,.47-.17,1.1-.24,1.79l1.99,.2Zm-.61,1.97c.29-.31,.41-.66,.48-.97,.06-.29,.1-.64,.13-1l-1.99-.2c-.04,.4-.06,.62-.1,.77-.03,.13-.04,.09,.02,.03l1.46,1.37Zm-.24,.22c.09-.07,.17-.14,.24-.22l-1.46-1.37h0l1.22,1.59Zm-2.02,.41c.36,0,.71,0,1.01-.03,.32-.04,.68-.12,1.02-.38l-1.22-1.59c.07-.05,.1-.03-.03-.02-.15,.02-.37,.02-.78,.02v2Zm-1.58,0h1.58v-2h-1.58v2Zm-2.02-.41c.33,.26,.7,.34,1.02,.38,.29,.03,.65,.03,1.01,.03v-2c-.41,0-.62,0-.78-.02-.13-.02-.09-.03-.03,.02l-1.22,1.59Zm-.24-.22c.07,.08,.15,.15,.24,.22l1.22-1.59h0l-1.46,1.37Zm-.61-1.97c.04,.36,.07,.71,.13,1,.07,.31,.19,.67,.48,.97l1.46-1.37c.06,.06,.04,.1,.02-.03-.03-.15-.06-.37-.1-.77l-1.99,.2Zm-.17-1.65c-.15-.08-.11-.19-.03,.12,.07,.31,.12,.78,.2,1.53l1.99-.2c-.07-.69-.13-1.31-.24-1.79-.11-.47-.33-1.07-.94-1.41l-.98,1.74Zm0,0h0l.98-1.74c-.14-.08-.29-.14-.44-.18l-.54,1.93Zm-1.28,1.05c.59-.48,.95-.77,1.22-.94,.28-.17,.23-.06,.06-.11l.54-1.93c-.67-.19-1.25,.08-1.66,.33-.41,.26-.9,.65-1.44,1.09l1.27,1.55Zm-1.83,.96c.42-.01,.76-.18,1.03-.35,.25-.16,.52-.39,.8-.61l-1.27-1.55c-.31,.26-.48,.39-.61,.48-.11,.07-.09,.03,0,.03l.06,2Zm-.32-.02c.11,.01,.22,.02,.32,.02l-.06-2h0l-.26,1.98Zm-1.72-1.14c.25,.25,.5,.5,.73,.69,.25,.2,.57,.39,.99,.45l.26-1.98c.08,.01,.1,.05,0-.03-.12-.1-.28-.25-.56-.54l-1.41,1.41Zm-1.12-1.12l1.12,1.12,1.41-1.41-1.12-1.12-1.41,1.41Zm-1.14-1.72c.06,.42,.25,.74,.45,.99,.18,.23,.44,.48,.69,.73l1.41-1.41c-.29-.29-.44-.44-.54-.56-.08-.1-.04-.09-.03,0l-1.98,.26Zm-.02-.32c0,.11,0,.22,.02,.32l1.98-.26h0l-2-.06Zm.96-1.83c-.23,.28-.45,.55-.61,.8-.17,.27-.34,.61-.35,1.03l2,.06c0,.08-.04,.1,.03,0,.08-.13,.22-.3,.48-.61l-1.55-1.27Zm1.05-1.28c-.05-.17,.06-.21-.11,.06-.17,.27-.46,.63-.94,1.22l1.55,1.27c.44-.54,.84-1.02,1.09-1.44,.25-.41,.52-.99,.33-1.66l-1.93,.54Zm0,0h0l1.93-.54c-.04-.15-.1-.3-.18-.44l-1.74,.98Zm-1.65-.17c.75,.08,1.21,.12,1.53,.2,.32,.07,.21,.12,.12-.03l1.74-.98c-.34-.6-.94-.82-1.41-.93-.47-.11-1.1-.17-1.79-.24l-.2,1.99Zm-1.97-.61c.31,.29,.66,.41,.97,.48,.29,.06,.64,.1,1,.13l.2-1.99c-.4-.04-.62-.06-.77-.1-.13-.03-.09-.04-.03,.02l-1.37,1.46Zm-.22-.24c.07,.09,.14,.17,.22,.24l1.37-1.46h0l-1.59,1.22Zm-.41-2.02c0,.36,0,.71,.03,1.01,.04,.32,.12,.68,.38,1.02l1.59-1.22c.05,.07,.03,.1,.02-.03-.02-.15-.02-.37-.02-.78h-2Zm0-1.58v1.58h2v-1.58h-2Zm.41-2.02c-.26,.33-.34,.7-.38,1.02-.03,.29-.03,.65-.03,1.01h2c0-.41,0-.62,.02-.78,.02-.13,.03-.09-.02-.03l-1.59-1.22Zm.22-.24c-.08,.07-.15,.15-.22,.24l1.59,1.22h0l-1.37-1.46Zm1.97-.61c-.36,.04-.71,.07-1,.13-.31,.07-.67,.19-.97,.48l1.37,1.46c-.06,.06-.1,.04,.03,.02,.15-.03,.37-.06,.77-.1l-.2-1.99Zm1.65-.17c.08-.15,.19-.11-.12-.03-.31,.07-.78,.12-1.53,.2l.2,1.99c.69-.07,1.32-.13,1.79-.24,.47-.11,1.07-.33,1.41-.94l-1.74-.98Zm0,0h0l1.74,.98c.08-.14,.14-.28,.18-.44l-1.93-.54Zm-1.05-1.28c.48,.59,.77,.95,.94,1.22,.17,.28,.06,.23,.11,.06l1.93,.54c.19-.67-.08-1.25-.33-1.66-.26-.41-.65-.9-1.09-1.44l-1.55,1.27Zm-.96-1.83c.01,.42,.18,.76,.35,1.03,.16,.25,.39,.52,.61,.8l1.55-1.27c-.26-.31-.39-.48-.48-.61-.07-.11-.03-.09-.03,0l-2,.06Zm.02-.32c-.01,.11-.02,.21-.02,.32l2-.06h0l-1.98-.26Zm1.14-1.72c-.25,.25-.5,.5-.69,.73-.2,.25-.39,.57-.45,.99l1.98,.26c-.01,.08-.05,.1,.03,0,.1-.12,.25-.28,.54-.56l-1.41-1.41Zm1.12-1.12l-1.12,1.12,1.41,1.41,1.12-1.12-1.41-1.41Zm1.72-1.14c-.42,.06-.74,.25-.99,.45-.23,.18-.48,.44-.73,.69l1.41,1.41c.29-.29,.44-.44,.56-.54,.1-.08,.09-.04,0-.03l-.26-1.98Zm.32-.02c-.11,0-.22,0-.32,.02l.26,1.98h0l.06-2Zm1.83,.96c-.28-.23-.55-.45-.8-.61-.27-.17-.61-.34-1.03-.35l-.06,2c-.08,0-.1-.04,0,.03,.13,.08,.3,.22,.61,.48l1.27-1.55Zm1.28,1.05c.17-.05,.21,.06-.06-.11-.27-.17-.63-.46-1.22-.94l-1.27,1.55c.54,.44,1.02,.84,1.44,1.09,.41,.25,.99,.52,1.66,.33l-.54-1.93Zm0,0h0l.54,1.93c.15-.04,.3-.1,.44-.18l-.98-1.74Zm.17-1.65c-.08,.75-.12,1.21-.2,1.53-.07,.32-.12,.21,.03,.12l.98,1.74c.6-.34,.82-.94,.93-1.41,.11-.47,.17-1.1,.24-1.79l-1.99-.2Zm0,.1h0Zm.62-2.07c-.29,.31-.41,.66-.48,.97-.06,.29-.1,.64-.13,1l1.99,.2c.04-.4,.06-.62,.1-.77,.03-.13,.04-.09-.02-.03l-1.46-1.37Zm.24-.22c-.09,.07-.17,.14-.24,.22l1.46,1.37h0l-1.22-1.59Zm2.02-.41c-.36,0-.71,0-1.01,.03-.32,.04-.68,.12-1.02,.38l1.22,1.59c-.07,.05-.1,.03,.03,.02,.15-.02,.37-.02,.78-.02v-2Zm1.58,0h-1.58v2h1.58v-2Zm2.02,.41c-.33-.26-.7-.34-1.02-.38-.29-.03-.65-.03-1.01-.03v2c.41,0,.62,0,.78,.02,.13,.02,.09,.03,.03-.02l1.22-1.59Zm.24,.22c-.07-.08-.15-.15-.24-.22l-1.22,1.59h0l1.46-1.37Zm.95,12.87c0,2.21-1.79,4-4,4v2c3.31,0,6-2.69,6-6h-2Zm-4-4c2.21,0,4,1.79,4,4h2c0-3.31-2.69-6-6-6v2Zm-4,4c0-2.21,1.79-4,4-4v-2c-3.31,0-6,2.69-6,6h2Zm4,4c-2.21,0-4-1.79-4-4h-2c0,3.31,2.69,6,6,6v-2Z"/>
</svg>