<svg width="51" height="52" viewBox="0 0 51 52" fill="none" xmlns="http://www.w3.org/2000/svg">
<path d="M11 37L40.75 37" stroke="#006B62" stroke-width="4" stroke-linecap="round"/>
<path d="M11 26L32.25 26" stroke="#006B62" stroke-width="4" stroke-linecap="round"/>
<path d="M11 15L23.75 15" stroke="#006B62" stroke-width="4" stroke-linecap="round"/>
<path d="M40 29L39.2318 29.6402L40 30.5621L40.7682 29.6402L40 29ZM41 14C41 13.4477 40.5523 13 40 13C39.4477 13 39 13.4477 39 14L41 14ZM34.2318 23.6402L39.2318 29.6402L40.7682 28.3598L35.7682 22.3598L34.2318 23.6402ZM40.7682 29.6402L45.7682 23.6402L44.2318 22.3598L39.2318 28.3598L40.7682 29.6402ZM41 29L41 24L39 24L39 29L41 29ZM41 24L41 14L39 14L39 24L41 24Z" fill="#006B62"/>
</svg>
