<svg width="37" height="37" viewBox="0 0 37 37" fill="none" xmlns="http://www.w3.org/2000/svg">
<path d="M30.0625 18.5001V17.1042C30.0625 15.2186 30.0625 14.2758 29.4768 13.69C28.891 13.1042 27.9482 13.1042 26.0625 13.1042H20.9277C20.1102 13.1042 19.7015 13.1042 19.3339 12.952C18.9664 12.7998 18.6774 12.5107 18.0993 11.9327L15.8174 9.65082C15.2394 9.07276 14.9504 8.78373 14.5828 8.63149C14.2153 8.47925 13.8065 8.47925 12.989 8.47925H9.39587C7.51026 8.47925 6.56745 8.47925 5.98166 9.06503C5.39587 9.65082 5.39587 10.5936 5.39587 12.4792V24.5209C5.39587 26.4065 5.39587 27.3493 5.98166 27.9351C6.56745 28.5209 7.51026 28.5209 9.39588 28.5209H18.5" stroke="black" stroke-width="2"/>
<circle cx="24.9167" cy="25.4374" r="3.85417" stroke="black" stroke-width="2"/>
<path d="M29.5416 30.0625L31.8541 32.375" stroke="black" stroke-width="2" stroke-linecap="round"/>
</svg>
